<svg width="32" height="33" viewBox="0 0 32 33" fill="none" xmlns="http://www.w3.org/2000/svg">
<rect y="0.5" width="32" height="32" rx="16" fill="black"/>
<path d="M6.625 11.6388C6.625 10.2964 7.67433 9.20825 8.96875 9.20825H23.0312C24.3257 9.20825 25.375 10.2964 25.375 11.6388V21.361C25.375 22.7034 24.3257 23.7916 23.0312 23.7916H8.96875C7.67433 23.7916 6.625 22.7034 6.625 21.361V11.6388Z" fill="white"/>
<path d="M8.38281 11.0312L15.333 16.021C15.7343 16.3091 16.2657 16.3091 16.667 16.021L23.6172 11.0312M8.96875 23.7916H23.0313C24.3257 23.7916 25.375 22.7034 25.375 21.361V11.6388C25.375 10.2964 24.3257 9.20825 23.0313 9.20825H8.96875C7.67433 9.20825 6.625 10.2964 6.625 11.6388V21.361C6.625 22.7034 7.67433 23.7916 8.96875 23.7916Z" stroke="black" stroke-width="1.5" stroke-linecap="round" stroke-linejoin="round"/>
</svg>
