<svg width="32" height="33" viewBox="0 0 32 33" fill="none" xmlns="http://www.w3.org/2000/svg">
<rect y="0.5" width="32" height="32" rx="16" fill="black"/>
<path d="M23.2192 22.1425L23.6692 22.3605C23.6442 22.4121 23.6105 22.459 23.5696 22.4992L23.2192 22.1425ZM23.2192 22.1425L23.5696 22.4992L23.5695 22.4993L23.5694 22.4994L23.5689 22.4999L23.5669 22.5018L23.5589 22.5097L23.5282 22.5399L23.4164 22.6504C23.3227 22.7431 23.1954 22.8695 23.061 23.0044C22.7843 23.2819 22.5004 23.5724 22.3978 23.6929C22.3926 23.699 22.3873 23.705 22.3819 23.7108C21.8977 24.2274 21.3095 24.4745 20.5821 24.4745H20.5763C20.5228 24.4745 20.4478 24.4745 20.374 24.4696M23.2192 22.1425C23.6692 22.3605 23.6692 22.3604 23.6693 22.3602L23.6694 22.3599L23.6698 22.3593L23.6705 22.3578L23.6723 22.3539L23.6776 22.3426C23.6818 22.3335 23.6873 22.3214 23.6937 22.3065C23.7067 22.2767 23.7237 22.2356 23.7424 22.1856C23.7791 22.0869 23.8248 21.9467 23.8556 21.787C23.9098 21.5065 23.9537 20.9779 23.5676 20.5956C23.5674 20.5953 23.5671 20.595 23.5668 20.5948L21.4657 18.498L21.4657 18.498L21.4654 18.4977C21.3072 18.3273 20.9917 18.0662 20.5553 18.0662C20.1077 18.0662 19.7781 18.346 19.6259 18.4979L18.8778 19.2445L19.231 19.5984L18.8778 19.2445C18.8218 19.3004 18.7506 19.3612 18.6509 19.3612C18.6146 19.3612 18.5716 19.3543 18.5085 19.3245C18.5045 19.322 18.4992 19.3188 18.4936 19.3155C18.489 19.3128 18.4835 19.3095 18.477 19.3059C18.35 19.2284 18.2084 19.1578 18.0834 19.0954L18.0727 19.0901C17.9171 19.0124 17.7791 18.9432 17.6474 18.8598L17.6469 18.8595C16.4743 18.1194 15.4033 17.1487 14.3789 15.8894C14.3752 15.8849 14.3714 15.8804 14.3676 15.876C13.8184 15.1782 13.4693 14.6089 13.2231 14.0187L13.2187 14.0054C13.1926 13.9221 13.1852 13.8691 13.1901 13.8265C13.1936 13.7968 13.206 13.7376 13.2947 13.6491C13.2973 13.6465 13.2999 13.6438 13.3024 13.6412C13.3778 13.5738 13.4171 13.5403 13.4377 13.5231C13.4477 13.5148 13.4532 13.5105 13.4565 13.5079L13.4647 13.5015C13.4684 13.4987 13.4748 13.4937 13.4821 13.4877C13.5151 13.4607 13.5421 13.4332 13.5655 13.4093L13.5669 13.4079C13.5791 13.3956 13.5957 13.3785 13.6177 13.3559C13.6425 13.3305 13.6742 13.2981 13.7137 13.2577C13.7897 13.1843 13.8673 13.106 13.9405 13.0321C13.9758 12.9964 14.0101 12.9618 14.0428 12.9292C14.2926 12.6799 14.493 12.3657 14.493 11.9849C14.493 11.6041 14.2926 11.2899 14.0428 11.0407L13.0036 10.0036C12.9426 9.94084 12.8818 9.87921 12.8229 9.81952L12.821 9.81755C12.7602 9.75594 12.7015 9.69646 12.644 9.63723L20.374 24.4696M20.374 24.4696C19.1405 24.3907 18.0153 23.913 17.2143 23.5307L17.2122 23.5297C14.9872 22.4547 13.0344 20.9288 11.4137 18.9981L11.4122 18.9963C10.0827 17.3971 9.18009 15.9017 8.5803 14.2847C8.20976 13.2944 8.05786 12.4791 8.12309 11.685L8.12323 11.6833L8.12323 11.6833C8.17145 11.1203 8.3944 10.6405 8.79488 10.2409L10.0963 8.94213L10.1076 8.93116C10.3519 8.70227 10.6666 8.52563 11.0296 8.52563C11.4703 8.52563 11.7866 8.78528 11.94 8.93832L11.94 8.93833L11.9455 8.94383C12.1856 9.16806 12.4122 9.39833 12.6439 9.63714L20.374 24.4696ZM20.374 24.4696C20.3737 24.4696 20.3735 24.4696 20.3733 24.4695L20.4065 23.9706L20.3746 24.4696C20.3744 24.4696 20.3742 24.4696 20.374 24.4696ZM13.2697 13.6698L13.2699 13.6696L13.2697 13.6698Z" fill="white" stroke="black" stroke-linecap="round" stroke-linejoin="round"/>
</svg>
