<svg width="32" height="33" viewBox="0 0 32 33" fill="none" xmlns="http://www.w3.org/2000/svg">
<rect y="0.5" width="32" height="32" rx="16" fill="black"/>
<path d="M12.1617 14.1038H9.23633V23.4326H12.1617V14.1038Z" fill="white"/>
<path d="M20.0751 13.9014C19.9672 13.8879 19.8526 13.8812 19.738 13.8744C18.1001 13.807 17.1767 14.7777 16.8531 15.1956C16.7655 15.3102 16.725 15.3776 16.725 15.3776V14.1306H13.9277V23.4594H16.725H16.8531C16.8531 22.509 16.8531 21.5653 16.8531 20.6149C16.8531 20.1027 16.8531 19.5904 16.8531 19.0781C16.8531 18.4445 16.8059 17.7704 17.1227 17.1908C17.3924 16.7054 17.8777 16.4628 18.4236 16.4628C20.0414 16.4628 20.0751 17.9255 20.0751 18.0603C20.0751 18.067 20.0751 18.0738 20.0751 18.0738V23.4999H23.0004V17.4132C23.0004 15.3304 21.9422 14.1036 20.0751 13.9014Z" fill="white"/>
<path d="M10.6986 12.8972C11.6367 12.8972 12.3972 12.1367 12.3972 11.1986C12.3972 10.2605 11.6367 9.5 10.6986 9.5C9.76049 9.5 9 10.2605 9 11.1986C9 12.1367 9.76049 12.8972 10.6986 12.8972Z" fill="white"/>
</svg>
