<svg width="32" height="33" viewBox="0 0 32 33" fill="none" xmlns="http://www.w3.org/2000/svg">
<rect y="0.5" width="32" height="32" rx="16" fill="black"/>
<g clip-path="url(#clip0_949_3460)">
<path d="M16 9.1207C18.4047 9.1207 18.6895 9.13125 19.6352 9.17344C20.5141 9.21211 20.9887 9.35977 21.3051 9.48281C21.7234 9.64453 22.0258 9.84141 22.3387 10.1543C22.6551 10.4707 22.8484 10.7695 23.0102 11.1879C23.1332 11.5043 23.2809 11.9824 23.3195 12.8578C23.3617 13.807 23.3723 14.0918 23.3723 16.493C23.3723 18.8977 23.3617 19.1824 23.3195 20.1281C23.2809 21.007 23.1332 21.4816 23.0102 21.798C22.8484 22.2164 22.6516 22.5187 22.3387 22.8316C22.0223 23.148 21.7234 23.3414 21.3051 23.5031C20.9887 23.6262 20.5105 23.7738 19.6352 23.8125C18.6859 23.8547 18.4012 23.8652 16 23.8652C13.5953 23.8652 13.3105 23.8547 12.3648 23.8125C11.4859 23.7738 11.0113 23.6262 10.6949 23.5031C10.2766 23.3414 9.97422 23.1445 9.66133 22.8316C9.34492 22.5152 9.15156 22.2164 8.98984 21.798C8.8668 21.4816 8.71914 21.0035 8.68047 20.1281C8.63828 19.1789 8.62773 18.8941 8.62773 16.493C8.62773 14.0883 8.63828 13.8035 8.68047 12.8578C8.71914 11.9789 8.8668 11.5043 8.98984 11.1879C9.15156 10.7695 9.34844 10.4672 9.66133 10.1543C9.97773 9.83789 10.2766 9.64453 10.6949 9.48281C11.0113 9.35977 11.4895 9.21211 12.3648 9.17344C13.3105 9.13125 13.5953 9.1207 16 9.1207ZM16 7.5C13.5566 7.5 13.2508 7.51055 12.291 7.55273C11.3348 7.59492 10.6773 7.74961 10.1078 7.97109C9.51367 8.20312 9.01094 8.50898 8.51172 9.01172C8.00898 9.51094 7.70312 10.0137 7.47109 10.6043C7.24961 11.1773 7.09492 11.8312 7.05273 12.7875C7.01055 13.7508 7 14.0566 7 16.5C7 18.9434 7.01055 19.2492 7.05273 20.209C7.09492 21.1652 7.24961 21.8227 7.47109 22.3922C7.70312 22.9863 8.00898 23.4891 8.51172 23.9883C9.01094 24.4875 9.51367 24.7969 10.1043 25.0254C10.6773 25.2469 11.3313 25.4016 12.2875 25.4437C13.2473 25.4859 13.5531 25.4965 15.9965 25.4965C18.4398 25.4965 18.7457 25.4859 19.7055 25.4437C20.6617 25.4016 21.3191 25.2469 21.8887 25.0254C22.4793 24.7969 22.982 24.4875 23.4813 23.9883C23.9805 23.4891 24.2898 22.9863 24.5184 22.3957C24.7398 21.8227 24.8945 21.1687 24.9367 20.2125C24.9789 19.2527 24.9895 18.9469 24.9895 16.5035C24.9895 14.0602 24.9789 13.7543 24.9367 12.7945C24.8945 11.8383 24.7398 11.1809 24.5184 10.6113C24.2969 10.0137 23.991 9.51094 23.4883 9.01172C22.9891 8.5125 22.4863 8.20312 21.8957 7.97461C21.3227 7.75312 20.6688 7.59844 19.7125 7.55625C18.7492 7.51055 18.4434 7.5 16 7.5Z" fill="white"/>
<path d="M16 11.877C13.4477 11.877 11.377 13.9477 11.377 16.5C11.377 19.0523 13.4477 21.123 16 21.123C18.5523 21.123 20.623 19.0523 20.623 16.5C20.623 13.9477 18.5523 11.877 16 11.877ZM16 19.4988C14.3441 19.4988 13.0012 18.1559 13.0012 16.5C13.0012 14.8441 14.3441 13.5012 16 13.5012C17.6559 13.5012 18.9988 14.8441 18.9988 16.5C18.9988 18.1559 17.6559 19.4988 16 19.4988Z" fill="white"/>
<path d="M21.8852 11.694C21.8852 12.2917 21.4 12.7733 20.8059 12.7733C20.2082 12.7733 19.7266 12.2882 19.7266 11.694C19.7266 11.0964 20.2117 10.6147 20.8059 10.6147C21.4 10.6147 21.8852 11.0999 21.8852 11.694Z" fill="white"/>
</g>
<defs>
<clipPath id="clip0_949_3460">
<rect width="18" height="18" fill="white" transform="translate(7 7.5)"/>
</clipPath>
</defs>
</svg>
