<svg width="32" height="33" viewBox="0 0 32 33" fill="none" xmlns="http://www.w3.org/2000/svg">
<rect y="0.5" width="32" height="32" rx="16" fill="black"/>
<path d="M21.4997 8.16675C21.4997 7.89061 21.2758 7.66675 20.9997 7.66675H18.4997C17.262 7.66675 16.075 8.15841 15.1998 9.03358C14.3247 9.90875 13.833 11.0957 13.833 12.3334V14.3334H11.833C11.5569 14.3334 11.333 14.5573 11.333 14.8334V18.1667C11.333 18.4429 11.5569 18.6667 11.833 18.6667H13.833V24.8334C13.833 25.1096 14.0569 25.3334 14.333 25.3334H17.6663C17.9425 25.3334 18.1663 25.1096 18.1663 24.8334V18.6667H20.1663C20.3958 18.6667 20.5958 18.5106 20.6514 18.288L21.4847 14.9547C21.5221 14.8053 21.4885 14.6471 21.3938 14.5257C21.299 14.4044 21.1536 14.3334 20.9997 14.3334H18.1663V12.3334C18.1663 12.245 18.2015 12.1602 18.264 12.0977C18.3265 12.0352 18.4113 12.0001 18.4997 12.0001H20.9997C21.2758 12.0001 21.4997 11.7762 21.4997 11.5001V8.16675Z" fill="white" stroke="black" stroke-linecap="round" stroke-linejoin="round"/>
</svg>
