<svg width="92" height="92" viewBox="0 0 92 92" fill="none" xmlns="http://www.w3.org/2000/svg">
<g filter="url(#filter0_d_949_3427)">
<rect x="24" y="24" width="44" height="44" rx="22" fill="white"/>
<path d="M55.97 52.33C55.97 52.69 55.89 53.06 55.72 53.42C55.55 53.78 55.33 54.12 55.04 54.44C54.55 54.98 54.01 55.37 53.4 55.62C52.8 55.87 52.15 56 51.45 56C50.43 56 49.34 55.76 48.19 55.27C47.04 54.78 45.89 54.12 44.75 53.29C43.6 52.45 42.51 51.52 41.47 50.49C40.44 49.45 39.51 48.36 38.68 47.22C37.86 46.08 37.2 44.94 36.72 43.81C36.24 42.67 36 41.58 36 40.54C36 39.86 36.12 39.21 36.36 38.61C36.6 38 36.98 37.44 37.51 36.94C38.15 36.31 38.85 36 39.59 36C39.87 36 40.15 36.06 40.4 36.18C40.66 36.3 40.89 36.48 41.07 36.74L43.39 40.01C43.57 40.26 43.7 40.49 43.79 40.71C43.88 40.92 43.93 41.13 43.93 41.32C43.93 41.56 43.86 41.8 43.72 42.03C43.59 42.26 43.4 42.5 43.16 42.74L42.4 43.53C42.29 43.64 42.24 43.77 42.24 43.93C42.24 44.01 42.25 44.08 42.27 44.16C42.3 44.24 42.33 44.3 42.35 44.36C42.53 44.69 42.84 45.12 43.28 45.64C43.73 46.16 44.21 46.69 44.73 47.22C45.27 47.75 45.79 48.24 46.32 48.69C46.84 49.13 47.27 49.43 47.61 49.61C47.66 49.63 47.72 49.66 47.79 49.69C47.87 49.72 47.95 49.73 48.04 49.73C48.21 49.73 48.34 49.67 48.45 49.56L49.21 48.81C49.46 48.56 49.7 48.37 49.93 48.25C50.16 48.11 50.39 48.04 50.64 48.04C50.83 48.04 51.03 48.08 51.25 48.17C51.47 48.26 51.7 48.39 51.95 48.56L55.26 50.91C55.52 51.09 55.7 51.3 55.81 51.55C55.91 51.8 55.97 52.05 55.97 52.33Z" stroke="#5083C1" stroke-width="2" stroke-miterlimit="10"/>
</g>
<defs>
<filter id="filter0_d_949_3427" x="0" y="0" width="92" height="92" filterUnits="userSpaceOnUse" color-interpolation-filters="sRGB">
<feFlood flood-opacity="0" result="BackgroundImageFix"/>
<feColorMatrix in="SourceAlpha" type="matrix" values="0 0 0 0 0 0 0 0 0 0 0 0 0 0 0 0 0 0 127 0" result="hardAlpha"/>
<feOffset/>
<feGaussianBlur stdDeviation="12"/>
<feComposite in2="hardAlpha" operator="out"/>
<feColorMatrix type="matrix" values="0 0 0 0 0 0 0 0 0 0 0 0 0 0 0 0 0 0 0.1 0"/>
<feBlend mode="normal" in2="BackgroundImageFix" result="effect1_dropShadow_949_3427"/>
<feBlend mode="normal" in="SourceGraphic" in2="effect1_dropShadow_949_3427" result="shape"/>
</filter>
</defs>
</svg>
