<svg width="92" height="93" viewBox="0 0 92 93" fill="none" xmlns="http://www.w3.org/2000/svg">
<g filter="url(#filter0_d_949_3435)">
<rect x="24" y="24.5" width="44" height="44" rx="22" fill="white"/>
<path d="M46 56.5C45.7667 56.5 45.5667 56.4333 45.4 56.3C45.2333 56.1667 45.1083 55.9917 45.025 55.775C44.7083 54.8417 44.3083 53.9667 43.825 53.15C43.3583 52.3333 42.7 51.375 41.85 50.275C41 49.175 40.3083 48.125 39.775 47.125C39.2583 46.125 39 44.9167 39 43.5C39 41.55 39.675 39.9 41.025 38.55C42.3917 37.1833 44.05 36.5 46 36.5C47.95 36.5 49.6 37.1833 50.95 38.55C52.3167 39.9 53 41.55 53 43.5C53 45.0167 52.7083 46.2833 52.125 47.3C51.5583 48.3 50.9 49.2917 50.15 50.275C49.25 51.475 48.5667 52.475 48.1 53.275C47.65 54.0583 47.275 54.8917 46.975 55.775C46.8917 56.0083 46.7583 56.1917 46.575 56.325C46.4083 56.4417 46.2167 56.5 46 56.5ZM46 46C46.7 46 47.2917 45.7583 47.775 45.275C48.2583 44.7917 48.5 44.2 48.5 43.5C48.5 42.8 48.2583 42.2083 47.775 41.725C47.2917 41.2417 46.7 41 46 41C45.3 41 44.7083 41.2417 44.225 41.725C43.7417 42.2083 43.5 42.8 43.5 43.5C43.5 44.2 43.7417 44.7917 44.225 45.275C44.7083 45.7583 45.3 46 46 46Z" fill="#5083C1"/>
</g>
<defs>
<filter id="filter0_d_949_3435" x="0" y="0.5" width="92" height="92" filterUnits="userSpaceOnUse" color-interpolation-filters="sRGB">
<feFlood flood-opacity="0" result="BackgroundImageFix"/>
<feColorMatrix in="SourceAlpha" type="matrix" values="0 0 0 0 0 0 0 0 0 0 0 0 0 0 0 0 0 0 127 0" result="hardAlpha"/>
<feOffset/>
<feGaussianBlur stdDeviation="12"/>
<feComposite in2="hardAlpha" operator="out"/>
<feColorMatrix type="matrix" values="0 0 0 0 0 0 0 0 0 0 0 0 0 0 0 0 0 0 0.1 0"/>
<feBlend mode="normal" in2="BackgroundImageFix" result="effect1_dropShadow_949_3435"/>
<feBlend mode="normal" in="SourceGraphic" in2="effect1_dropShadow_949_3435" result="shape"/>
</filter>
</defs>
</svg>
