<svg width="50" height="50" viewBox="0 0 50 50" fill="none" xmlns="http://www.w3.org/2000/svg">
<rect width="50" height="50" rx="25" fill="#5083C1"/>
<path d="M25 37.5C24.7083 37.5 24.4583 37.4167 24.25 37.25C24.0417 37.0833 23.8854 36.8646 23.7813 36.5938C23.3854 35.4271 22.8854 34.3333 22.2812 33.3125C21.6979 32.2917 20.875 31.0938 19.8125 29.7188C18.75 28.3438 17.8854 27.0312 17.2188 25.7812C16.5729 24.5312 16.25 23.0208 16.25 21.25C16.25 18.8125 17.0937 16.75 18.7812 15.0625C20.4896 13.3542 22.5625 12.5 25 12.5C27.4375 12.5 29.5 13.3542 31.1875 15.0625C32.8958 16.75 33.75 18.8125 33.75 21.25C33.75 23.1458 33.3854 24.7292 32.6563 26C31.9479 27.25 31.125 28.4896 30.1875 29.7188C29.0625 31.2188 28.2083 32.4688 27.625 33.4688C27.0625 34.4479 26.5938 35.4896 26.2188 36.5938C26.1146 36.8854 25.9479 37.1146 25.7188 37.2812C25.5104 37.4271 25.2708 37.5 25 37.5ZM25 24.375C25.875 24.375 26.6146 24.0729 27.2188 23.4688C27.8229 22.8646 28.125 22.125 28.125 21.25C28.125 20.375 27.8229 19.6354 27.2188 19.0312C26.6146 18.4271 25.875 18.125 25 18.125C24.125 18.125 23.3854 18.4271 22.7813 19.0312C22.1771 19.6354 21.875 20.375 21.875 21.25C21.875 22.125 22.1771 22.8646 22.7813 23.4688C23.3854 24.0729 24.125 24.375 25 24.375Z" fill="white"/>
</svg>
