<svg width="317" height="121" viewBox="0 0 317 121" fill="none" xmlns="http://www.w3.org/2000/svg">
<g clip-path="url(#clip0_444_1991)">
<rect y="3" width="317" height="118" rx="12" fill="#5083C1"/>
<path d="M30.705 40.725L24.2891 34.6235C23.9036 34.2569 23.9036 33.6626 24.2891 33.296L25.685 31.9684C26.0704 31.6018 26.6955 31.6018 27.0809 31.9684L31.403 36.0787L40.6605 27.2749C41.0459 26.9084 41.6709 26.9084 42.0564 27.2749L43.4523 28.6025C43.8377 28.969 43.8377 29.5634 43.4523 29.93L32.101 40.7251C31.7155 41.0916 31.0905 41.0916 30.705 40.725Z" fill="white"/>
<path d="M60.5012 25.2V23.54H64.2612V38H62.4212V25.2H60.5012ZM76.6075 25.12H69.5875V29.68C69.8941 29.2533 70.3475 28.9067 70.9475 28.64C71.5475 28.36 72.1941 28.22 72.8875 28.22C73.9941 28.22 74.8941 28.4533 75.5875 28.92C76.2808 29.3733 76.7741 29.9667 77.0675 30.7C77.3741 31.42 77.5275 32.1867 77.5275 33C77.5275 33.96 77.3475 34.82 76.9875 35.58C76.6275 36.34 76.0741 36.94 75.3275 37.38C74.5941 37.82 73.6808 38.04 72.5875 38.04C71.1875 38.04 70.0541 37.68 69.1875 36.96C68.3208 36.24 67.7941 35.28 67.6075 34.08H69.3875C69.5608 34.84 69.9275 35.4333 70.4875 35.86C71.0475 36.2867 71.7541 36.5 72.6075 36.5C73.6608 36.5 74.4541 36.1867 74.9875 35.56C75.5208 34.92 75.7875 34.08 75.7875 33.04C75.7875 32 75.5208 31.2 74.9875 30.64C74.4541 30.0667 73.6675 29.78 72.6275 29.78C71.9208 29.78 71.3008 29.9533 70.7675 30.3C70.2475 30.6333 69.8675 31.0933 69.6275 31.68H67.9075V23.52H76.6075V25.12ZM90.6461 31.46H86.3861V35.78H84.6861V31.46H80.4461V29.92H84.6861V25.58H86.3861V29.92H90.6461V31.46ZM108.67 27.04L102.07 43.16H100.19L102.35 37.88L97.9304 27.04H99.9504L103.39 35.92L106.79 27.04H108.67ZM120.5 32.1C120.5 32.4467 120.48 32.8133 120.44 33.2H111.68C111.747 34.28 112.113 35.1267 112.78 35.74C113.46 36.34 114.28 36.64 115.24 36.64C116.027 36.64 116.68 36.46 117.2 36.1C117.733 35.7267 118.107 35.2333 118.32 34.62H120.28C119.987 35.6733 119.4 36.5333 118.52 37.2C117.64 37.8533 116.547 38.18 115.24 38.18C114.2 38.18 113.267 37.9467 112.44 37.48C111.627 37.0133 110.987 36.3533 110.52 35.5C110.053 34.6333 109.82 33.6333 109.82 32.5C109.82 31.3667 110.047 30.3733 110.5 29.52C110.953 28.6667 111.587 28.0133 112.4 27.56C113.227 27.0933 114.173 26.86 115.24 26.86C116.28 26.86 117.2 27.0867 118 27.54C118.8 27.9933 119.413 28.62 119.84 29.42C120.28 30.2067 120.5 31.1 120.5 32.1ZM118.62 31.72C118.62 31.0267 118.467 30.4333 118.16 29.94C117.853 29.4333 117.433 29.0533 116.9 28.8C116.38 28.5333 115.8 28.4 115.16 28.4C114.24 28.4 113.453 28.6933 112.8 29.28C112.16 29.8667 111.793 30.68 111.7 31.72H118.62ZM122.222 32.48C122.222 31.36 122.449 30.38 122.902 29.54C123.356 28.6867 123.976 28.0267 124.762 27.56C125.562 27.0933 126.449 26.86 127.422 26.86C128.382 26.86 129.216 27.0667 129.922 27.48C130.629 27.8933 131.156 28.4133 131.502 29.04V27.04H133.342V38H131.502V35.96C131.142 36.6 130.602 37.1333 129.882 37.56C129.176 37.9733 128.349 38.18 127.402 38.18C126.429 38.18 125.549 37.94 124.762 37.46C123.976 36.98 123.356 36.3067 122.902 35.44C122.449 34.5733 122.222 33.5867 122.222 32.48ZM131.502 32.5C131.502 31.6733 131.336 30.9533 131.002 30.34C130.669 29.7267 130.216 29.26 129.642 28.94C129.082 28.6067 128.462 28.44 127.782 28.44C127.102 28.44 126.482 28.6 125.922 28.92C125.362 29.24 124.916 29.7067 124.582 30.32C124.249 30.9333 124.082 31.6533 124.082 32.48C124.082 33.32 124.249 34.0533 124.582 34.68C124.916 35.2933 125.362 35.7667 125.922 36.1C126.482 36.42 127.102 36.58 127.782 36.58C128.462 36.58 129.082 36.42 129.642 36.1C130.216 35.7667 130.669 35.2933 131.002 34.68C131.336 34.0533 131.502 33.3267 131.502 32.5ZM138.238 28.82C138.558 28.1933 139.011 27.7067 139.598 27.36C140.198 27.0133 140.925 26.84 141.778 26.84V28.72H141.298C139.258 28.72 138.238 29.8267 138.238 32.04V38H136.418V27.04H138.238V28.82ZM147.759 38.18C146.919 38.18 146.166 38.04 145.499 37.76C144.832 37.4667 144.306 37.0667 143.919 36.56C143.532 36.04 143.319 35.4467 143.279 34.78H145.159C145.212 35.3267 145.466 35.7733 145.919 36.12C146.386 36.4667 146.992 36.64 147.739 36.64C148.432 36.64 148.979 36.4867 149.379 36.18C149.779 35.8733 149.979 35.4867 149.979 35.02C149.979 34.54 149.766 34.1867 149.339 33.96C148.912 33.72 148.252 33.4867 147.359 33.26C146.546 33.0467 145.879 32.8333 145.359 32.62C144.852 32.3933 144.412 32.0667 144.039 31.64C143.679 31.2 143.499 30.6267 143.499 29.92C143.499 29.36 143.666 28.8467 143.999 28.38C144.332 27.9133 144.806 27.5467 145.419 27.28C146.032 27 146.732 26.86 147.519 26.86C148.732 26.86 149.712 27.1667 150.459 27.78C151.206 28.3933 151.606 29.2333 151.659 30.3H149.839C149.799 29.7267 149.566 29.2667 149.139 28.92C148.726 28.5733 148.166 28.4 147.459 28.4C146.806 28.4 146.286 28.54 145.899 28.82C145.512 29.1 145.319 29.4667 145.319 29.92C145.319 30.28 145.432 30.58 145.659 30.82C145.899 31.0467 146.192 31.2333 146.539 31.38C146.899 31.5133 147.392 31.6667 148.019 31.84C148.806 32.0533 149.446 32.2667 149.939 32.48C150.432 32.68 150.852 32.9867 151.199 33.4C151.559 33.8133 151.746 34.3533 151.759 35.02C151.759 35.62 151.592 36.16 151.259 36.64C150.926 37.12 150.452 37.5 149.839 37.78C149.239 38.0467 148.546 38.18 147.759 38.18ZM164.44 38.18C163.413 38.18 162.48 37.9467 161.64 37.48C160.813 37.0133 160.16 36.3533 159.68 35.5C159.213 34.6333 158.98 33.6333 158.98 32.5C158.98 31.38 159.22 30.3933 159.7 29.54C160.193 28.6733 160.86 28.0133 161.7 27.56C162.54 27.0933 163.48 26.86 164.52 26.86C165.56 26.86 166.5 27.0933 167.34 27.56C168.18 28.0133 168.84 28.6667 169.32 29.52C169.813 30.3733 170.06 31.3667 170.06 32.5C170.06 33.6333 169.807 34.6333 169.3 35.5C168.807 36.3533 168.133 37.0133 167.28 37.48C166.427 37.9467 165.48 38.18 164.44 38.18ZM164.44 36.58C165.093 36.58 165.707 36.4267 166.28 36.12C166.853 35.8133 167.313 35.3533 167.66 34.74C168.02 34.1267 168.2 33.38 168.2 32.5C168.2 31.62 168.027 30.8733 167.68 30.26C167.333 29.6467 166.88 29.1933 166.32 28.9C165.76 28.5933 165.153 28.44 164.5 28.44C163.833 28.44 163.22 28.5933 162.66 28.9C162.113 29.1933 161.673 29.6467 161.34 30.26C161.007 30.8733 160.84 31.62 160.84 32.5C160.84 33.3933 161 34.1467 161.32 34.76C161.653 35.3733 162.093 35.8333 162.64 36.14C163.187 36.4333 163.787 36.58 164.44 36.58ZM176.913 28.54H174.613V38H172.793V28.54H171.373V27.04H172.793V26.26C172.793 25.0333 173.106 24.14 173.733 23.58C174.373 23.0067 175.393 22.72 176.793 22.72V24.24C175.993 24.24 175.426 24.4 175.093 24.72C174.773 25.0267 174.613 25.54 174.613 26.26V27.04H176.913V28.54ZM186.587 28.54V35C186.587 35.5333 186.7 35.9133 186.927 36.14C187.154 36.3533 187.547 36.46 188.107 36.46H189.447V38H187.807C186.794 38 186.034 37.7667 185.527 37.3C185.02 36.8333 184.767 36.0667 184.767 35V28.54H183.347V27.04H184.767V24.28H186.587V27.04H189.447V28.54H186.587ZM190.972 32.48C190.972 31.36 191.199 30.38 191.652 29.54C192.106 28.6867 192.726 28.0267 193.512 27.56C194.312 27.0933 195.199 26.86 196.172 26.86C197.132 26.86 197.966 27.0667 198.672 27.48C199.379 27.8933 199.906 28.4133 200.252 29.04V27.04H202.092V38H200.252V35.96C199.892 36.6 199.352 37.1333 198.632 37.56C197.926 37.9733 197.099 38.18 196.152 38.18C195.179 38.18 194.299 37.94 193.512 37.46C192.726 36.98 192.106 36.3067 191.652 35.44C191.199 34.5733 190.972 33.5867 190.972 32.48ZM200.252 32.5C200.252 31.6733 200.086 30.9533 199.752 30.34C199.419 29.7267 198.966 29.26 198.392 28.94C197.832 28.6067 197.212 28.44 196.532 28.44C195.852 28.44 195.232 28.6 194.672 28.92C194.112 29.24 193.666 29.7067 193.332 30.32C192.999 30.9333 192.832 31.6533 192.832 32.48C192.832 33.32 192.999 34.0533 193.332 34.68C193.666 35.2933 194.112 35.7667 194.672 36.1C195.232 36.42 195.852 36.58 196.532 36.58C197.212 36.58 197.832 36.42 198.392 36.1C198.966 35.7667 199.419 35.2933 199.752 34.68C200.086 34.0533 200.252 33.3267 200.252 32.5ZM206.988 23.2V38H205.168V23.2H206.988ZM220.09 32.1C220.09 32.4467 220.07 32.8133 220.03 33.2H211.27C211.336 34.28 211.703 35.1267 212.37 35.74C213.05 36.34 213.87 36.64 214.83 36.64C215.616 36.64 216.27 36.46 216.79 36.1C217.323 35.7267 217.696 35.2333 217.91 34.62H219.87C219.576 35.6733 218.99 36.5333 218.11 37.2C217.23 37.8533 216.136 38.18 214.83 38.18C213.79 38.18 212.856 37.9467 212.03 37.48C211.216 37.0133 210.576 36.3533 210.11 35.5C209.643 34.6333 209.41 33.6333 209.41 32.5C209.41 31.3667 209.636 30.3733 210.09 29.52C210.543 28.6667 211.176 28.0133 211.99 27.56C212.816 27.0933 213.763 26.86 214.83 26.86C215.87 26.86 216.79 27.0867 217.59 27.54C218.39 27.9933 219.003 28.62 219.43 29.42C219.87 30.2067 220.09 31.1 220.09 32.1ZM218.21 31.72C218.21 31.0267 218.056 30.4333 217.75 29.94C217.443 29.4333 217.023 29.0533 216.49 28.8C215.97 28.5333 215.39 28.4 214.75 28.4C213.83 28.4 213.043 28.6933 212.39 29.28C211.75 29.8667 211.383 30.68 211.29 31.72H218.21ZM227.832 26.84C229.165 26.84 230.245 27.2467 231.072 28.06C231.899 28.86 232.312 30.02 232.312 31.54V38H230.512V31.8C230.512 30.7067 230.239 29.8733 229.692 29.3C229.145 28.7133 228.399 28.42 227.452 28.42C226.492 28.42 225.725 28.72 225.152 29.32C224.592 29.92 224.312 30.7933 224.312 31.94V38H222.492V27.04H224.312V28.6C224.672 28.04 225.159 27.6067 225.772 27.3C226.399 26.9933 227.085 26.84 227.832 26.84ZM237.505 28.54V35C237.505 35.5333 237.618 35.9133 237.845 36.14C238.072 36.3533 238.465 36.46 239.025 36.46H240.365V38H238.725C237.712 38 236.952 37.7667 236.445 37.3C235.938 36.8333 235.685 36.0667 235.685 35V28.54H234.265V27.04H235.685V24.28H237.505V27.04H240.365V28.54H237.505ZM63.5012 52.54V59C63.5012 59.5333 63.6145 59.9133 63.8412 60.14C64.0679 60.3533 64.4612 60.46 65.0212 60.46H66.3612V62H64.7212C63.7079 62 62.9479 61.7667 62.4412 61.3C61.9345 60.8333 61.6812 60.0667 61.6812 59V52.54H60.2612V51.04H61.6812V48.28H63.5012V51.04H66.3612V52.54H63.5012ZM70.3864 52.82C70.7064 52.1933 71.1597 51.7067 71.7464 51.36C72.3464 51.0133 73.073 50.84 73.9264 50.84V52.72H73.4464C71.4064 52.72 70.3864 53.8267 70.3864 56.04V62H68.5664V51.04H70.3864V52.82ZM75.3473 56.48C75.3473 55.36 75.574 54.38 76.0273 53.54C76.4806 52.6867 77.1006 52.0267 77.8873 51.56C78.6873 51.0933 79.574 50.86 80.5473 50.86C81.5073 50.86 82.3406 51.0667 83.0473 51.48C83.754 51.8933 84.2806 52.4133 84.6273 53.04V51.04H86.4673V62H84.6273V59.96C84.2673 60.6 83.7273 61.1333 83.0073 61.56C82.3006 61.9733 81.474 62.18 80.5273 62.18C79.554 62.18 78.674 61.94 77.8873 61.46C77.1006 60.98 76.4806 60.3067 76.0273 59.44C75.574 58.5733 75.3473 57.5867 75.3473 56.48ZM84.6273 56.5C84.6273 55.6733 84.4606 54.9533 84.1273 54.34C83.794 53.7267 83.3406 53.26 82.7673 52.94C82.2073 52.6067 81.5873 52.44 80.9073 52.44C80.2273 52.44 79.6073 52.6 79.0473 52.92C78.4873 53.24 78.0406 53.7067 77.7073 54.32C77.374 54.9333 77.2073 55.6533 77.2073 56.48C77.2073 57.32 77.374 58.0533 77.7073 58.68C78.0406 59.2933 78.4873 59.7667 79.0473 60.1C79.6073 60.42 80.2273 60.58 80.9073 60.58C81.5873 60.58 82.2073 60.42 82.7673 60.1C83.3406 59.7667 83.794 59.2933 84.1273 58.68C84.4606 58.0533 84.6273 57.3267 84.6273 56.5ZM94.8829 50.84C96.2163 50.84 97.2963 51.2467 98.1229 52.06C98.9496 52.86 99.3629 54.02 99.3629 55.54V62H97.5629V55.8C97.5629 54.7067 97.2896 53.8733 96.7429 53.3C96.1963 52.7133 95.4496 52.42 94.5029 52.42C93.5429 52.42 92.7763 52.72 92.2029 53.32C91.6429 53.92 91.3629 54.7933 91.3629 55.94V62H89.5429V51.04H91.3629V52.6C91.7229 52.04 92.2096 51.6067 92.8229 51.3C93.4496 50.9933 94.1363 50.84 94.8829 50.84ZM106.216 62.18C105.376 62.18 104.623 62.04 103.956 61.76C103.289 61.4667 102.763 61.0667 102.376 60.56C101.989 60.04 101.776 59.4467 101.736 58.78H103.616C103.669 59.3267 103.923 59.7733 104.376 60.12C104.843 60.4667 105.449 60.64 106.196 60.64C106.889 60.64 107.436 60.4867 107.836 60.18C108.236 59.8733 108.436 59.4867 108.436 59.02C108.436 58.54 108.223 58.1867 107.796 57.96C107.369 57.72 106.709 57.4867 105.816 57.26C105.003 57.0467 104.336 56.8333 103.816 56.62C103.309 56.3933 102.869 56.0667 102.496 55.64C102.136 55.2 101.956 54.6267 101.956 53.92C101.956 53.36 102.123 52.8467 102.456 52.38C102.789 51.9133 103.263 51.5467 103.876 51.28C104.489 51 105.189 50.86 105.976 50.86C107.189 50.86 108.169 51.1667 108.916 51.78C109.663 52.3933 110.063 53.2333 110.116 54.3H108.296C108.256 53.7267 108.023 53.2667 107.596 52.92C107.183 52.5733 106.623 52.4 105.916 52.4C105.263 52.4 104.743 52.54 104.356 52.82C103.969 53.1 103.776 53.4667 103.776 53.92C103.776 54.28 103.889 54.58 104.116 54.82C104.356 55.0467 104.649 55.2333 104.996 55.38C105.356 55.5133 105.849 55.6667 106.476 55.84C107.263 56.0533 107.903 56.2667 108.396 56.48C108.889 56.68 109.309 56.9867 109.656 57.4C110.016 57.8133 110.203 58.3533 110.216 59.02C110.216 59.62 110.049 60.16 109.716 60.64C109.383 61.12 108.909 61.5 108.296 61.78C107.696 62.0467 107.003 62.18 106.216 62.18ZM117.245 52.54H114.945V62H113.125V52.54H111.705V51.04H113.125V50.26C113.125 49.0333 113.438 48.14 114.065 47.58C114.705 47.0067 115.725 46.72 117.125 46.72V48.24C116.325 48.24 115.758 48.4 115.425 48.72C115.105 49.0267 114.945 49.54 114.945 50.26V51.04H117.245V52.54ZM124.147 62.18C123.12 62.18 122.187 61.9467 121.347 61.48C120.52 61.0133 119.867 60.3533 119.387 59.5C118.92 58.6333 118.687 57.6333 118.687 56.5C118.687 55.38 118.927 54.3933 119.407 53.54C119.9 52.6733 120.567 52.0133 121.407 51.56C122.247 51.0933 123.187 50.86 124.227 50.86C125.267 50.86 126.207 51.0933 127.047 51.56C127.887 52.0133 128.547 52.6667 129.027 53.52C129.52 54.3733 129.767 55.3667 129.767 56.5C129.767 57.6333 129.514 58.6333 129.007 59.5C128.514 60.3533 127.84 61.0133 126.987 61.48C126.134 61.9467 125.187 62.18 124.147 62.18ZM124.147 60.58C124.8 60.58 125.414 60.4267 125.987 60.12C126.56 59.8133 127.02 59.3533 127.367 58.74C127.727 58.1267 127.907 57.38 127.907 56.5C127.907 55.62 127.734 54.8733 127.387 54.26C127.04 53.6467 126.587 53.1933 126.027 52.9C125.467 52.5933 124.86 52.44 124.207 52.44C123.54 52.44 122.927 52.5933 122.367 52.9C121.82 53.1933 121.38 53.6467 121.047 54.26C120.714 54.8733 120.547 55.62 120.547 56.5C120.547 57.3933 120.707 58.1467 121.027 58.76C121.36 59.3733 121.8 59.8333 122.347 60.14C122.894 60.4333 123.494 60.58 124.147 60.58ZM133.98 52.82C134.3 52.1933 134.753 51.7067 135.34 51.36C135.94 51.0133 136.667 50.84 137.52 50.84V52.72H137.04C135 52.72 133.98 53.8267 133.98 56.04V62H132.16V51.04H133.98V52.82ZM152.801 50.84C153.654 50.84 154.414 51.02 155.081 51.38C155.748 51.7267 156.274 52.2533 156.661 52.96C157.048 53.6667 157.241 54.5267 157.241 55.54V62H155.441V55.8C155.441 54.7067 155.168 53.8733 154.621 53.3C154.088 52.7133 153.361 52.42 152.441 52.42C151.494 52.42 150.741 52.7267 150.181 53.34C149.621 53.94 149.341 54.8133 149.341 55.96V62H147.541V55.8C147.541 54.7067 147.268 53.8733 146.721 53.3C146.188 52.7133 145.461 52.42 144.541 52.42C143.594 52.42 142.841 52.7267 142.281 53.34C141.721 53.94 141.441 54.8133 141.441 55.96V62H139.621V51.04H141.441V52.62C141.801 52.0467 142.281 51.6067 142.881 51.3C143.494 50.9933 144.168 50.84 144.901 50.84C145.821 50.84 146.634 51.0467 147.341 51.46C148.048 51.8733 148.574 52.48 148.921 53.28C149.228 52.5067 149.734 51.9067 150.441 51.48C151.148 51.0533 151.934 50.84 152.801 50.84ZM159.547 56.48C159.547 55.36 159.773 54.38 160.227 53.54C160.68 52.6867 161.3 52.0267 162.087 51.56C162.887 51.0933 163.773 50.86 164.747 50.86C165.707 50.86 166.54 51.0667 167.247 51.48C167.953 51.8933 168.48 52.4133 168.827 53.04V51.04H170.667V62H168.827V59.96C168.467 60.6 167.927 61.1333 167.207 61.56C166.5 61.9733 165.673 62.18 164.727 62.18C163.753 62.18 162.873 61.94 162.087 61.46C161.3 60.98 160.68 60.3067 160.227 59.44C159.773 58.5733 159.547 57.5867 159.547 56.48ZM168.827 56.5C168.827 55.6733 168.66 54.9533 168.327 54.34C167.993 53.7267 167.54 53.26 166.967 52.94C166.407 52.6067 165.787 52.44 165.107 52.44C164.427 52.44 163.807 52.6 163.247 52.92C162.687 53.24 162.24 53.7067 161.907 54.32C161.573 54.9333 161.407 55.6533 161.407 56.48C161.407 57.32 161.573 58.0533 161.907 58.68C162.24 59.2933 162.687 59.7667 163.247 60.1C163.807 60.42 164.427 60.58 165.107 60.58C165.787 60.58 166.407 60.42 166.967 60.1C167.54 59.7667 167.993 59.2933 168.327 58.68C168.66 58.0533 168.827 57.3267 168.827 56.5ZM175.962 52.54V59C175.962 59.5333 176.075 59.9133 176.302 60.14C176.529 60.3533 176.922 60.46 177.482 60.46H178.822V62H177.182C176.169 62 175.409 61.7667 174.902 61.3C174.395 60.8333 174.142 60.0667 174.142 59V52.54H172.722V51.04H174.142V48.28H175.962V51.04H178.822V52.54H175.962ZM181.967 49.26C181.621 49.26 181.327 49.14 181.087 48.9C180.847 48.66 180.727 48.3667 180.727 48.02C180.727 47.6733 180.847 47.38 181.087 47.14C181.327 46.9 181.621 46.78 181.967 46.78C182.301 46.78 182.581 46.9 182.807 47.14C183.047 47.38 183.167 47.6733 183.167 48.02C183.167 48.3667 183.047 48.66 182.807 48.9C182.581 49.14 182.301 49.26 181.967 49.26ZM182.847 51.04V62H181.027V51.04H182.847ZM190.729 62.18C189.703 62.18 188.769 61.9467 187.929 61.48C187.103 61.0133 186.449 60.3533 185.969 59.5C185.503 58.6333 185.269 57.6333 185.269 56.5C185.269 55.38 185.509 54.3933 185.989 53.54C186.483 52.6733 187.149 52.0133 187.989 51.56C188.829 51.0933 189.769 50.86 190.809 50.86C191.849 50.86 192.789 51.0933 193.629 51.56C194.469 52.0133 195.129 52.6667 195.609 53.52C196.103 54.3733 196.349 55.3667 196.349 56.5C196.349 57.6333 196.096 58.6333 195.589 59.5C195.096 60.3533 194.423 61.0133 193.569 61.48C192.716 61.9467 191.769 62.18 190.729 62.18ZM190.729 60.58C191.383 60.58 191.996 60.4267 192.569 60.12C193.143 59.8133 193.603 59.3533 193.949 58.74C194.309 58.1267 194.489 57.38 194.489 56.5C194.489 55.62 194.316 54.8733 193.969 54.26C193.623 53.6467 193.169 53.1933 192.609 52.9C192.049 52.5933 191.443 52.44 190.789 52.44C190.123 52.44 189.509 52.5933 188.949 52.9C188.403 53.1933 187.963 53.6467 187.629 54.26C187.296 54.8733 187.129 55.62 187.129 56.5C187.129 57.3933 187.289 58.1467 187.609 58.76C187.943 59.3733 188.383 59.8333 188.929 60.14C189.476 60.4333 190.076 60.58 190.729 60.58ZM204.082 50.84C205.415 50.84 206.495 51.2467 207.322 52.06C208.149 52.86 208.562 54.02 208.562 55.54V62H206.762V55.8C206.762 54.7067 206.489 53.8733 205.942 53.3C205.395 52.7133 204.649 52.42 203.702 52.42C202.742 52.42 201.975 52.72 201.402 53.32C200.842 53.92 200.562 54.7933 200.562 55.94V62H198.742V51.04H200.562V52.6C200.922 52.04 201.409 51.6067 202.022 51.3C202.649 50.9933 203.335 50.84 204.082 50.84ZM212.115 62.12C211.768 62.12 211.475 62 211.235 61.76C210.995 61.52 210.875 61.2267 210.875 60.88C210.875 60.5333 210.995 60.24 211.235 60C211.475 59.76 211.768 59.64 212.115 59.64C212.448 59.64 212.728 59.76 212.955 60C213.195 60.24 213.315 60.5333 213.315 60.88C213.315 61.2267 213.195 61.52 212.955 61.76C212.728 62 212.448 62.12 212.115 62.12Z" fill="white"/>
<path d="M30.705 96.725L24.2891 90.6235C23.9036 90.2569 23.9036 89.6626 24.2891 89.296L25.685 87.9684C26.0704 87.6018 26.6955 87.6018 27.0809 87.9684L31.403 92.0787L40.6605 83.2749C41.0459 82.9084 41.6709 82.9084 42.0564 83.2749L43.4523 84.6025C43.8377 84.969 43.8377 85.5634 43.4523 85.93L32.101 96.7251C31.7155 97.0916 31.0905 97.0916 30.705 96.725Z" fill="white"/>
<path d="M60.7612 95.54C62.4545 94.18 63.7812 93.0667 64.7412 92.2C65.7012 91.32 66.5079 90.4067 67.1612 89.46C67.8279 88.5 68.1612 87.56 68.1612 86.64C68.1612 85.7733 67.9479 85.0933 67.5212 84.6C67.1079 84.0933 66.4345 83.84 65.5012 83.84C64.5945 83.84 63.8879 84.1267 63.3812 84.7C62.8879 85.26 62.6212 86.0133 62.5812 86.96H60.8212C60.8745 85.4667 61.3279 84.3133 62.1812 83.5C63.0345 82.6867 64.1345 82.28 65.4812 82.28C66.8545 82.28 67.9412 82.66 68.7412 83.42C69.5545 84.18 69.9612 85.2267 69.9612 86.56C69.9612 87.6667 69.6279 88.7467 68.9612 89.8C68.3079 90.84 67.5612 91.76 66.7212 92.56C65.8812 93.3467 64.8079 94.2667 63.5012 95.32H70.3812V96.84H60.7612V95.54ZM72.4851 89.62C72.4851 87.3267 72.8585 85.54 73.6051 84.26C74.3518 82.9667 75.6585 82.32 77.5251 82.32C79.3785 82.32 80.6785 82.9667 81.4251 84.26C82.1718 85.54 82.5451 87.3267 82.5451 89.62C82.5451 91.9533 82.1718 93.7667 81.4251 95.06C80.6785 96.3533 79.3785 97 77.5251 97C75.6585 97 74.3518 96.3533 73.6051 95.06C72.8585 93.7667 72.4851 91.9533 72.4851 89.62ZM80.7451 89.62C80.7451 88.46 80.6651 87.48 80.5051 86.68C80.3585 85.8667 80.0451 85.2133 79.5651 84.72C79.0985 84.2267 78.4185 83.98 77.5251 83.98C76.6185 83.98 75.9251 84.2267 75.4451 84.72C74.9785 85.2133 74.6651 85.8667 74.5051 86.68C74.3585 87.48 74.2851 88.46 74.2851 89.62C74.2851 90.82 74.3585 91.8267 74.5051 92.64C74.6651 93.4533 74.9785 94.1067 75.4451 94.6C75.9251 95.0933 76.6185 95.34 77.5251 95.34C78.4185 95.34 79.0985 95.0933 79.5651 94.6C80.0451 94.1067 80.3585 93.4533 80.5051 92.64C80.6651 91.8267 80.7451 90.82 80.7451 89.62ZM85.0437 89.62C85.0437 87.3267 85.417 85.54 86.1637 84.26C86.9104 82.9667 88.217 82.32 90.0837 82.32C91.937 82.32 93.237 82.9667 93.9837 84.26C94.7304 85.54 95.1037 87.3267 95.1037 89.62C95.1037 91.9533 94.7304 93.7667 93.9837 95.06C93.237 96.3533 91.937 97 90.0837 97C88.217 97 86.9104 96.3533 86.1637 95.06C85.417 93.7667 85.0437 91.9533 85.0437 89.62ZM93.3037 89.62C93.3037 88.46 93.2237 87.48 93.0637 86.68C92.917 85.8667 92.6037 85.2133 92.1237 84.72C91.657 84.2267 90.977 83.98 90.0837 83.98C89.177 83.98 88.4837 84.2267 88.0037 84.72C87.537 85.2133 87.2237 85.8667 87.0637 86.68C86.917 87.48 86.8437 88.46 86.8437 89.62C86.8437 90.82 86.917 91.8267 87.0637 92.64C87.2237 93.4533 87.537 94.1067 88.0037 94.6C88.4837 95.0933 89.177 95.34 90.0837 95.34C90.977 95.34 91.657 95.0933 92.1237 94.6C92.6037 94.1067 92.917 93.4533 93.0637 92.64C93.2237 91.8267 93.3037 90.82 93.3037 89.62ZM108.302 90.46H104.042V94.78H102.342V90.46H98.1023V88.92H102.342V84.58H104.042V88.92H108.302V90.46ZM116.207 91.5C116.207 90.3667 116.433 89.38 116.887 88.54C117.34 87.6867 117.967 87.0267 118.767 86.56C119.58 86.0933 120.507 85.86 121.547 85.86C122.893 85.86 124 86.1867 124.867 86.84C125.747 87.4933 126.327 88.4 126.607 89.56H124.647C124.46 88.8933 124.093 88.3667 123.547 87.98C123.013 87.5933 122.347 87.4 121.547 87.4C120.507 87.4 119.667 87.76 119.027 88.48C118.387 89.1867 118.067 90.1933 118.067 91.5C118.067 92.82 118.387 93.84 119.027 94.56C119.667 95.28 120.507 95.64 121.547 95.64C122.347 95.64 123.013 95.4533 123.547 95.08C124.08 94.7067 124.447 94.1733 124.647 93.48H126.607C126.313 94.6 125.727 95.5 124.847 96.18C123.967 96.8467 122.867 97.18 121.547 97.18C120.507 97.18 119.58 96.9467 118.767 96.48C117.967 96.0133 117.34 95.3533 116.887 94.5C116.433 93.6467 116.207 92.6467 116.207 91.5ZM139.035 91.1C139.035 91.4467 139.015 91.8133 138.975 92.2H130.215C130.282 93.28 130.648 94.1267 131.315 94.74C131.995 95.34 132.815 95.64 133.775 95.64C134.562 95.64 135.215 95.46 135.735 95.1C136.268 94.7267 136.642 94.2333 136.855 93.62H138.815C138.522 94.6733 137.935 95.5333 137.055 96.2C136.175 96.8533 135.082 97.18 133.775 97.18C132.735 97.18 131.802 96.9467 130.975 96.48C130.162 96.0133 129.522 95.3533 129.055 94.5C128.588 93.6333 128.355 92.6333 128.355 91.5C128.355 90.3667 128.582 89.3733 129.035 88.52C129.488 87.6667 130.122 87.0133 130.935 86.56C131.762 86.0933 132.708 85.86 133.775 85.86C134.815 85.86 135.735 86.0867 136.535 86.54C137.335 86.9933 137.948 87.62 138.375 88.42C138.815 89.2067 139.035 90.1 139.035 91.1ZM137.155 90.72C137.155 90.0267 137.002 89.4333 136.695 88.94C136.388 88.4333 135.968 88.0533 135.435 87.8C134.915 87.5333 134.335 87.4 133.695 87.4C132.775 87.4 131.988 87.6933 131.335 88.28C130.695 88.8667 130.328 89.68 130.235 90.72H137.155ZM143.257 87.82C143.577 87.1933 144.031 86.7067 144.617 86.36C145.217 86.0133 145.944 85.84 146.797 85.84V87.72H146.317C144.277 87.72 143.257 88.8267 143.257 91.04V97H141.437V86.04H143.257V87.82ZM151.118 87.54V94C151.118 94.5333 151.232 94.9133 151.458 95.14C151.685 95.3533 152.078 95.46 152.638 95.46H153.978V97H152.338C151.325 97 150.565 96.7667 150.058 96.3C149.552 95.8333 149.298 95.0667 149.298 94V87.54H147.878V86.04H149.298V83.28H151.118V86.04H153.978V87.54H151.118ZM157.124 84.26C156.777 84.26 156.484 84.14 156.244 83.9C156.004 83.66 155.884 83.3667 155.884 83.02C155.884 82.6733 156.004 82.38 156.244 82.14C156.484 81.9 156.777 81.78 157.124 81.78C157.457 81.78 157.737 81.9 157.964 82.14C158.204 82.38 158.324 82.6733 158.324 83.02C158.324 83.3667 158.204 83.66 157.964 83.9C157.737 84.14 157.457 84.26 157.124 84.26ZM158.004 86.04V97H156.184V86.04H158.004ZM165.565 87.54H163.265V97H161.445V87.54H160.025V86.04H161.445V85.26C161.445 84.0333 161.759 83.14 162.385 82.58C163.025 82.0067 164.045 81.72 165.445 81.72V83.24C164.645 83.24 164.079 83.4 163.745 83.72C163.425 84.0267 163.265 84.54 163.265 85.26V86.04H165.565V87.54ZM168.627 84.26C168.281 84.26 167.987 84.14 167.747 83.9C167.507 83.66 167.387 83.3667 167.387 83.02C167.387 82.6733 167.507 82.38 167.747 82.14C167.987 81.9 168.281 81.78 168.627 81.78C168.961 81.78 169.241 81.9 169.467 82.14C169.707 82.38 169.827 82.6733 169.827 83.02C169.827 83.3667 169.707 83.66 169.467 83.9C169.241 84.14 168.961 84.26 168.627 84.26ZM169.507 86.04V97H167.687V86.04H169.507ZM182.609 91.1C182.609 91.4467 182.589 91.8133 182.549 92.2H173.789C173.856 93.28 174.223 94.1267 174.889 94.74C175.569 95.34 176.389 95.64 177.349 95.64C178.136 95.64 178.789 95.46 179.309 95.1C179.843 94.7267 180.216 94.2333 180.429 93.62H182.389C182.096 94.6733 181.509 95.5333 180.629 96.2C179.749 96.8533 178.656 97.18 177.349 97.18C176.309 97.18 175.376 96.9467 174.549 96.48C173.736 96.0133 173.096 95.3533 172.629 94.5C172.163 93.6333 171.929 92.6333 171.929 91.5C171.929 90.3667 172.156 89.3733 172.609 88.52C173.063 87.6667 173.696 87.0133 174.509 86.56C175.336 86.0933 176.283 85.86 177.349 85.86C178.389 85.86 179.309 86.0867 180.109 86.54C180.909 86.9933 181.523 87.62 181.949 88.42C182.389 89.2067 182.609 90.1 182.609 91.1ZM180.729 90.72C180.729 90.0267 180.576 89.4333 180.269 88.94C179.963 88.4333 179.543 88.0533 179.009 87.8C178.489 87.5333 177.909 87.4 177.269 87.4C176.349 87.4 175.563 87.6933 174.909 88.28C174.269 88.8667 173.903 89.68 173.809 90.72H180.729ZM184.332 91.48C184.332 90.36 184.558 89.38 185.012 88.54C185.465 87.6867 186.085 87.0267 186.872 86.56C187.672 86.0933 188.565 85.86 189.552 85.86C190.405 85.86 191.198 86.06 191.932 86.46C192.665 86.8467 193.225 87.36 193.612 88V82.2H195.452V97H193.612V94.94C193.252 95.5933 192.718 96.1333 192.012 96.56C191.305 96.9733 190.478 97.18 189.532 97.18C188.558 97.18 187.672 96.94 186.872 96.46C186.085 95.98 185.465 95.3067 185.012 94.44C184.558 93.5733 184.332 92.5867 184.332 91.48ZM193.612 91.5C193.612 90.6733 193.445 89.9533 193.112 89.34C192.778 88.7267 192.325 88.26 191.752 87.94C191.192 87.6067 190.572 87.44 189.892 87.44C189.212 87.44 188.592 87.6 188.032 87.92C187.472 88.24 187.025 88.7067 186.692 89.32C186.358 89.9333 186.192 90.6533 186.192 91.48C186.192 92.32 186.358 93.0533 186.692 93.68C187.025 94.2933 187.472 94.7667 188.032 95.1C188.592 95.42 189.212 95.58 189.892 95.58C190.572 95.58 191.192 95.42 191.752 95.1C192.325 94.7667 192.778 94.2933 193.112 93.68C193.445 93.0533 193.612 92.3267 193.612 91.5ZM203.179 91.5C203.179 90.3667 203.406 89.38 203.859 88.54C204.313 87.6867 204.939 87.0267 205.739 86.56C206.553 86.0933 207.479 85.86 208.519 85.86C209.866 85.86 210.973 86.1867 211.839 86.84C212.719 87.4933 213.299 88.4 213.579 89.56H211.619C211.433 88.8933 211.066 88.3667 210.519 87.98C209.986 87.5933 209.319 87.4 208.519 87.4C207.479 87.4 206.639 87.76 205.999 88.48C205.359 89.1867 205.039 90.1933 205.039 91.5C205.039 92.82 205.359 93.84 205.999 94.56C206.639 95.28 207.479 95.64 208.519 95.64C209.319 95.64 209.986 95.4533 210.519 95.08C211.053 94.7067 211.419 94.1733 211.619 93.48H213.579C213.286 94.6 212.699 95.5 211.819 96.18C210.939 96.8467 209.839 97.18 208.519 97.18C207.479 97.18 206.553 96.9467 205.739 96.48C204.939 96.0133 204.313 95.3533 203.859 94.5C203.406 93.6467 203.179 92.6467 203.179 91.5ZM220.788 97.18C219.761 97.18 218.828 96.9467 217.988 96.48C217.161 96.0133 216.508 95.3533 216.028 94.5C215.561 93.6333 215.328 92.6333 215.328 91.5C215.328 90.38 215.568 89.3933 216.048 88.54C216.541 87.6733 217.208 87.0133 218.048 86.56C218.888 86.0933 219.828 85.86 220.868 85.86C221.908 85.86 222.848 86.0933 223.688 86.56C224.528 87.0133 225.188 87.6667 225.668 88.52C226.161 89.3733 226.408 90.3667 226.408 91.5C226.408 92.6333 226.154 93.6333 225.648 94.5C225.154 95.3533 224.481 96.0133 223.628 96.48C222.774 96.9467 221.828 97.18 220.788 97.18ZM220.788 95.58C221.441 95.58 222.054 95.4267 222.628 95.12C223.201 94.8133 223.661 94.3533 224.008 93.74C224.368 93.1267 224.548 92.38 224.548 91.5C224.548 90.62 224.374 89.8733 224.028 89.26C223.681 88.6467 223.228 88.1933 222.668 87.9C222.108 87.5933 221.501 87.44 220.848 87.44C220.181 87.44 219.568 87.5933 219.008 87.9C218.461 88.1933 218.021 88.6467 217.688 89.26C217.354 89.8733 217.188 90.62 217.188 91.5C217.188 92.3933 217.348 93.1467 217.668 93.76C218.001 94.3733 218.441 94.8333 218.988 95.14C219.534 95.4333 220.134 95.58 220.788 95.58ZM228.121 91.48C228.121 90.36 228.347 89.38 228.801 88.54C229.254 87.6867 229.874 87.0267 230.661 86.56C231.461 86.0933 232.347 85.86 233.321 85.86C234.281 85.86 235.114 86.0667 235.821 86.48C236.527 86.8933 237.054 87.4133 237.401 88.04V86.04H239.241V97H237.401V94.96C237.041 95.6 236.501 96.1333 235.781 96.56C235.074 96.9733 234.247 97.18 233.301 97.18C232.327 97.18 231.447 96.94 230.661 96.46C229.874 95.98 229.254 95.3067 228.801 94.44C228.347 93.5733 228.121 92.5867 228.121 91.48ZM237.401 91.5C237.401 90.6733 237.234 89.9533 236.901 89.34C236.567 88.7267 236.114 88.26 235.541 87.94C234.981 87.6067 234.361 87.44 233.681 87.44C233.001 87.44 232.381 87.6 231.821 87.92C231.261 88.24 230.814 88.7067 230.481 89.32C230.147 89.9333 229.981 90.6533 229.981 91.48C229.981 92.32 230.147 93.0533 230.481 93.68C230.814 94.2933 231.261 94.7667 231.821 95.1C232.381 95.42 233.001 95.58 233.681 95.58C234.361 95.58 234.981 95.42 235.541 95.1C236.114 94.7667 236.567 94.2933 236.901 93.68C237.234 93.0533 237.401 92.3267 237.401 91.5ZM241.636 91.5C241.636 90.3667 241.863 89.38 242.316 88.54C242.77 87.6867 243.396 87.0267 244.196 86.56C245.01 86.0933 245.936 85.86 246.976 85.86C248.323 85.86 249.43 86.1867 250.296 86.84C251.176 87.4933 251.756 88.4 252.036 89.56H250.076C249.89 88.8933 249.523 88.3667 248.976 87.98C248.443 87.5933 247.776 87.4 246.976 87.4C245.936 87.4 245.096 87.76 244.456 88.48C243.816 89.1867 243.496 90.1933 243.496 91.5C243.496 92.82 243.816 93.84 244.456 94.56C245.096 95.28 245.936 95.64 246.976 95.64C247.776 95.64 248.443 95.4533 248.976 95.08C249.51 94.7067 249.876 94.1733 250.076 93.48H252.036C251.743 94.6 251.156 95.5 250.276 96.18C249.396 96.8467 248.296 97.18 246.976 97.18C245.936 97.18 245.01 96.9467 244.196 96.48C243.396 96.0133 242.77 95.3533 242.316 94.5C241.863 93.6467 241.636 92.6467 241.636 91.5ZM259.905 85.84C260.731 85.84 261.478 86.02 262.145 86.38C262.811 86.7267 263.331 87.2533 263.705 87.96C264.091 88.6667 264.285 89.5267 264.285 90.54V97H262.485V90.8C262.485 89.7067 262.211 88.8733 261.665 88.3C261.118 87.7133 260.371 87.42 259.425 87.42C258.465 87.42 257.698 87.72 257.125 88.32C256.565 88.92 256.285 89.7933 256.285 90.94V97H254.465V82.2H256.285V87.6C256.645 87.04 257.138 86.6067 257.765 86.3C258.405 85.9933 259.118 85.84 259.905 85.84ZM277.258 91.1C277.258 91.4467 277.238 91.8133 277.198 92.2H268.438C268.504 93.28 268.871 94.1267 269.538 94.74C270.218 95.34 271.038 95.64 271.998 95.64C272.784 95.64 273.438 95.46 273.958 95.1C274.491 94.7267 274.864 94.2333 275.078 93.62H277.038C276.744 94.6733 276.158 95.5333 275.278 96.2C274.398 96.8533 273.304 97.18 271.998 97.18C270.958 97.18 270.024 96.9467 269.198 96.48C268.384 96.0133 267.744 95.3533 267.278 94.5C266.811 93.6333 266.578 92.6333 266.578 91.5C266.578 90.3667 266.804 89.3733 267.258 88.52C267.711 87.6667 268.344 87.0133 269.158 86.56C269.984 86.0933 270.931 85.86 271.998 85.86C273.038 85.86 273.958 86.0867 274.758 86.54C275.558 86.9933 276.171 87.62 276.598 88.42C277.038 89.2067 277.258 90.1 277.258 91.1ZM275.378 90.72C275.378 90.0267 275.224 89.4333 274.918 88.94C274.611 88.4333 274.191 88.0533 273.658 87.8C273.138 87.5333 272.558 87.4 271.918 87.4C270.998 87.4 270.211 87.6933 269.558 88.28C268.918 88.8667 268.551 89.68 268.458 90.72H275.378ZM283.54 97.18C282.7 97.18 281.947 97.04 281.28 96.76C280.613 96.4667 280.087 96.0667 279.7 95.56C279.313 95.04 279.1 94.4467 279.06 93.78H280.94C280.993 94.3267 281.247 94.7733 281.7 95.12C282.167 95.4667 282.773 95.64 283.52 95.64C284.213 95.64 284.76 95.4867 285.16 95.18C285.56 94.8733 285.76 94.4867 285.76 94.02C285.76 93.54 285.547 93.1867 285.12 92.96C284.693 92.72 284.033 92.4867 283.14 92.26C282.327 92.0467 281.66 91.8333 281.14 91.62C280.633 91.3933 280.193 91.0667 279.82 90.64C279.46 90.2 279.28 89.6267 279.28 88.92C279.28 88.36 279.447 87.8467 279.78 87.38C280.113 86.9133 280.587 86.5467 281.2 86.28C281.813 86 282.513 85.86 283.3 85.86C284.513 85.86 285.493 86.1667 286.24 86.78C286.987 87.3933 287.387 88.2333 287.44 89.3H285.62C285.58 88.7267 285.347 88.2667 284.92 87.92C284.507 87.5733 283.947 87.4 283.24 87.4C282.587 87.4 282.067 87.54 281.68 87.82C281.293 88.1 281.1 88.4667 281.1 88.92C281.1 89.28 281.213 89.58 281.44 89.82C281.68 90.0467 281.973 90.2333 282.32 90.38C282.68 90.5133 283.173 90.6667 283.8 90.84C284.587 91.0533 285.227 91.2667 285.72 91.48C286.213 91.68 286.633 91.9867 286.98 92.4C287.34 92.8133 287.527 93.3533 287.54 94.02C287.54 94.62 287.373 95.16 287.04 95.64C286.707 96.12 286.233 96.5 285.62 96.78C285.02 97.0467 284.327 97.18 283.54 97.18ZM290.689 97.12C290.343 97.12 290.049 97 289.809 96.76C289.569 96.52 289.449 96.2267 289.449 95.88C289.449 95.5333 289.569 95.24 289.809 95C290.049 94.76 290.343 94.64 290.689 94.64C291.023 94.64 291.303 94.76 291.529 95C291.769 95.24 291.889 95.5333 291.889 95.88C291.889 96.2267 291.769 96.52 291.529 96.76C291.303 97 291.023 97.12 290.689 97.12Z" fill="white"/>
</g>
<defs>
<clipPath id="clip0_444_1991">
<rect width="317" height="121" rx="12" fill="white"/>
</clipPath>
</defs>
</svg>
