<svg width="118" height="118" viewBox="0 0 118 118" fill="none" xmlns="http://www.w3.org/2000/svg">
<g filter="url(#filter0_d_526_1466)">
<rect x="24" y="20" width="70" height="70" rx="35" fill="white"/>
<path fill-rule="evenodd" clip-rule="evenodd" d="M61.7938 42.1938C61.0813 39.2687 56.9187 39.2687 56.2062 42.1938C56.0998 42.6333 55.8911 43.0415 55.5972 43.3852C55.3032 43.7289 54.9323 43.9983 54.5146 44.1715C54.0968 44.3447 53.6441 44.4169 53.1932 44.3821C52.7423 44.3473 52.306 44.2066 51.9198 43.9713C49.3472 42.4038 46.4034 45.3476 47.9709 47.9201C48.9834 49.5814 48.0853 51.7489 46.1952 52.2083C43.2683 52.919 43.2683 57.0834 46.1952 57.7922C46.6349 57.8987 47.0432 58.1075 47.3868 58.4017C47.7305 58.6958 47.9999 59.067 48.1729 59.485C48.346 59.9029 48.4179 60.3558 48.3828 60.8069C48.3477 61.2579 48.2066 61.6942 47.9709 62.0803C46.4034 64.6529 49.3472 67.5967 51.9198 66.0292C52.3059 65.7935 52.7423 65.6524 53.1933 65.6173C53.6443 65.5822 54.0972 65.6541 54.5152 65.8271C54.9332 66.0002 55.3043 66.2695 55.5985 66.6132C55.8927 66.9569 56.1015 67.3652 56.208 67.8048C56.9187 70.7317 61.0832 70.7317 61.792 67.8048C61.8988 67.3654 62.1079 66.9574 62.4021 66.614C62.6964 66.2705 63.0675 66.0014 63.4853 65.8283C63.9031 65.6553 64.3559 65.5833 64.8068 65.6182C65.2577 65.6531 65.694 65.7939 66.0802 66.0292C68.6528 67.5967 71.5966 64.6529 70.0291 62.0803C69.7939 61.6941 69.6531 61.2578 69.6182 60.8069C69.5833 60.356 69.6553 59.9033 69.8283 59.4855C70.0013 59.0676 70.2705 58.6965 70.6139 58.4023C70.9573 58.1081 71.3653 57.899 71.8048 57.7922C74.7317 57.0815 74.7317 52.9171 71.8048 52.2083C71.3651 52.1018 70.9568 51.893 70.6132 51.5988C70.2695 51.3046 70.0001 50.9335 69.8271 50.5155C69.654 50.0975 69.5821 49.6446 69.6172 49.1936C69.6523 48.7426 69.7934 48.3063 70.0291 47.9201C71.5966 45.3476 68.6528 42.4038 66.0802 43.9713C65.6941 44.207 65.2577 44.3481 64.8067 44.3832C64.3557 44.4183 63.9028 44.3464 63.4848 44.1733C63.0668 44.0003 62.6957 43.7309 62.4015 43.3873C62.1073 43.0436 61.8985 42.6353 61.792 42.1957L61.7938 42.1938Z" stroke="#FFB900" stroke-width="3"/>
<path d="M62.3333 55C62.3333 56.8409 60.8409 58.3333 59 58.3333C57.1591 58.3333 55.6667 56.8409 55.6667 55C55.6667 53.1591 57.1591 51.6667 59 51.6667C60.8409 51.6667 62.3333 53.1591 62.3333 55Z" stroke="#FFB900" stroke-width="3"/>
</g>
<defs>
<filter id="filter0_d_526_1466" x="0" y="0" width="118" height="118" filterUnits="userSpaceOnUse" color-interpolation-filters="sRGB">
<feFlood flood-opacity="0" result="BackgroundImageFix"/>
<feColorMatrix in="SourceAlpha" type="matrix" values="0 0 0 0 0 0 0 0 0 0 0 0 0 0 0 0 0 0 127 0" result="hardAlpha"/>
<feOffset dy="4"/>
<feGaussianBlur stdDeviation="12"/>
<feComposite in2="hardAlpha" operator="out"/>
<feColorMatrix type="matrix" values="0 0 0 0 0 0 0 0 0 0 0 0 0 0 0 0 0 0 0.25 0"/>
<feBlend mode="normal" in2="BackgroundImageFix" result="effect1_dropShadow_526_1466"/>
<feBlend mode="normal" in="SourceGraphic" in2="effect1_dropShadow_526_1466" result="shape"/>
</filter>
</defs>
</svg>
