<svg width="118" height="118" viewBox="0 0 118 118" fill="none" xmlns="http://www.w3.org/2000/svg">
<g filter="url(#filter0_d_526_1473)">
<rect x="24" y="20" width="70" height="70" rx="35" fill="white"/>
<path d="M47.75 40H71.0833M47.75 70H71.0833M68.1667 40V45.1234C68.1667 45.8136 67.9287 46.4827 67.4928 47.0179L62.2518 53.4533C61.4036 54.4948 61.4238 55.9657 62.3002 56.9853L67.4416 62.9661C67.9094 63.5103 68.1667 64.2041 68.1667 64.9218V70M50.6667 40V45.1234C50.6667 45.8136 50.9047 46.4827 51.3405 47.0179L56.5815 53.4533C57.4297 54.4948 57.4096 55.9657 56.5331 56.9853L51.3917 62.9661C50.9239 63.5103 50.6667 64.2041 50.6667 64.9218V70" stroke="#32C41B" stroke-width="3" stroke-linecap="round" stroke-linejoin="round"/>
</g>
<defs>
<filter id="filter0_d_526_1473" x="0" y="0" width="118" height="118" filterUnits="userSpaceOnUse" color-interpolation-filters="sRGB">
<feFlood flood-opacity="0" result="BackgroundImageFix"/>
<feColorMatrix in="SourceAlpha" type="matrix" values="0 0 0 0 0 0 0 0 0 0 0 0 0 0 0 0 0 0 127 0" result="hardAlpha"/>
<feOffset dy="4"/>
<feGaussianBlur stdDeviation="12"/>
<feComposite in2="hardAlpha" operator="out"/>
<feColorMatrix type="matrix" values="0 0 0 0 0 0 0 0 0 0 0 0 0 0 0 0 0 0 0.25 0"/>
<feBlend mode="normal" in2="BackgroundImageFix" result="effect1_dropShadow_526_1473"/>
<feBlend mode="normal" in="SourceGraphic" in2="effect1_dropShadow_526_1473" result="shape"/>
</filter>
</defs>
</svg>
