<svg width="118" height="118" viewBox="0 0 118 118" fill="none" xmlns="http://www.w3.org/2000/svg">
<g filter="url(#filter0_d_526_1459)">
<rect x="24" y="20" width="70" height="70" rx="35" fill="white"/>
<path d="M74.0027 55.8824C74.0027 55.0539 73.3311 54.3824 72.5027 54.3824C71.6743 54.3824 71.0027 55.0539 71.0027 55.8824H74.0027ZM58.2513 43.2647C59.0798 43.2647 59.7513 42.5931 59.7513 41.7647C59.7513 40.9363 59.0798 40.2647 58.2513 40.2647V43.2647ZM66.877 55.8824C66.877 55.0539 66.2054 54.3824 65.377 54.3824C64.5486 54.3824 63.877 55.0539 63.877 55.8824H66.877ZM58.2513 50.3235C59.0798 50.3235 59.7513 49.652 59.7513 48.8235C59.7513 47.9951 59.0798 47.3235 58.2513 47.3235V50.3235ZM65.6053 50.4243C66.1938 49.8413 66.1983 48.8915 65.6152 48.303C65.0322 47.7144 64.0825 47.71 63.4939 48.293L65.6053 50.4243ZM57.1957 54.5322C56.6071 55.1152 56.6027 56.0649 57.1857 56.6535C57.7687 57.242 58.7184 57.2465 59.307 56.6635L57.1957 54.5322ZM74 44.9913L75.0557 46.057C75.4604 45.656 75.6031 45.0603 75.4238 44.5194C75.2446 43.9786 74.7743 43.586 74.2102 43.5061L74 44.9913ZM68.3316 50.6066L67.8612 52.031C68.3969 52.2078 68.9865 52.0692 69.3872 51.6722L68.3316 50.6066ZM63.293 45.6153L62.2373 44.5496C61.8308 44.9523 61.6888 45.5513 61.8713 46.0936L63.293 45.6153ZM68.9614 40L70.446 39.7859C70.3652 39.2252 69.9753 38.7578 69.4381 38.5778C68.901 38.3977 68.3082 38.5357 67.9057 38.9344L68.9614 40ZM64.5526 49.3588L63.1309 49.8371C63.2815 50.2846 63.634 50.6351 64.0823 50.7831L64.5526 49.3588ZM69.5912 44.3674L68.1066 44.5815C68.2017 45.2414 68.721 45.7592 69.381 45.8526L69.5912 44.3674ZM71.0027 55.8824C71.0027 62.8376 65.3071 68.5 58.2513 68.5V71.5C66.9372 71.5 74.0027 64.521 74.0027 55.8824H71.0027ZM58.2513 68.5C51.1956 68.5 45.5 62.8376 45.5 55.8824H42.5C42.5 64.521 49.5655 71.5 58.2513 71.5V68.5ZM45.5 55.8824C45.5 48.9271 51.1956 43.2647 58.2513 43.2647V40.2647C49.5655 40.2647 42.5 47.2437 42.5 55.8824H45.5ZM63.877 55.8824C63.877 58.9391 61.3717 61.4412 58.2513 61.4412V64.4412C63.0018 64.4412 66.877 60.6226 66.877 55.8824H63.877ZM58.2513 61.4412C55.131 61.4412 52.6257 58.9391 52.6257 55.8824H49.6257C49.6257 60.6226 53.5009 64.4412 58.2513 64.4412V61.4412ZM52.6257 55.8824C52.6257 52.8256 55.131 50.3235 58.2513 50.3235V47.3235C53.5009 47.3235 49.6257 51.1421 49.6257 55.8824H52.6257ZM63.4939 48.293L57.1957 54.5322L59.307 56.6635L65.6053 50.4243L63.4939 48.293ZM72.9443 43.9257L67.2759 49.541L69.3872 51.6722L75.0557 46.057L72.9443 43.9257ZM64.3486 46.6809L70.017 41.0656L67.9057 38.9344L62.2373 44.5496L64.3486 46.6809ZM68.8019 49.1822L65.0229 47.9344L64.0823 50.7831L67.8612 52.031L68.8019 49.1822ZM65.9743 48.8804L64.7146 45.1369L61.8713 46.0936L63.1309 49.8371L65.9743 48.8804ZM67.4767 40.2141L68.1066 44.5815L71.0759 44.1533L70.446 39.7859L67.4767 40.2141ZM69.381 45.8526L73.7898 46.4765L74.2102 43.5061L69.8014 42.8822L69.381 45.8526Z" fill="#A13FB9"/>
</g>
<defs>
<filter id="filter0_d_526_1459" x="0" y="0" width="118" height="118" filterUnits="userSpaceOnUse" color-interpolation-filters="sRGB">
<feFlood flood-opacity="0" result="BackgroundImageFix"/>
<feColorMatrix in="SourceAlpha" type="matrix" values="0 0 0 0 0 0 0 0 0 0 0 0 0 0 0 0 0 0 127 0" result="hardAlpha"/>
<feOffset dy="4"/>
<feGaussianBlur stdDeviation="12"/>
<feComposite in2="hardAlpha" operator="out"/>
<feColorMatrix type="matrix" values="0 0 0 0 0 0 0 0 0 0 0 0 0 0 0 0 0 0 0.25 0"/>
<feBlend mode="normal" in2="BackgroundImageFix" result="effect1_dropShadow_526_1459"/>
<feBlend mode="normal" in="SourceGraphic" in2="effect1_dropShadow_526_1459" result="shape"/>
</filter>
</defs>
</svg>
