<svg width="70" height="71" viewBox="0 0 70 71" fill="none" xmlns="http://www.w3.org/2000/svg">
<rect y="0.5" width="70" height="70" rx="35" fill="#5083C1"/>
<path d="M30.9 43.788C29.38 43.788 28.076 43.428 26.988 42.708C25.9 41.972 25.06 40.956 24.468 39.66C23.892 38.348 23.604 36.828 23.604 35.1C23.604 33.372 23.892 31.86 24.468 30.564C25.06 29.252 25.9 28.236 26.988 27.516C28.076 26.78 29.38 26.412 30.9 26.412C32.404 26.412 33.692 26.78 34.764 27.516C35.852 28.236 36.684 29.252 37.26 30.564C37.852 31.86 38.148 33.372 38.148 35.1C38.148 36.828 37.852 38.348 37.26 39.66C36.684 40.956 35.852 41.972 34.764 42.708C33.692 43.428 32.404 43.788 30.9 43.788ZM30.876 41.196C31.724 41.196 32.476 40.956 33.132 40.476C33.788 39.98 34.292 39.276 34.644 38.364C35.012 37.452 35.196 36.364 35.196 35.1C35.196 33.836 35.012 32.748 34.644 31.836C34.292 30.924 33.788 30.228 33.132 29.748C32.476 29.252 31.724 29.004 30.876 29.004C30.028 29.004 29.276 29.252 28.62 29.748C27.964 30.228 27.452 30.924 27.084 31.836C26.732 32.748 26.556 33.836 26.556 35.1C26.556 36.364 26.732 37.452 27.084 38.364C27.452 39.276 27.964 39.98 28.62 40.476C29.276 40.956 30.028 41.196 30.876 41.196ZM42.7378 43.5V29.988L39.7618 30.756V28.524L43.8898 26.7H45.6898V43.5H42.7378Z" fill="white"/>
</svg>
