<svg width="70" height="71" viewBox="0 0 70 71" fill="none" xmlns="http://www.w3.org/2000/svg">
<rect y="0.5" width="70" height="70" rx="35" fill="#5083C1"/>
<path d="M27.9 43.788C26.38 43.788 25.076 43.428 23.988 42.708C22.9 41.972 22.06 40.956 21.468 39.66C20.892 38.348 20.604 36.828 20.604 35.1C20.604 33.372 20.892 31.86 21.468 30.564C22.06 29.252 22.9 28.236 23.988 27.516C25.076 26.78 26.38 26.412 27.9 26.412C29.404 26.412 30.692 26.78 31.764 27.516C32.852 28.236 33.684 29.252 34.26 30.564C34.852 31.86 35.148 33.372 35.148 35.1C35.148 36.828 34.852 38.348 34.26 39.66C33.684 40.956 32.852 41.972 31.764 42.708C30.692 43.428 29.404 43.788 27.9 43.788ZM27.876 41.196C28.724 41.196 29.476 40.956 30.132 40.476C30.788 39.98 31.292 39.276 31.644 38.364C32.012 37.452 32.196 36.364 32.196 35.1C32.196 33.836 32.012 32.748 31.644 31.836C31.292 30.924 30.788 30.228 30.132 29.748C29.476 29.252 28.724 29.004 27.876 29.004C27.028 29.004 26.276 29.252 25.62 29.748C24.964 30.228 24.452 30.924 24.084 31.836C23.732 32.748 23.556 33.836 23.556 35.1C23.556 36.364 23.732 37.452 24.084 38.364C24.452 39.276 24.964 39.98 25.62 40.476C26.276 40.956 27.028 41.196 27.876 41.196ZM37.1732 43.5V41.412C38.2452 40.564 39.2692 39.716 40.2452 38.868C41.2212 38.02 42.1012 37.18 42.8852 36.348C43.6692 35.516 44.2852 34.7 44.7332 33.9C45.1812 33.1 45.4052 32.332 45.4052 31.596C45.4052 31.116 45.3172 30.668 45.1412 30.252C44.9652 29.836 44.6852 29.5 44.3012 29.244C43.9332 28.988 43.4372 28.86 42.8132 28.86C42.2052 28.86 41.6852 28.996 41.2532 29.268C40.8372 29.54 40.5252 29.908 40.3172 30.372C40.1092 30.82 40.0052 31.332 40.0052 31.908H37.2212C37.2532 30.692 37.5172 29.676 38.0132 28.86C38.5092 28.044 39.1812 27.436 40.0292 27.036C40.8772 26.62 41.8292 26.412 42.8852 26.412C44.0212 26.412 44.9892 26.62 45.7892 27.036C46.5892 27.452 47.2052 28.036 47.6372 28.788C48.0692 29.54 48.2852 30.428 48.2852 31.452C48.2852 32.204 48.1412 32.948 47.8532 33.684C47.5812 34.404 47.1972 35.108 46.7012 35.796C46.2052 36.468 45.6452 37.124 45.0212 37.764C44.4132 38.388 43.7812 38.988 43.1252 39.564C42.4692 40.124 41.8372 40.644 41.2292 41.124H48.7412V43.5H37.1732Z" fill="white"/>
</svg>
