<svg width="70" height="71" viewBox="0 0 70 71" fill="none" xmlns="http://www.w3.org/2000/svg">
<rect y="0.5" width="70" height="70" rx="35" fill="#5083C1"/>
<path d="M27.9 43.788C26.38 43.788 25.076 43.428 23.988 42.708C22.9 41.972 22.06 40.956 21.468 39.66C20.892 38.348 20.604 36.828 20.604 35.1C20.604 33.372 20.892 31.86 21.468 30.564C22.06 29.252 22.9 28.236 23.988 27.516C25.076 26.78 26.38 26.412 27.9 26.412C29.404 26.412 30.692 26.78 31.764 27.516C32.852 28.236 33.684 29.252 34.26 30.564C34.852 31.86 35.148 33.372 35.148 35.1C35.148 36.828 34.852 38.348 34.26 39.66C33.684 40.956 32.852 41.972 31.764 42.708C30.692 43.428 29.404 43.788 27.9 43.788ZM27.876 41.196C28.724 41.196 29.476 40.956 30.132 40.476C30.788 39.98 31.292 39.276 31.644 38.364C32.012 37.452 32.196 36.364 32.196 35.1C32.196 33.836 32.012 32.748 31.644 31.836C31.292 30.924 30.788 30.228 30.132 29.748C29.476 29.252 28.724 29.004 27.876 29.004C27.028 29.004 26.276 29.252 25.62 29.748C24.964 30.228 24.452 30.924 24.084 31.836C23.732 32.748 23.556 33.836 23.556 35.1C23.556 36.364 23.732 37.452 24.084 38.364C24.452 39.276 24.964 39.98 25.62 40.476C26.276 40.956 27.028 41.196 27.876 41.196ZM43.1698 43.788C42.0818 43.788 41.0898 43.596 40.1938 43.212C39.2978 42.812 38.5778 42.212 38.0338 41.412C37.5058 40.596 37.2258 39.572 37.1938 38.34H40.0258C40.0418 38.9 40.1698 39.412 40.4098 39.876C40.6658 40.324 41.0258 40.684 41.4898 40.956C41.9538 41.212 42.5138 41.34 43.1698 41.34C43.7938 41.34 44.3218 41.22 44.7538 40.98C45.2018 40.74 45.5378 40.412 45.7618 39.996C45.9858 39.58 46.0978 39.116 46.0978 38.604C46.0978 37.98 45.9458 37.468 45.6418 37.068C45.3378 36.652 44.9218 36.34 44.3938 36.132C43.8658 35.924 43.2658 35.82 42.5938 35.82H41.3458V33.444H42.5938C43.4738 33.444 44.1938 33.244 44.7538 32.844C45.3138 32.428 45.5938 31.828 45.5938 31.044C45.5938 30.388 45.3778 29.86 44.9458 29.46C44.5298 29.06 43.9298 28.86 43.1458 28.86C42.3298 28.86 41.6818 29.1 41.2018 29.58C40.7378 30.06 40.4818 30.652 40.4338 31.356H37.6018C37.6498 30.348 37.9058 29.476 38.3698 28.74C38.8498 27.988 39.4978 27.412 40.3138 27.012C41.1298 26.612 42.0818 26.412 43.1698 26.412C44.3058 26.412 45.2658 26.612 46.0498 27.012C46.8338 27.412 47.4258 27.948 47.8258 28.62C48.2418 29.292 48.4498 30.028 48.4498 30.828C48.4498 31.452 48.3298 32.02 48.0898 32.532C47.8498 33.044 47.5218 33.476 47.1058 33.828C46.7058 34.164 46.2338 34.412 45.6898 34.572C46.3138 34.7 46.8658 34.948 47.3458 35.316C47.8418 35.684 48.2258 36.156 48.4978 36.732C48.7858 37.292 48.9298 37.948 48.9298 38.7C48.9298 39.612 48.7058 40.46 48.2578 41.244C47.8258 42.012 47.1778 42.628 46.3138 43.092C45.4658 43.556 44.4178 43.788 43.1698 43.788Z" fill="white"/>
</svg>
