<svg width="44" height="44" viewBox="0 0 44 44" fill="none" xmlns="http://www.w3.org/2000/svg">
<rect width="44" height="44" rx="22" fill="#5083C1" fill-opacity="0.2"/>
<path d="M21.9997 14.4051V31.9051M17.0413 17.9051H14.4163M17.9163 21.4051H14.4163M33.6663 27.5301V13.4484C33.6663 12.0484 32.523 11.0101 31.1347 11.1267H31.0647C28.6147 11.3367 24.893 12.5851 22.8163 13.8917L22.618 14.0201C22.2797 14.2301 21.7197 14.2301 21.3813 14.0201L21.0897 13.8451C19.013 12.5501 15.303 11.3134 12.853 11.1151C11.4647 10.9984 10.333 12.0484 10.333 13.4367V27.5301C10.333 28.6501 11.243 29.7001 12.363 29.8401L12.7013 29.8867C15.233 30.2251 19.1413 31.5084 21.3813 32.7334L21.428 32.7567C21.743 32.9317 22.2447 32.9317 22.548 32.7567C24.788 31.5201 28.708 30.2251 31.2513 29.8867L31.6363 29.8401C32.7563 29.7001 33.6663 28.6501 33.6663 27.5301Z" stroke="#5083C1" stroke-width="2" stroke-linecap="round" stroke-linejoin="round"/>
</svg>
