<svg width="44" height="44" viewBox="0 0 44 44" fill="none" xmlns="http://www.w3.org/2000/svg">
<rect width="44" height="44" rx="22" fill="#A13FB9" fill-opacity="0.2"/>
<path d="M15.8164 28.9999H12.8414C11.173 28.9999 10.333 28.1599 10.333 26.4916V12.8416C10.333 11.1733 11.173 10.3333 12.8414 10.3333H17.858C19.5264 10.3333 20.3663 11.1733 20.3663 12.8416V14.9999M23.633 14.9999V12.8416C23.633 11.1733 24.473 10.3333 26.1413 10.3333H31.158C32.8263 10.3333 33.6663 11.1733 33.6663 12.8416V26.4916C33.6663 28.1599 32.8263 28.9999 31.158 28.9999H28.2647M19.6663 20.8333H24.333M19.6663 24.3333H24.333M21.9997 33.6666V30.1666M28.2647 17.8232V30.8433C28.2647 32.7216 27.3314 33.6666 25.453 33.6666H18.6397C16.7613 33.6666 15.8164 32.7216 15.8164 30.8433V17.8232C15.8164 15.9449 16.7613 14.9999 18.6397 14.9999H25.453C27.3314 14.9999 28.2647 15.9449 28.2647 17.8232Z" stroke="#A13FB9" stroke-width="2" stroke-miterlimit="10" stroke-linecap="round" stroke-linejoin="round"/>
</svg>
