<svg width="80" height="80" viewBox="0 0 80 80" fill="none" xmlns="http://www.w3.org/2000/svg">
<path d="M36.7109 20.2878C37.3159 16.556 42.6841 16.556 43.2891 20.2878C43.723 22.9642 47.0014 24.0294 48.9256 22.1192C51.6085 19.4558 55.9515 22.6111 54.2475 25.9857C53.0254 28.406 55.0516 31.1949 57.7311 30.7805C61.4671 30.2027 63.126 35.3081 59.7638 37.0367C57.3525 38.2764 57.3525 41.7236 59.7638 42.9633C63.126 44.6919 61.4671 49.7973 57.7311 49.2195C55.0516 48.8051 53.0254 51.594 54.2475 54.0143C55.9515 57.3889 51.6085 60.5442 48.9256 57.8808C47.0014 55.9706 43.723 57.0358 43.2891 59.7122C42.6841 63.444 37.3159 63.444 36.7109 59.7122C36.277 57.0358 32.9986 55.9706 31.0744 57.8808C28.3915 60.5442 24.0485 57.3889 25.7525 54.0143C26.9746 51.594 24.9484 48.8051 22.2689 49.2195C18.5329 49.7973 16.874 44.6919 20.2362 42.9633C22.6475 41.7236 22.6475 38.2764 20.2362 37.0367C16.874 35.3081 18.5329 30.2027 22.2689 30.7805C24.9484 31.1949 26.9746 28.406 25.7525 25.9857C24.0485 22.6111 28.3915 19.4558 31.0744 22.1192C32.9986 24.0294 36.277 22.9642 36.7109 20.2878Z" fill="#FF7E06"/>
<path d="M29 40.3333L36.6923 47L49 32" stroke="white" stroke-width="4" stroke-linecap="round" stroke-linejoin="round"/>
</svg>
