<svg width="330" height="294" viewBox="0 0 330 294" fill="none" xmlns="http://www.w3.org/2000/svg">
<g filter="url(#filter0_d_526_1932)">
<g clip-path="url(#clip0_526_1932)">
<g filter="url(#filter1_d_526_1932)">
<rect x="26" y="16" width="288" height="262" rx="12" fill="white"/>
<rect x="50" y="53" width="44" height="44" rx="22" fill="#A13FB9" fill-opacity="0.1"/>
<path d="M64.5681 76.2602L64.5564 81.7318C64.5564 83.2135 65.6998 84.8002 67.0998 85.2668L70.8214 86.5035C71.4631 86.7135 72.5248 86.7135 73.1781 86.5035L76.8998 85.2668C78.2998 84.8002 79.4431 83.2135 79.4431 81.7318V76.3185M82.9664 78.5002V71.5002M69.7248 63.9518L62.7014 68.5368C60.4498 70.0068 60.4498 73.2968 62.7014 74.7668L69.7248 79.3518C70.9848 80.1802 73.0614 80.1802 74.3214 79.3518L81.3098 74.7668C83.5498 73.2968 83.5498 70.0185 81.3098 68.5485L74.3214 63.9635C73.0614 63.1235 70.9848 63.1235 69.7248 63.9518Z" stroke="#A13FB9" stroke-width="2" stroke-linecap="round" stroke-linejoin="round"/>
<path d="M114.48 70.904H109.12V74.088C109.344 73.7893 109.675 73.5387 110.112 73.336C110.56 73.1333 111.035 73.032 111.536 73.032C112.432 73.032 113.157 73.224 113.712 73.608C114.277 73.992 114.677 74.4773 114.912 75.064C115.157 75.6507 115.28 76.2693 115.28 76.92C115.28 77.7093 115.125 78.4133 114.816 79.032C114.517 79.64 114.064 80.12 113.456 80.472C112.859 80.824 112.123 81 111.248 81C110.085 81 109.152 80.712 108.448 80.136C107.744 79.56 107.323 78.7973 107.184 77.848H108.96C109.077 78.3493 109.339 78.7493 109.744 79.048C110.149 79.336 110.656 79.48 111.264 79.48C112.021 79.48 112.587 79.2507 112.96 78.792C113.344 78.3333 113.536 77.7253 113.536 76.968C113.536 76.2 113.344 75.6133 112.96 75.208C112.576 74.792 112.011 74.584 111.264 74.584C110.741 74.584 110.299 74.7173 109.936 74.984C109.584 75.24 109.328 75.592 109.168 76.04H107.44V69.304H114.48V70.904ZM123.079 79.528H126.839V81H121.255V69.88H123.079V79.528ZM127.596 76.552C127.596 75.6667 127.778 74.8827 128.14 74.2C128.514 73.5173 129.015 72.9893 129.644 72.616C130.284 72.232 130.988 72.04 131.756 72.04C132.45 72.04 133.052 72.1787 133.564 72.456C134.087 72.7227 134.503 73.0587 134.812 73.464V72.184H136.652V81H134.812V79.688C134.503 80.104 134.082 80.4507 133.548 80.728C133.015 81.0053 132.407 81.144 131.724 81.144C130.967 81.144 130.274 80.952 129.644 80.568C129.015 80.1733 128.514 79.6293 128.14 78.936C127.778 78.232 127.596 77.4373 127.596 76.552ZM134.812 76.584C134.812 75.976 134.684 75.448 134.428 75C134.183 74.552 133.858 74.2107 133.452 73.976C133.047 73.7413 132.61 73.624 132.14 73.624C131.671 73.624 131.234 73.7413 130.828 73.976C130.423 74.2 130.092 74.536 129.836 74.984C129.591 75.4213 129.468 75.944 129.468 76.552C129.468 77.16 129.591 77.6933 129.836 78.152C130.092 78.6107 130.423 78.9627 130.828 79.208C131.244 79.4427 131.682 79.56 132.14 79.56C132.61 79.56 133.047 79.4427 133.452 79.208C133.858 78.9733 134.183 78.632 134.428 78.184C134.684 77.7253 134.812 77.192 134.812 76.584ZM142.376 76.6L146.44 81H143.976L140.712 77.208V81H138.888V69.16H140.712V76.04L143.912 72.184H146.44L142.376 76.6ZM152.148 72.04C152.82 72.04 153.417 72.184 153.94 72.472C154.473 72.76 154.889 73.1867 155.188 73.752C155.497 74.3173 155.652 75 155.652 75.8V81H153.844V76.072C153.844 75.2827 153.646 74.68 153.252 74.264C152.857 73.8373 152.318 73.624 151.636 73.624C150.953 73.624 150.409 73.8373 150.004 74.264C149.609 74.68 149.412 75.2827 149.412 76.072V81H147.588V69.16H149.412V73.208C149.721 72.8347 150.11 72.5467 150.58 72.344C151.06 72.1413 151.582 72.04 152.148 72.04ZM161.018 81.144C160.325 81.144 159.701 81.0213 159.146 80.776C158.602 80.52 158.17 80.1787 157.85 79.752C157.53 79.3147 157.359 78.8293 157.338 78.296H159.226C159.258 78.6693 159.434 78.984 159.754 79.24C160.085 79.4853 160.495 79.608 160.986 79.608C161.498 79.608 161.893 79.512 162.17 79.32C162.458 79.1173 162.602 78.8613 162.602 78.552C162.602 78.2213 162.442 77.976 162.122 77.816C161.813 77.656 161.317 77.48 160.634 77.288C159.973 77.1067 159.434 76.9307 159.018 76.76C158.602 76.5893 158.239 76.328 157.93 75.976C157.631 75.624 157.482 75.16 157.482 74.584C157.482 74.1147 157.621 73.688 157.898 73.304C158.175 72.9093 158.57 72.6 159.082 72.376C159.605 72.152 160.202 72.04 160.874 72.04C161.877 72.04 162.682 72.296 163.29 72.808C163.909 73.3093 164.239 73.9973 164.282 74.872H162.458C162.426 74.4773 162.266 74.1627 161.978 73.928C161.69 73.6933 161.301 73.576 160.81 73.576C160.33 73.576 159.962 73.6667 159.706 73.848C159.45 74.0293 159.322 74.2693 159.322 74.568C159.322 74.8027 159.407 75 159.578 75.16C159.749 75.32 159.957 75.448 160.202 75.544C160.447 75.6293 160.81 75.7413 161.29 75.88C161.93 76.0507 162.453 76.2267 162.858 76.408C163.274 76.5787 163.631 76.8347 163.93 77.176C164.229 77.5173 164.383 77.9707 164.394 78.536C164.394 79.0373 164.255 79.4853 163.978 79.88C163.701 80.2747 163.306 80.584 162.794 80.808C162.293 81.032 161.701 81.144 161.018 81.144ZM174.797 75.992H171.565V79.304H169.869V75.992H166.637V74.456H169.869V71.144H171.565V74.456H174.797V75.992ZM184.663 81.144C183.97 81.144 183.346 81.0213 182.791 80.776C182.247 80.52 181.815 80.1787 181.495 79.752C181.175 79.3147 181.004 78.8293 180.983 78.296H182.871C182.903 78.6693 183.079 78.984 183.399 79.24C183.73 79.4853 184.14 79.608 184.631 79.608C185.143 79.608 185.538 79.512 185.815 79.32C186.103 79.1173 186.247 78.8613 186.247 78.552C186.247 78.2213 186.087 77.976 185.767 77.816C185.458 77.656 184.962 77.48 184.279 77.288C183.618 77.1067 183.079 76.9307 182.663 76.76C182.247 76.5893 181.884 76.328 181.575 75.976C181.276 75.624 181.127 75.16 181.127 74.584C181.127 74.1147 181.266 73.688 181.543 73.304C181.82 72.9093 182.215 72.6 182.727 72.376C183.25 72.152 183.847 72.04 184.519 72.04C185.522 72.04 186.327 72.296 186.935 72.808C187.554 73.3093 187.884 73.9973 187.927 74.872H186.103C186.071 74.4773 185.911 74.1627 185.623 73.928C185.335 73.6933 184.946 73.576 184.455 73.576C183.975 73.576 183.607 73.6667 183.351 73.848C183.095 74.0293 182.967 74.2693 182.967 74.568C182.967 74.8027 183.052 75 183.223 75.16C183.394 75.32 183.602 75.448 183.847 75.544C184.092 75.6293 184.455 75.7413 184.935 75.88C185.575 76.0507 186.098 76.2267 186.503 76.408C186.919 76.5787 187.276 76.8347 187.575 77.176C187.874 77.5173 188.028 77.9707 188.039 78.536C188.039 79.0373 187.9 79.4853 187.623 79.88C187.346 80.2747 186.951 80.584 186.439 80.808C185.938 81.032 185.346 81.144 184.663 81.144ZM191.978 73.672V78.552C191.978 78.8827 192.053 79.1227 192.202 79.272C192.362 79.4107 192.629 79.48 193.002 79.48H194.122V81H192.682C191.861 81 191.231 80.808 190.794 80.424C190.357 80.04 190.138 79.416 190.138 78.552V73.672H189.098V72.184H190.138V69.992H191.978V72.184H194.122V73.672H191.978ZM203.627 72.184V81H201.803V79.96C201.515 80.3227 201.136 80.6107 200.667 80.824C200.208 81.0267 199.718 81.128 199.195 81.128C198.502 81.128 197.878 80.984 197.323 80.696C196.779 80.408 196.347 79.9813 196.027 79.416C195.718 78.8507 195.563 78.168 195.563 77.368V72.184H197.371V77.096C197.371 77.8853 197.568 78.4933 197.963 78.92C198.358 79.336 198.896 79.544 199.579 79.544C200.262 79.544 200.8 79.336 201.195 78.92C201.6 78.4933 201.803 77.8853 201.803 77.096V72.184H203.627ZM205.266 76.552C205.266 75.6667 205.447 74.8827 205.81 74.2C206.183 73.5173 206.684 72.9893 207.314 72.616C207.954 72.232 208.663 72.04 209.442 72.04C210.018 72.04 210.583 72.168 211.138 72.424C211.703 72.6693 212.151 73 212.482 73.416V69.16H214.322V81H212.482V79.672C212.183 80.0987 211.767 80.4507 211.234 80.728C210.711 81.0053 210.108 81.144 209.426 81.144C208.658 81.144 207.954 80.952 207.314 80.568C206.684 80.1733 206.183 79.6293 205.81 78.936C205.447 78.232 205.266 77.4373 205.266 76.552ZM212.482 76.584C212.482 75.976 212.354 75.448 212.098 75C211.852 74.552 211.527 74.2107 211.122 73.976C210.716 73.7413 210.279 73.624 209.81 73.624C209.34 73.624 208.903 73.7413 208.498 73.976C208.092 74.2 207.762 74.536 207.506 74.984C207.26 75.4213 207.138 75.944 207.138 76.552C207.138 77.16 207.26 77.6933 207.506 78.152C207.762 78.6107 208.092 78.9627 208.498 79.208C208.914 79.4427 209.351 79.56 209.81 79.56C210.279 79.56 210.716 79.4427 211.122 79.208C211.527 78.9733 211.852 78.632 212.098 78.184C212.354 77.7253 212.482 77.192 212.482 76.584ZM224.637 76.376C224.637 76.7067 224.616 77.0053 224.573 77.272H217.837C217.891 77.976 218.152 78.5413 218.621 78.968C219.091 79.3947 219.667 79.608 220.349 79.608C221.331 79.608 222.024 79.1973 222.429 78.376H224.397C224.131 79.1867 223.645 79.8533 222.941 80.376C222.248 80.888 221.384 81.144 220.349 81.144C219.507 81.144 218.749 80.9573 218.077 80.584C217.416 80.2 216.893 79.6667 216.509 78.984C216.136 78.2907 215.949 77.4907 215.949 76.584C215.949 75.6773 216.131 74.8827 216.493 74.2C216.867 73.5067 217.384 72.9733 218.045 72.6C218.717 72.2267 219.485 72.04 220.349 72.04C221.181 72.04 221.923 72.2213 222.573 72.584C223.224 72.9467 223.731 73.4587 224.093 74.12C224.456 74.7707 224.637 75.5227 224.637 76.376ZM222.733 75.8C222.723 75.128 222.483 74.5893 222.013 74.184C221.544 73.7787 220.963 73.576 220.269 73.576C219.64 73.576 219.101 73.7787 218.653 74.184C218.205 74.5787 217.939 75.1173 217.853 75.8H222.733ZM230.721 72.04C231.414 72.04 232.033 72.184 232.577 72.472C233.131 72.76 233.563 73.1867 233.873 73.752C234.182 74.3173 234.337 75 234.337 75.8V81H232.529V76.072C232.529 75.2827 232.331 74.68 231.937 74.264C231.542 73.8373 231.003 73.624 230.321 73.624C229.638 73.624 229.094 73.8373 228.689 74.264C228.294 74.68 228.097 75.2827 228.097 76.072V81H226.273V72.184H228.097V73.192C228.395 72.8293 228.774 72.5467 229.233 72.344C229.702 72.1413 230.198 72.04 230.721 72.04ZM238.631 73.672V78.552C238.631 78.8827 238.706 79.1227 238.855 79.272C239.015 79.4107 239.282 79.48 239.655 79.48H240.775V81H239.335C238.514 81 237.884 80.808 237.447 80.424C237.01 80.04 236.791 79.416 236.791 78.552V73.672H235.751V72.184H236.791V69.992H238.631V72.184H240.775V73.672H238.631ZM245.496 81.144C244.803 81.144 244.179 81.0213 243.624 80.776C243.08 80.52 242.648 80.1787 242.328 79.752C242.008 79.3147 241.838 78.8293 241.816 78.296H243.704C243.736 78.6693 243.912 78.984 244.232 79.24C244.563 79.4853 244.974 79.608 245.464 79.608C245.976 79.608 246.371 79.512 246.648 79.32C246.936 79.1173 247.08 78.8613 247.08 78.552C247.08 78.2213 246.92 77.976 246.6 77.816C246.291 77.656 245.795 77.48 245.112 77.288C244.451 77.1067 243.912 76.9307 243.496 76.76C243.08 76.5893 242.718 76.328 242.408 75.976C242.11 75.624 241.96 75.16 241.96 74.584C241.96 74.1147 242.099 73.688 242.376 73.304C242.654 72.9093 243.048 72.6 243.56 72.376C244.083 72.152 244.68 72.04 245.352 72.04C246.355 72.04 247.16 72.296 247.768 72.808C248.387 73.3093 248.718 73.9973 248.76 74.872H246.936C246.904 74.4773 246.744 74.1627 246.456 73.928C246.168 73.6933 245.779 73.576 245.288 73.576C244.808 73.576 244.44 73.6667 244.184 73.848C243.928 74.0293 243.8 74.2693 243.8 74.568C243.8 74.8027 243.886 75 244.056 75.16C244.227 75.32 244.435 75.448 244.68 75.544C244.926 75.6293 245.288 75.7413 245.768 75.88C246.408 76.0507 246.931 76.2267 247.336 76.408C247.752 76.5787 248.11 76.8347 248.408 77.176C248.707 77.5173 248.862 77.9707 248.872 78.536C248.872 79.0373 248.734 79.4853 248.456 79.88C248.179 80.2747 247.784 80.584 247.272 80.808C246.771 81.032 246.179 81.144 245.496 81.144Z" fill="black"/>
<rect x="50" y="125" width="44" height="44" rx="22" fill="#FFB900" fill-opacity="0.1"/>
<path d="M82.0218 158.667C82.0218 154.152 77.5302 150.5 72.0002 150.5C66.4702 150.5 61.9785 154.152 61.9785 158.667M77.8335 141.167C77.8335 144.388 75.2218 147 72.0002 147C68.7785 147 66.1668 144.388 66.1668 141.167C66.1668 137.945 68.7785 135.333 72.0002 135.333C75.2218 135.333 77.8335 137.945 77.8335 141.167Z" stroke="#FFB900" stroke-width="2" stroke-linecap="round" stroke-linejoin="round"/>
<path d="M113.744 130.88V132.368H109.024V135.648H112.704V137.136H109.024V142H107.2V130.88H113.744ZM119.098 142.144C118.266 142.144 117.514 141.957 116.842 141.584C116.17 141.2 115.642 140.667 115.258 139.984C114.874 139.291 114.682 138.491 114.682 137.584C114.682 136.688 114.88 135.893 115.274 135.2C115.669 134.507 116.208 133.973 116.89 133.6C117.573 133.227 118.336 133.04 119.178 133.04C120.021 133.04 120.784 133.227 121.466 133.6C122.149 133.973 122.688 134.507 123.082 135.2C123.477 135.893 123.674 136.688 123.674 137.584C123.674 138.48 123.472 139.275 123.066 139.968C122.661 140.661 122.106 141.2 121.402 141.584C120.709 141.957 119.941 142.144 119.098 142.144ZM119.098 140.56C119.568 140.56 120.005 140.448 120.41 140.224C120.826 140 121.162 139.664 121.418 139.216C121.674 138.768 121.802 138.224 121.802 137.584C121.802 136.944 121.68 136.405 121.434 135.968C121.189 135.52 120.864 135.184 120.458 134.96C120.053 134.736 119.616 134.624 119.146 134.624C118.677 134.624 118.24 134.736 117.834 134.96C117.44 135.184 117.125 135.52 116.89 135.968C116.656 136.405 116.538 136.944 116.538 137.584C116.538 138.533 116.778 139.269 117.258 139.792C117.749 140.304 118.362 140.56 119.098 140.56ZM124.71 137.584C124.71 136.677 124.891 135.883 125.254 135.2C125.627 134.507 126.139 133.973 126.79 133.6C127.44 133.227 128.187 133.04 129.03 133.04C130.096 133.04 130.976 133.296 131.67 133.808C132.374 134.309 132.848 135.029 133.094 135.968H131.126C130.966 135.531 130.71 135.189 130.358 134.944C130.006 134.699 129.563 134.576 129.03 134.576C128.283 134.576 127.686 134.843 127.238 135.376C126.8 135.899 126.582 136.635 126.582 137.584C126.582 138.533 126.8 139.275 127.238 139.808C127.686 140.341 128.283 140.608 129.03 140.608C130.086 140.608 130.784 140.144 131.126 139.216H133.094C132.838 140.112 132.358 140.827 131.654 141.36C130.95 141.883 130.075 142.144 129.03 142.144C128.187 142.144 127.44 141.957 126.79 141.584C126.139 141.2 125.627 140.667 125.254 139.984C124.891 139.291 124.71 138.491 124.71 137.584ZM142.735 133.184V142H140.911V140.96C140.623 141.323 140.245 141.611 139.775 141.824C139.317 142.027 138.826 142.128 138.303 142.128C137.61 142.128 136.986 141.984 136.431 141.696C135.887 141.408 135.455 140.981 135.135 140.416C134.826 139.851 134.671 139.168 134.671 138.368V133.184H136.479V138.096C136.479 138.885 136.677 139.493 137.071 139.92C137.466 140.336 138.005 140.544 138.687 140.544C139.37 140.544 139.909 140.336 140.303 139.92C140.709 139.493 140.911 138.885 140.911 138.096V133.184H142.735ZM148.182 142.144C147.489 142.144 146.865 142.021 146.31 141.776C145.766 141.52 145.334 141.179 145.014 140.752C144.694 140.315 144.523 139.829 144.502 139.296H146.39C146.422 139.669 146.598 139.984 146.918 140.24C147.249 140.485 147.659 140.608 148.15 140.608C148.662 140.608 149.057 140.512 149.334 140.32C149.622 140.117 149.766 139.861 149.766 139.552C149.766 139.221 149.606 138.976 149.286 138.816C148.977 138.656 148.481 138.48 147.798 138.288C147.137 138.107 146.598 137.931 146.182 137.76C145.766 137.589 145.403 137.328 145.094 136.976C144.795 136.624 144.646 136.16 144.646 135.584C144.646 135.115 144.785 134.688 145.062 134.304C145.339 133.909 145.734 133.6 146.246 133.376C146.769 133.152 147.366 133.04 148.038 133.04C149.041 133.04 149.846 133.296 150.454 133.808C151.073 134.309 151.403 134.997 151.446 135.872H149.622C149.59 135.477 149.43 135.163 149.142 134.928C148.854 134.693 148.465 134.576 147.974 134.576C147.494 134.576 147.126 134.667 146.87 134.848C146.614 135.029 146.486 135.269 146.486 135.568C146.486 135.803 146.571 136 146.742 136.16C146.913 136.32 147.121 136.448 147.366 136.544C147.611 136.629 147.974 136.741 148.454 136.88C149.094 137.051 149.617 137.227 150.022 137.408C150.438 137.579 150.795 137.835 151.094 138.176C151.393 138.517 151.547 138.971 151.558 139.536C151.558 140.037 151.419 140.485 151.142 140.88C150.865 141.275 150.47 141.584 149.958 141.808C149.457 142.032 148.865 142.144 148.182 142.144ZM161.449 137.376C161.449 137.707 161.427 138.005 161.385 138.272H154.649C154.702 138.976 154.963 139.541 155.433 139.968C155.902 140.395 156.478 140.608 157.161 140.608C158.142 140.608 158.835 140.197 159.241 139.376H161.209C160.942 140.187 160.457 140.853 159.753 141.376C159.059 141.888 158.195 142.144 157.161 142.144C156.318 142.144 155.561 141.957 154.889 141.584C154.227 141.2 153.705 140.667 153.321 139.984C152.947 139.291 152.761 138.491 152.761 137.584C152.761 136.677 152.942 135.883 153.305 135.2C153.678 134.507 154.195 133.973 154.857 133.6C155.529 133.227 156.297 133.04 157.161 133.04C157.993 133.04 158.734 133.221 159.385 133.584C160.035 133.947 160.542 134.459 160.905 135.12C161.267 135.771 161.449 136.523 161.449 137.376ZM159.545 136.8C159.534 136.128 159.294 135.589 158.825 135.184C158.355 134.779 157.774 134.576 157.081 134.576C156.451 134.576 155.913 134.779 155.465 135.184C155.017 135.579 154.75 136.117 154.665 136.8H159.545ZM162.476 137.552C162.476 136.667 162.657 135.883 163.02 135.2C163.393 134.517 163.894 133.989 164.524 133.616C165.164 133.232 165.873 133.04 166.652 133.04C167.228 133.04 167.793 133.168 168.348 133.424C168.913 133.669 169.361 134 169.692 134.416V130.16H171.532V142H169.692V140.672C169.393 141.099 168.977 141.451 168.444 141.728C167.921 142.005 167.318 142.144 166.636 142.144C165.868 142.144 165.164 141.952 164.524 141.568C163.894 141.173 163.393 140.629 163.02 139.936C162.657 139.232 162.476 138.437 162.476 137.552ZM169.692 137.584C169.692 136.976 169.564 136.448 169.308 136C169.062 135.552 168.737 135.211 168.332 134.976C167.926 134.741 167.489 134.624 167.02 134.624C166.55 134.624 166.113 134.741 165.708 134.976C165.302 135.2 164.972 135.536 164.716 135.984C164.47 136.421 164.348 136.944 164.348 137.552C164.348 138.16 164.47 138.693 164.716 139.152C164.972 139.611 165.302 139.963 165.708 140.208C166.124 140.443 166.561 140.56 167.02 140.56C167.489 140.56 167.926 140.443 168.332 140.208C168.737 139.973 169.062 139.632 169.308 139.184C169.564 138.725 169.692 138.192 169.692 137.584ZM189.604 133.184L186.868 142H184.948L183.172 135.488L181.396 142H179.476L176.724 133.184H178.58L180.42 140.272L182.292 133.184H184.196L185.988 140.24L187.812 133.184H189.604ZM194.631 142.144C193.799 142.144 193.047 141.957 192.375 141.584C191.703 141.2 191.175 140.667 190.791 139.984C190.407 139.291 190.215 138.491 190.215 137.584C190.215 136.688 190.412 135.893 190.807 135.2C191.202 134.507 191.74 133.973 192.423 133.6C193.106 133.227 193.868 133.04 194.711 133.04C195.554 133.04 196.316 133.227 196.999 133.6C197.682 133.973 198.22 134.507 198.615 135.2C199.01 135.893 199.207 136.688 199.207 137.584C199.207 138.48 199.004 139.275 198.599 139.968C198.194 140.661 197.639 141.2 196.935 141.584C196.242 141.957 195.474 142.144 194.631 142.144ZM194.631 140.56C195.1 140.56 195.538 140.448 195.943 140.224C196.359 140 196.695 139.664 196.951 139.216C197.207 138.768 197.335 138.224 197.335 137.584C197.335 136.944 197.212 136.405 196.967 135.968C196.722 135.52 196.396 135.184 195.991 134.96C195.586 134.736 195.148 134.624 194.679 134.624C194.21 134.624 193.772 134.736 193.367 134.96C192.972 135.184 192.658 135.52 192.423 135.968C192.188 136.405 192.071 136.944 192.071 137.584C192.071 138.533 192.311 139.269 192.791 139.792C193.282 140.304 193.895 140.56 194.631 140.56ZM202.674 134.464C202.941 134.016 203.293 133.669 203.73 133.424C204.178 133.168 204.706 133.04 205.314 133.04V134.928H204.85C204.135 134.928 203.591 135.109 203.218 135.472C202.855 135.835 202.674 136.464 202.674 137.36V142H200.85V133.184H202.674V134.464ZM210.319 137.6L214.383 142H211.919L208.655 138.208V142H206.831V130.16H208.655V137.04L211.855 133.184H214.383L210.319 137.6ZM218.73 142.144C218.037 142.144 217.413 142.021 216.858 141.776C216.314 141.52 215.882 141.179 215.562 140.752C215.242 140.315 215.071 139.829 215.05 139.296H216.938C216.97 139.669 217.146 139.984 217.466 140.24C217.797 140.485 218.207 140.608 218.698 140.608C219.21 140.608 219.605 140.512 219.882 140.32C220.17 140.117 220.314 139.861 220.314 139.552C220.314 139.221 220.154 138.976 219.834 138.816C219.525 138.656 219.029 138.48 218.346 138.288C217.685 138.107 217.146 137.931 216.73 137.76C216.314 137.589 215.951 137.328 215.642 136.976C215.343 136.624 215.194 136.16 215.194 135.584C215.194 135.115 215.333 134.688 215.61 134.304C215.887 133.909 216.282 133.6 216.794 133.376C217.317 133.152 217.914 133.04 218.586 133.04C219.589 133.04 220.394 133.296 221.002 133.808C221.621 134.309 221.951 134.997 221.994 135.872H220.17C220.138 135.477 219.978 135.163 219.69 134.928C219.402 134.693 219.013 134.576 218.522 134.576C218.042 134.576 217.674 134.667 217.418 134.848C217.162 135.029 217.034 135.269 217.034 135.568C217.034 135.803 217.119 136 217.29 136.16C217.461 136.32 217.669 136.448 217.914 136.544C218.159 136.629 218.522 136.741 219.002 136.88C219.642 137.051 220.165 137.227 220.57 137.408C220.986 137.579 221.343 137.835 221.642 138.176C221.941 138.517 222.095 138.971 222.106 139.536C222.106 140.037 221.967 140.485 221.69 140.88C221.413 141.275 221.018 141.584 220.506 141.808C220.005 142.032 219.413 142.144 218.73 142.144ZM228.477 133.04C229.149 133.04 229.746 133.184 230.269 133.472C230.802 133.76 231.218 134.187 231.517 134.752C231.826 135.317 231.981 136 231.981 136.8V142H230.173V137.072C230.173 136.283 229.976 135.68 229.581 135.264C229.186 134.837 228.648 134.624 227.965 134.624C227.282 134.624 226.738 134.837 226.333 135.264C225.938 135.68 225.741 136.283 225.741 137.072V142H223.917V130.16H225.741V134.208C226.05 133.835 226.44 133.547 226.909 133.344C227.389 133.141 227.912 133.04 228.477 133.04ZM237.972 142.144C237.14 142.144 236.388 141.957 235.716 141.584C235.044 141.2 234.516 140.667 234.132 139.984C233.748 139.291 233.556 138.491 233.556 137.584C233.556 136.688 233.753 135.893 234.148 135.2C234.542 134.507 235.081 133.973 235.764 133.6C236.446 133.227 237.209 133.04 238.052 133.04C238.894 133.04 239.657 133.227 240.34 133.6C241.022 133.973 241.561 134.507 241.956 135.2C242.35 135.893 242.548 136.688 242.548 137.584C242.548 138.48 242.345 139.275 241.94 139.968C241.534 140.661 240.98 141.2 240.276 141.584C239.582 141.957 238.814 142.144 237.972 142.144ZM237.972 140.56C238.441 140.56 238.878 140.448 239.284 140.224C239.7 140 240.036 139.664 240.292 139.216C240.548 138.768 240.676 138.224 240.676 137.584C240.676 136.944 240.553 136.405 240.308 135.968C240.062 135.52 239.737 135.184 239.332 134.96C238.926 134.736 238.489 134.624 238.02 134.624C237.55 134.624 237.113 134.736 236.708 134.96C236.313 135.184 235.998 135.52 235.764 135.968C235.529 136.405 235.412 136.944 235.412 137.584C235.412 138.533 235.652 139.269 236.132 139.792C236.622 140.304 237.236 140.56 237.972 140.56ZM246.015 134.48C246.324 134.075 246.745 133.733 247.279 133.456C247.812 133.179 248.415 133.04 249.087 133.04C249.855 133.04 250.553 133.232 251.183 133.616C251.823 133.989 252.324 134.517 252.687 135.2C253.049 135.883 253.231 136.667 253.231 137.552C253.231 138.437 253.049 139.232 252.687 139.936C252.324 140.629 251.823 141.173 251.183 141.568C250.553 141.952 249.855 142.144 249.087 142.144C248.415 142.144 247.817 142.011 247.295 141.744C246.772 141.467 246.345 141.125 246.015 140.72V146.192H244.191V133.184H246.015V134.48ZM251.375 137.552C251.375 136.944 251.247 136.421 250.991 135.984C250.745 135.536 250.415 135.2 249.999 134.976C249.593 134.741 249.156 134.624 248.687 134.624C248.228 134.624 247.791 134.741 247.375 134.976C246.969 135.211 246.639 135.552 246.383 136C246.137 136.448 246.015 136.976 246.015 137.584C246.015 138.192 246.137 138.725 246.383 139.184C246.639 139.632 246.969 139.973 247.375 140.208C247.791 140.443 248.228 140.56 248.687 140.56C249.156 140.56 249.593 140.443 249.999 140.208C250.415 139.963 250.745 139.611 250.991 139.152C251.247 138.693 251.375 138.16 251.375 137.552ZM258.074 142.144C257.381 142.144 256.757 142.021 256.202 141.776C255.658 141.52 255.226 141.179 254.906 140.752C254.586 140.315 254.416 139.829 254.394 139.296H256.282C256.314 139.669 256.49 139.984 256.81 140.24C257.141 140.485 257.552 140.608 258.042 140.608C258.554 140.608 258.949 140.512 259.226 140.32C259.514 140.117 259.658 139.861 259.658 139.552C259.658 139.221 259.498 138.976 259.178 138.816C258.869 138.656 258.373 138.48 257.69 138.288C257.029 138.107 256.49 137.931 256.074 137.76C255.658 137.589 255.296 137.328 254.986 136.976C254.688 136.624 254.538 136.16 254.538 135.584C254.538 135.115 254.677 134.688 254.954 134.304C255.232 133.909 255.626 133.6 256.138 133.376C256.661 133.152 257.258 133.04 257.93 133.04C258.933 133.04 259.738 133.296 260.346 133.808C260.965 134.309 261.296 134.997 261.338 135.872H259.514C259.482 135.477 259.322 135.163 259.034 134.928C258.746 134.693 258.357 134.576 257.866 134.576C257.386 134.576 257.018 134.667 256.762 134.848C256.506 135.029 256.378 135.269 256.378 135.568C256.378 135.803 256.464 136 256.634 136.16C256.805 136.32 257.013 136.448 257.258 136.544C257.504 136.629 257.866 136.741 258.346 136.88C258.986 137.051 259.509 137.227 259.914 137.408C260.33 137.579 260.688 137.835 260.986 138.176C261.285 138.517 261.44 138.971 261.45 139.536C261.45 140.037 261.312 140.485 261.034 140.88C260.757 141.275 260.362 141.584 259.85 141.808C259.349 142.032 258.757 142.144 258.074 142.144ZM270.953 134.672H269.321V142H267.481V134.672H266.441V133.184H267.481V132.56C267.481 131.547 267.748 130.811 268.281 130.352C268.825 129.883 269.673 129.648 270.825 129.648V131.168C270.271 131.168 269.881 131.275 269.657 131.488C269.433 131.691 269.321 132.048 269.321 132.56V133.184H270.953V134.672ZM276.234 142.144C275.402 142.144 274.65 141.957 273.978 141.584C273.306 141.2 272.778 140.667 272.394 139.984C272.01 139.291 271.818 138.491 271.818 137.584C271.818 136.688 272.015 135.893 272.41 135.2C272.805 134.507 273.343 133.973 274.026 133.6C274.709 133.227 275.471 133.04 276.314 133.04C277.157 133.04 277.919 133.227 278.602 133.6C279.285 133.973 279.823 134.507 280.218 135.2C280.613 135.893 280.81 136.688 280.81 137.584C280.81 138.48 280.607 139.275 280.202 139.968C279.797 140.661 279.242 141.2 278.538 141.584C277.845 141.957 277.077 142.144 276.234 142.144ZM276.234 140.56C276.703 140.56 277.141 140.448 277.546 140.224C277.962 140 278.298 139.664 278.554 139.216C278.81 138.768 278.938 138.224 278.938 137.584C278.938 136.944 278.815 136.405 278.57 135.968C278.325 135.52 277.999 135.184 277.594 134.96C277.189 134.736 276.751 134.624 276.282 134.624C275.813 134.624 275.375 134.736 274.97 134.96C274.575 135.184 274.261 135.52 274.026 135.968C273.791 136.405 273.674 136.944 273.674 137.584C273.674 138.533 273.914 139.269 274.394 139.792C274.885 140.304 275.498 140.56 276.234 140.56ZM284.277 134.464C284.544 134.016 284.896 133.669 285.333 133.424C285.781 133.168 286.309 133.04 286.917 133.04V134.928H286.453C285.738 134.928 285.194 135.109 284.821 135.472C284.458 135.835 284.277 136.464 284.277 137.36V142H282.453V133.184H284.277V134.464ZM115.184 155.184V164H113.36V162.96C113.072 163.323 112.693 163.611 112.224 163.824C111.765 164.027 111.275 164.128 110.752 164.128C110.059 164.128 109.435 163.984 108.88 163.696C108.336 163.408 107.904 162.981 107.584 162.416C107.275 161.851 107.12 161.168 107.12 160.368V155.184H108.928V160.096C108.928 160.885 109.125 161.493 109.52 161.92C109.915 162.336 110.453 162.544 111.136 162.544C111.819 162.544 112.357 162.336 112.752 161.92C113.157 161.493 113.36 160.885 113.36 160.096V155.184H115.184ZM121.879 155.04C122.572 155.04 123.191 155.184 123.735 155.472C124.289 155.76 124.721 156.187 125.031 156.752C125.34 157.317 125.495 158 125.495 158.8V164H123.687V159.072C123.687 158.283 123.489 157.68 123.095 157.264C122.7 156.837 122.161 156.624 121.479 156.624C120.796 156.624 120.252 156.837 119.847 157.264C119.452 157.68 119.255 158.283 119.255 159.072V164H117.431V155.184H119.255V156.192C119.553 155.829 119.932 155.547 120.391 155.344C120.86 155.141 121.356 155.04 121.879 155.04ZM129.485 156.48C129.795 156.075 130.216 155.733 130.749 155.456C131.283 155.179 131.885 155.04 132.557 155.04C133.325 155.04 134.024 155.232 134.653 155.616C135.293 155.989 135.795 156.517 136.157 157.2C136.52 157.883 136.701 158.667 136.701 159.552C136.701 160.437 136.52 161.232 136.157 161.936C135.795 162.629 135.293 163.173 134.653 163.568C134.024 163.952 133.325 164.144 132.557 164.144C131.885 164.144 131.288 164.011 130.765 163.744C130.243 163.467 129.816 163.125 129.485 162.72V168.192H127.661V155.184H129.485V156.48ZM134.845 159.552C134.845 158.944 134.717 158.421 134.461 157.984C134.216 157.536 133.885 157.2 133.469 156.976C133.064 156.741 132.627 156.624 132.157 156.624C131.699 156.624 131.261 156.741 130.845 156.976C130.44 157.211 130.109 157.552 129.853 158C129.608 158.448 129.485 158.976 129.485 159.584C129.485 160.192 129.608 160.725 129.853 161.184C130.109 161.632 130.44 161.973 130.845 162.208C131.261 162.443 131.699 162.56 132.157 162.56C132.627 162.56 133.064 162.443 133.469 162.208C133.885 161.963 134.216 161.611 134.461 161.152C134.717 160.693 134.845 160.16 134.845 159.552ZM140.169 152.16V164H138.345V152.16H140.169ZM141.796 159.552C141.796 158.667 141.977 157.883 142.34 157.2C142.713 156.517 143.214 155.989 143.844 155.616C144.484 155.232 145.188 155.04 145.956 155.04C146.649 155.04 147.252 155.179 147.764 155.456C148.286 155.723 148.702 156.059 149.012 156.464V155.184H150.852V164H149.012V162.688C148.702 163.104 148.281 163.451 147.748 163.728C147.214 164.005 146.606 164.144 145.924 164.144C145.166 164.144 144.473 163.952 143.844 163.568C143.214 163.173 142.713 162.629 142.34 161.936C141.977 161.232 141.796 160.437 141.796 159.552ZM149.012 159.584C149.012 158.976 148.884 158.448 148.628 158C148.382 157.552 148.057 157.211 147.652 156.976C147.246 156.741 146.809 156.624 146.34 156.624C145.87 156.624 145.433 156.741 145.028 156.976C144.622 157.2 144.292 157.536 144.036 157.984C143.79 158.421 143.668 158.944 143.668 159.552C143.668 160.16 143.79 160.693 144.036 161.152C144.292 161.611 144.622 161.963 145.028 162.208C145.444 162.443 145.881 162.56 146.34 162.56C146.809 162.56 147.246 162.443 147.652 162.208C148.057 161.973 148.382 161.632 148.628 161.184C148.884 160.725 149.012 160.192 149.012 159.584ZM152.48 159.584C152.48 158.677 152.661 157.883 153.024 157.2C153.397 156.507 153.909 155.973 154.56 155.6C155.21 155.227 155.957 155.04 156.8 155.04C157.866 155.04 158.746 155.296 159.44 155.808C160.144 156.309 160.618 157.029 160.864 157.968H158.896C158.736 157.531 158.48 157.189 158.128 156.944C157.776 156.699 157.333 156.576 156.8 156.576C156.053 156.576 155.456 156.843 155.008 157.376C154.57 157.899 154.352 158.635 154.352 159.584C154.352 160.533 154.57 161.275 155.008 161.808C155.456 162.341 156.053 162.608 156.8 162.608C157.856 162.608 158.554 162.144 158.896 161.216H160.864C160.608 162.112 160.128 162.827 159.424 163.36C158.72 163.883 157.845 164.144 156.8 164.144C155.957 164.144 155.21 163.957 154.56 163.584C153.909 163.2 153.397 162.667 153.024 161.984C152.661 161.291 152.48 160.491 152.48 159.584ZM170.601 159.376C170.601 159.707 170.58 160.005 170.537 160.272H163.801C163.855 160.976 164.116 161.541 164.585 161.968C165.055 162.395 165.631 162.608 166.313 162.608C167.295 162.608 167.988 162.197 168.393 161.376H170.361C170.095 162.187 169.609 162.853 168.905 163.376C168.212 163.888 167.348 164.144 166.313 164.144C165.471 164.144 164.713 163.957 164.041 163.584C163.38 163.2 162.857 162.667 162.473 161.984C162.1 161.291 161.913 160.491 161.913 159.584C161.913 158.677 162.095 157.883 162.457 157.2C162.831 156.507 163.348 155.973 164.009 155.6C164.681 155.227 165.449 155.04 166.313 155.04C167.145 155.04 167.887 155.221 168.537 155.584C169.188 155.947 169.695 156.459 170.057 157.12C170.42 157.771 170.601 158.523 170.601 159.376ZM168.697 158.8C168.687 158.128 168.447 157.589 167.977 157.184C167.508 156.779 166.927 156.576 166.233 156.576C165.604 156.576 165.065 156.779 164.617 157.184C164.169 157.579 163.903 158.117 163.817 158.8H168.697ZM171.628 159.552C171.628 158.667 171.81 157.883 172.172 157.2C172.546 156.517 173.047 155.989 173.676 155.616C174.316 155.232 175.026 155.04 175.804 155.04C176.38 155.04 176.946 155.168 177.5 155.424C178.066 155.669 178.514 156 178.844 156.416V152.16H180.684V164H178.844V162.672C178.546 163.099 178.13 163.451 177.596 163.728C177.074 164.005 176.471 164.144 175.788 164.144C175.02 164.144 174.316 163.952 173.676 163.568C173.047 163.173 172.546 162.629 172.172 161.936C171.81 161.232 171.628 160.437 171.628 159.552ZM178.844 159.584C178.844 158.976 178.716 158.448 178.46 158C178.215 157.552 177.89 157.211 177.484 156.976C177.079 156.741 176.642 156.624 176.172 156.624C175.703 156.624 175.266 156.741 174.86 156.976C174.455 157.2 174.124 157.536 173.868 157.984C173.623 158.421 173.5 158.944 173.5 159.552C173.5 160.16 173.623 160.693 173.868 161.152C174.124 161.611 174.455 161.963 174.86 162.208C175.276 162.443 175.714 162.56 176.172 162.56C176.642 162.56 177.079 162.443 177.484 162.208C177.89 161.973 178.215 161.632 178.46 161.184C178.716 160.725 178.844 160.192 178.844 159.584ZM190.116 164.144C189.423 164.144 188.799 164.021 188.244 163.776C187.7 163.52 187.268 163.179 186.948 162.752C186.628 162.315 186.458 161.829 186.436 161.296H188.324C188.356 161.669 188.532 161.984 188.852 162.24C189.183 162.485 189.594 162.608 190.084 162.608C190.596 162.608 190.991 162.512 191.268 162.32C191.556 162.117 191.7 161.861 191.7 161.552C191.7 161.221 191.54 160.976 191.22 160.816C190.911 160.656 190.415 160.48 189.732 160.288C189.071 160.107 188.532 159.931 188.116 159.76C187.7 159.589 187.338 159.328 187.028 158.976C186.73 158.624 186.58 158.16 186.58 157.584C186.58 157.115 186.719 156.688 186.996 156.304C187.274 155.909 187.668 155.6 188.18 155.376C188.703 155.152 189.3 155.04 189.972 155.04C190.975 155.04 191.78 155.296 192.388 155.808C193.007 156.309 193.338 156.997 193.38 157.872H191.556C191.524 157.477 191.364 157.163 191.076 156.928C190.788 156.693 190.399 156.576 189.908 156.576C189.428 156.576 189.06 156.667 188.804 156.848C188.548 157.029 188.42 157.269 188.42 157.568C188.42 157.803 188.506 158 188.676 158.16C188.847 158.32 189.055 158.448 189.3 158.544C189.546 158.629 189.908 158.741 190.388 158.88C191.028 159.051 191.551 159.227 191.956 159.408C192.372 159.579 192.73 159.835 193.028 160.176C193.327 160.517 193.482 160.971 193.492 161.536C193.492 162.037 193.354 162.485 193.076 162.88C192.799 163.275 192.404 163.584 191.892 163.808C191.391 164.032 190.799 164.144 190.116 164.144ZM197.431 156.672V161.552C197.431 161.883 197.506 162.123 197.655 162.272C197.815 162.411 198.082 162.48 198.455 162.48H199.575V164H198.135C197.314 164 196.684 163.808 196.247 163.424C195.81 163.04 195.591 162.416 195.591 161.552V156.672H194.551V155.184H195.591V152.992H197.431V155.184H199.575V156.672H197.431ZM209.08 155.184V164H207.256V162.96C206.968 163.323 206.59 163.611 206.12 163.824C205.662 164.027 205.171 164.128 204.648 164.128C203.955 164.128 203.331 163.984 202.776 163.696C202.232 163.408 201.8 162.981 201.48 162.416C201.171 161.851 201.016 161.168 201.016 160.368V155.184H202.824V160.096C202.824 160.885 203.022 161.493 203.416 161.92C203.811 162.336 204.35 162.544 205.032 162.544C205.715 162.544 206.254 162.336 206.648 161.92C207.054 161.493 207.256 160.885 207.256 160.096V155.184H209.08ZM210.719 159.552C210.719 158.667 210.9 157.883 211.263 157.2C211.636 156.517 212.138 155.989 212.767 155.616C213.407 155.232 214.116 155.04 214.895 155.04C215.471 155.04 216.036 155.168 216.591 155.424C217.156 155.669 217.604 156 217.935 156.416V152.16H219.775V164H217.935V162.672C217.636 163.099 217.22 163.451 216.687 163.728C216.164 164.005 215.562 164.144 214.879 164.144C214.111 164.144 213.407 163.952 212.767 163.568C212.138 163.173 211.636 162.629 211.263 161.936C210.9 161.232 210.719 160.437 210.719 159.552ZM217.935 159.584C217.935 158.976 217.807 158.448 217.551 158C217.306 157.552 216.98 157.211 216.575 156.976C216.17 156.741 215.732 156.624 215.263 156.624C214.794 156.624 214.356 156.741 213.951 156.976C213.546 157.2 213.215 157.536 212.959 157.984C212.714 158.421 212.591 158.944 212.591 159.552C212.591 160.16 212.714 160.693 212.959 161.152C213.215 161.611 213.546 161.963 213.951 162.208C214.367 162.443 214.804 162.56 215.263 162.56C215.732 162.56 216.17 162.443 216.575 162.208C216.98 161.973 217.306 161.632 217.551 161.184C217.807 160.725 217.935 160.192 217.935 159.584ZM230.091 159.376C230.091 159.707 230.069 160.005 230.027 160.272H223.291C223.344 160.976 223.605 161.541 224.075 161.968C224.544 162.395 225.12 162.608 225.803 162.608C226.784 162.608 227.477 162.197 227.883 161.376H229.851C229.584 162.187 229.099 162.853 228.395 163.376C227.701 163.888 226.837 164.144 225.803 164.144C224.96 164.144 224.203 163.957 223.531 163.584C222.869 163.2 222.347 162.667 221.963 161.984C221.589 161.291 221.403 160.491 221.403 159.584C221.403 158.677 221.584 157.883 221.947 157.2C222.32 156.507 222.837 155.973 223.499 155.6C224.171 155.227 224.939 155.04 225.803 155.04C226.635 155.04 227.376 155.221 228.027 155.584C228.677 155.947 229.184 156.459 229.547 157.12C229.909 157.771 230.091 158.523 230.091 159.376ZM228.187 158.8C228.176 158.128 227.936 157.589 227.467 157.184C226.997 156.779 226.416 156.576 225.723 156.576C225.093 156.576 224.555 156.779 224.107 157.184C223.659 157.579 223.392 158.117 223.307 158.8H228.187ZM236.174 155.04C236.867 155.04 237.486 155.184 238.03 155.472C238.584 155.76 239.016 156.187 239.326 156.752C239.635 157.317 239.79 158 239.79 158.8V164H237.982V159.072C237.982 158.283 237.784 157.68 237.39 157.264C236.995 156.837 236.456 156.624 235.774 156.624C235.091 156.624 234.547 156.837 234.142 157.264C233.747 157.68 233.55 158.283 233.55 159.072V164H231.726V155.184H233.55V156.192C233.848 155.829 234.227 155.547 234.686 155.344C235.155 155.141 235.651 155.04 236.174 155.04ZM244.084 156.672V161.552C244.084 161.883 244.159 162.123 244.308 162.272C244.468 162.411 244.735 162.48 245.108 162.48H246.228V164H244.788C243.967 164 243.338 163.808 242.9 163.424C242.463 163.04 242.244 162.416 242.244 161.552V156.672H241.204V155.184H242.244V152.992H244.084V155.184H246.228V156.672H244.084ZM250.949 164.144C250.256 164.144 249.632 164.021 249.077 163.776C248.533 163.52 248.101 163.179 247.781 162.752C247.461 162.315 247.291 161.829 247.269 161.296H249.157C249.189 161.669 249.365 161.984 249.685 162.24C250.016 162.485 250.427 162.608 250.917 162.608C251.429 162.608 251.824 162.512 252.101 162.32C252.389 162.117 252.533 161.861 252.533 161.552C252.533 161.221 252.373 160.976 252.053 160.816C251.744 160.656 251.248 160.48 250.565 160.288C249.904 160.107 249.365 159.931 248.949 159.76C248.533 159.589 248.171 159.328 247.861 158.976C247.563 158.624 247.413 158.16 247.413 157.584C247.413 157.115 247.552 156.688 247.829 156.304C248.107 155.909 248.501 155.6 249.013 155.376C249.536 155.152 250.133 155.04 250.805 155.04C251.808 155.04 252.613 155.296 253.221 155.808C253.84 156.309 254.171 156.997 254.213 157.872H252.389C252.357 157.477 252.197 157.163 251.909 156.928C251.621 156.693 251.232 156.576 250.741 156.576C250.261 156.576 249.893 156.667 249.637 156.848C249.381 157.029 249.253 157.269 249.253 157.568C249.253 157.803 249.339 158 249.509 158.16C249.68 158.32 249.888 158.448 250.133 158.544C250.379 158.629 250.741 158.741 251.221 158.88C251.861 159.051 252.384 159.227 252.789 159.408C253.205 159.579 253.563 159.835 253.861 160.176C254.16 160.517 254.315 160.971 254.325 161.536C254.325 162.037 254.187 162.485 253.909 162.88C253.632 163.275 253.237 163.584 252.725 163.808C252.224 164.032 251.632 164.144 250.949 164.144Z" fill="black"/>
<rect x="50" y="197" width="44" height="44" rx="22" fill="#5083C1" fill-opacity="0.1"/>
<path d="M71.9997 211.405V228.905M67.0413 214.905H64.4163M67.9163 218.405H64.4163M83.6663 224.53V210.448C83.6663 209.048 82.523 208.01 81.1347 208.126H81.0647C78.6147 208.336 74.893 209.585 72.8163 210.891L72.618 211.02C72.2797 211.23 71.7197 211.23 71.3813 211.02L71.0897 210.845C69.013 209.55 65.303 208.313 62.853 208.115C61.4647 207.998 60.333 209.048 60.333 210.436V224.53C60.333 225.65 61.243 226.7 62.363 226.84L62.7013 226.886C65.233 227.225 69.1413 228.508 71.3813 229.733L71.428 229.756C71.743 229.931 72.2447 229.931 72.548 229.756C74.788 228.52 78.708 227.225 81.2513 226.886L81.6363 226.84C82.7563 226.7 83.6663 225.65 83.6663 224.53Z" stroke="#5083C1" stroke-width="2" stroke-linecap="round" stroke-linejoin="round"/>
<path d="M112.272 214.112C111.237 214.112 110.283 213.872 109.408 213.392C108.544 212.901 107.856 212.224 107.344 211.36C106.843 210.485 106.592 209.504 106.592 208.416C106.592 207.328 106.843 206.352 107.344 205.488C107.856 204.624 108.544 203.952 109.408 203.472C110.283 202.981 111.237 202.736 112.272 202.736C113.317 202.736 114.272 202.981 115.136 203.472C116.011 203.952 116.699 204.624 117.2 205.488C117.701 206.352 117.952 207.328 117.952 208.416C117.952 209.504 117.701 210.485 117.2 211.36C116.699 212.224 116.011 212.901 115.136 213.392C114.272 213.872 113.317 214.112 112.272 214.112ZM112.272 212.528C113.008 212.528 113.664 212.363 114.24 212.032C114.816 211.691 115.264 211.211 115.584 210.592C115.915 209.963 116.08 209.237 116.08 208.416C116.08 207.595 115.915 206.875 115.584 206.256C115.264 205.637 114.816 205.163 114.24 204.832C113.664 204.501 113.008 204.336 112.272 204.336C111.536 204.336 110.88 204.501 110.304 204.832C109.728 205.163 109.275 205.637 108.944 206.256C108.624 206.875 108.464 207.595 108.464 208.416C108.464 209.237 108.624 209.963 108.944 210.592C109.275 211.211 109.728 211.691 110.304 212.032C110.88 212.363 111.536 212.528 112.272 212.528ZM123.283 206.672H121.651V214H119.811V206.672H118.771V205.184H119.811V204.56C119.811 203.547 120.078 202.811 120.611 202.352C121.155 201.883 122.003 201.648 123.155 201.648V203.168C122.6 203.168 122.211 203.275 121.987 203.488C121.763 203.691 121.651 204.048 121.651 204.56V205.184H123.283V206.672ZM128.435 206.672H126.803V214H124.963V206.672H123.923V205.184H124.963V204.56C124.963 203.547 125.23 202.811 125.763 202.352C126.307 201.883 127.155 201.648 128.307 201.648V203.168C127.753 203.168 127.363 203.275 127.139 203.488C126.915 203.691 126.803 204.048 126.803 204.56V205.184H128.435V206.672ZM137.972 209.376C137.972 209.707 137.951 210.005 137.908 210.272H131.172C131.225 210.976 131.487 211.541 131.956 211.968C132.425 212.395 133.001 212.608 133.684 212.608C134.665 212.608 135.359 212.197 135.764 211.376H137.732C137.465 212.187 136.98 212.853 136.276 213.376C135.583 213.888 134.719 214.144 133.684 214.144C132.841 214.144 132.084 213.957 131.412 213.584C130.751 213.2 130.228 212.667 129.844 211.984C129.471 211.291 129.284 210.491 129.284 209.584C129.284 208.677 129.465 207.883 129.828 207.2C130.201 206.507 130.719 205.973 131.38 205.6C132.052 205.227 132.82 205.04 133.684 205.04C134.516 205.04 135.257 205.221 135.908 205.584C136.559 205.947 137.065 206.459 137.428 207.12C137.791 207.771 137.972 208.523 137.972 209.376ZM136.068 208.8C136.057 208.128 135.817 207.589 135.348 207.184C134.879 206.779 134.297 206.576 133.604 206.576C132.975 206.576 132.436 206.779 131.988 207.184C131.54 207.579 131.273 208.117 131.188 208.8H136.068ZM141.431 206.464C141.698 206.016 142.05 205.669 142.487 205.424C142.935 205.168 143.463 205.04 144.071 205.04V206.928H143.607C142.892 206.928 142.348 207.109 141.975 207.472C141.612 207.835 141.431 208.464 141.431 209.36V214H139.607V205.184H141.431V206.464ZM153.668 209.376C153.668 209.707 153.646 210.005 153.604 210.272H146.868C146.921 210.976 147.182 211.541 147.652 211.968C148.121 212.395 148.697 212.608 149.38 212.608C150.361 212.608 151.054 212.197 151.46 211.376H153.428C153.161 212.187 152.676 212.853 151.972 213.376C151.278 213.888 150.414 214.144 149.38 214.144C148.537 214.144 147.78 213.957 147.108 213.584C146.446 213.2 145.924 212.667 145.54 211.984C145.166 211.291 144.98 210.491 144.98 209.584C144.98 208.677 145.161 207.883 145.524 207.2C145.897 206.507 146.414 205.973 147.076 205.6C147.748 205.227 148.516 205.04 149.38 205.04C150.212 205.04 150.953 205.221 151.604 205.584C152.254 205.947 152.761 206.459 153.124 207.12C153.486 207.771 153.668 208.523 153.668 209.376ZM151.764 208.8C151.753 208.128 151.513 207.589 151.044 207.184C150.574 206.779 149.993 206.576 149.3 206.576C148.67 206.576 148.132 206.779 147.684 207.184C147.236 207.579 146.969 208.117 146.884 208.8H151.764ZM154.695 209.552C154.695 208.667 154.876 207.883 155.239 207.2C155.612 206.517 156.113 205.989 156.743 205.616C157.383 205.232 158.092 205.04 158.871 205.04C159.447 205.04 160.012 205.168 160.567 205.424C161.132 205.669 161.58 206 161.911 206.416V202.16H163.751V214H161.911V212.672C161.612 213.099 161.196 213.451 160.663 213.728C160.14 214.005 159.537 214.144 158.855 214.144C158.087 214.144 157.383 213.952 156.743 213.568C156.113 213.173 155.612 212.629 155.239 211.936C154.876 211.232 154.695 210.437 154.695 209.552ZM161.911 209.584C161.911 208.976 161.783 208.448 161.527 208C161.281 207.552 160.956 207.211 160.551 206.976C160.145 206.741 159.708 206.624 159.239 206.624C158.769 206.624 158.332 206.741 157.927 206.976C157.521 207.2 157.191 207.536 156.935 207.984C156.689 208.421 156.567 208.944 156.567 209.552C156.567 210.16 156.689 210.693 156.935 211.152C157.191 211.611 157.521 211.963 157.927 212.208C158.343 212.443 158.78 212.56 159.239 212.56C159.708 212.56 160.145 212.443 160.551 212.208C160.956 211.973 161.281 211.632 161.527 211.184C161.783 210.725 161.911 210.192 161.911 209.584ZM170.911 204.016C170.58 204.016 170.303 203.904 170.079 203.68C169.855 203.456 169.743 203.179 169.743 202.848C169.743 202.517 169.855 202.24 170.079 202.016C170.303 201.792 170.58 201.68 170.911 201.68C171.231 201.68 171.503 201.792 171.727 202.016C171.951 202.24 172.063 202.517 172.063 202.848C172.063 203.179 171.951 203.456 171.727 203.68C171.503 203.904 171.231 204.016 170.911 204.016ZM171.807 205.184V214H169.983V205.184H171.807ZM178.489 205.04C179.183 205.04 179.801 205.184 180.345 205.472C180.9 205.76 181.332 206.187 181.641 206.752C181.951 207.317 182.105 208 182.105 208.8V214H180.297V209.072C180.297 208.283 180.1 207.68 179.705 207.264C179.311 206.837 178.772 206.624 178.089 206.624C177.407 206.624 176.863 206.837 176.457 207.264C176.063 207.68 175.865 208.283 175.865 209.072V214H174.041V205.184H175.865V206.192C176.164 205.829 176.543 205.547 177.001 205.344C177.471 205.141 177.967 205.04 178.489 205.04ZM190.092 206.496C190.401 206.069 190.823 205.723 191.356 205.456C191.9 205.179 192.503 205.04 193.164 205.04C193.943 205.04 194.647 205.227 195.276 205.6C195.905 205.973 196.401 206.507 196.764 207.2C197.127 207.883 197.308 208.667 197.308 209.552C197.308 210.437 197.127 211.232 196.764 211.936C196.401 212.629 195.9 213.173 195.26 213.568C194.631 213.952 193.932 214.144 193.164 214.144C192.481 214.144 191.873 214.011 191.34 213.744C190.817 213.477 190.401 213.136 190.092 212.72V214H188.268V202.16H190.092V206.496ZM195.452 209.552C195.452 208.944 195.324 208.421 195.068 207.984C194.823 207.536 194.492 207.2 194.076 206.976C193.671 206.741 193.233 206.624 192.764 206.624C192.305 206.624 191.868 206.741 191.452 206.976C191.047 207.211 190.716 207.552 190.46 208C190.215 208.448 190.092 208.976 190.092 209.584C190.092 210.192 190.215 210.725 190.46 211.184C190.716 211.632 191.047 211.973 191.452 212.208C191.868 212.443 192.305 212.56 192.764 212.56C193.233 212.56 193.671 212.443 194.076 212.208C194.492 211.963 194.823 211.611 195.068 211.152C195.324 210.693 195.452 210.16 195.452 209.552ZM202.776 214.144C201.944 214.144 201.192 213.957 200.52 213.584C199.848 213.2 199.32 212.667 198.936 211.984C198.552 211.291 198.36 210.491 198.36 209.584C198.36 208.688 198.557 207.893 198.952 207.2C199.347 206.507 199.885 205.973 200.568 205.6C201.251 205.227 202.013 205.04 202.856 205.04C203.699 205.04 204.461 205.227 205.144 205.6C205.827 205.973 206.365 206.507 206.76 207.2C207.155 207.893 207.352 208.688 207.352 209.584C207.352 210.48 207.149 211.275 206.744 211.968C206.339 212.661 205.784 213.2 205.08 213.584C204.387 213.957 203.619 214.144 202.776 214.144ZM202.776 212.56C203.245 212.56 203.683 212.448 204.088 212.224C204.504 212 204.84 211.664 205.096 211.216C205.352 210.768 205.48 210.224 205.48 209.584C205.48 208.944 205.357 208.405 205.112 207.968C204.867 207.52 204.541 207.184 204.136 206.96C203.731 206.736 203.293 206.624 202.824 206.624C202.355 206.624 201.917 206.736 201.512 206.96C201.117 207.184 200.803 207.52 200.568 207.968C200.333 208.405 200.216 208.944 200.216 209.584C200.216 210.533 200.456 211.269 200.936 211.792C201.427 212.304 202.04 212.56 202.776 212.56ZM211.123 206.672V211.552C211.123 211.883 211.198 212.123 211.347 212.272C211.507 212.411 211.774 212.48 212.147 212.48H213.267V214H211.827C211.006 214 210.376 213.808 209.939 213.424C209.502 213.04 209.283 212.416 209.283 211.552V206.672H208.243V205.184H209.283V202.992H211.123V205.184H213.267V206.672H211.123ZM219.348 205.04C220.02 205.04 220.617 205.184 221.14 205.472C221.673 205.76 222.089 206.187 222.388 206.752C222.697 207.317 222.852 208 222.852 208.8V214H221.044V209.072C221.044 208.283 220.847 207.68 220.452 207.264C220.057 206.837 219.519 206.624 218.836 206.624C218.153 206.624 217.609 206.837 217.204 207.264C216.809 207.68 216.612 208.283 216.612 209.072V214H214.788V202.16H216.612V206.208C216.921 205.835 217.311 205.547 217.78 205.344C218.26 205.141 218.783 205.04 219.348 205.04ZM232.839 214.144C232.007 214.144 231.255 213.957 230.583 213.584C229.911 213.2 229.383 212.667 228.999 211.984C228.615 211.291 228.423 210.491 228.423 209.584C228.423 208.688 228.62 207.893 229.015 207.2C229.41 206.507 229.948 205.973 230.631 205.6C231.314 205.227 232.076 205.04 232.919 205.04C233.762 205.04 234.524 205.227 235.207 205.6C235.89 205.973 236.428 206.507 236.823 207.2C237.218 207.893 237.415 208.688 237.415 209.584C237.415 210.48 237.212 211.275 236.807 211.968C236.402 212.661 235.847 213.2 235.143 213.584C234.45 213.957 233.682 214.144 232.839 214.144ZM232.839 212.56C233.308 212.56 233.746 212.448 234.151 212.224C234.567 212 234.903 211.664 235.159 211.216C235.415 210.768 235.543 210.224 235.543 209.584C235.543 208.944 235.42 208.405 235.175 207.968C234.93 207.52 234.604 207.184 234.199 206.96C233.794 206.736 233.356 206.624 232.887 206.624C232.418 206.624 231.98 206.736 231.575 206.96C231.18 207.184 230.866 207.52 230.631 207.968C230.396 208.405 230.279 208.944 230.279 209.584C230.279 210.533 230.519 211.269 230.999 211.792C231.49 212.304 232.103 212.56 232.839 212.56ZM243.506 205.04C244.199 205.04 244.818 205.184 245.362 205.472C245.917 205.76 246.349 206.187 246.658 206.752C246.967 207.317 247.122 208 247.122 208.8V214H245.314V209.072C245.314 208.283 245.117 207.68 244.722 207.264C244.327 206.837 243.789 206.624 243.106 206.624C242.423 206.624 241.879 206.837 241.474 207.264C241.079 207.68 240.882 208.283 240.882 209.072V214H239.058V205.184H240.882V206.192C241.181 205.829 241.559 205.547 242.018 205.344C242.487 205.141 242.983 205.04 243.506 205.04ZM251.113 202.16V214H249.289V202.16H251.113ZM254.276 204.016C253.945 204.016 253.668 203.904 253.444 203.68C253.22 203.456 253.108 203.179 253.108 202.848C253.108 202.517 253.22 202.24 253.444 202.016C253.668 201.792 253.945 201.68 254.276 201.68C254.596 201.68 254.868 201.792 255.092 202.016C255.316 202.24 255.428 202.517 255.428 202.848C255.428 203.179 255.316 203.456 255.092 203.68C254.868 203.904 254.596 204.016 254.276 204.016ZM255.172 205.184V214H253.348V205.184H255.172ZM261.854 205.04C262.548 205.04 263.166 205.184 263.71 205.472C264.265 205.76 264.697 206.187 265.006 206.752C265.316 207.317 265.47 208 265.47 208.8V214H263.662V209.072C263.662 208.283 263.465 207.68 263.07 207.264C262.676 206.837 262.137 206.624 261.454 206.624C260.772 206.624 260.228 206.837 259.822 207.264C259.428 207.68 259.23 208.283 259.23 209.072V214H257.406V205.184H259.23V206.192C259.529 205.829 259.908 205.547 260.366 205.344C260.836 205.141 261.332 205.04 261.854 205.04ZM275.717 209.376C275.717 209.707 275.696 210.005 275.653 210.272H268.917C268.97 210.976 269.232 211.541 269.701 211.968C270.17 212.395 270.746 212.608 271.429 212.608C272.41 212.608 273.104 212.197 273.509 211.376H275.477C275.21 212.187 274.725 212.853 274.021 213.376C273.328 213.888 272.464 214.144 271.429 214.144C270.586 214.144 269.829 213.957 269.157 213.584C268.496 213.2 267.973 212.667 267.589 211.984C267.216 211.291 267.029 210.491 267.029 209.584C267.029 208.677 267.21 207.883 267.573 207.2C267.946 206.507 268.464 205.973 269.125 205.6C269.797 205.227 270.565 205.04 271.429 205.04C272.261 205.04 273.002 205.221 273.653 205.584C274.304 205.947 274.81 206.459 275.173 207.12C275.536 207.771 275.717 208.523 275.717 209.376ZM273.813 208.8C273.802 208.128 273.562 207.589 273.093 207.184C272.624 206.779 272.042 206.576 271.349 206.576C270.72 206.576 270.181 206.779 269.733 207.184C269.285 207.579 269.018 208.117 268.933 208.8H273.813ZM106.592 231.552C106.592 230.667 106.773 229.883 107.136 229.2C107.509 228.517 108.011 227.989 108.64 227.616C109.28 227.232 109.984 227.04 110.752 227.04C111.445 227.04 112.048 227.179 112.56 227.456C113.083 227.723 113.499 228.059 113.808 228.464V227.184H115.648V236H113.808V234.688C113.499 235.104 113.077 235.451 112.544 235.728C112.011 236.005 111.403 236.144 110.72 236.144C109.963 236.144 109.269 235.952 108.64 235.568C108.011 235.173 107.509 234.629 107.136 233.936C106.773 233.232 106.592 232.437 106.592 231.552ZM113.808 231.584C113.808 230.976 113.68 230.448 113.424 230C113.179 229.552 112.853 229.211 112.448 228.976C112.043 228.741 111.605 228.624 111.136 228.624C110.667 228.624 110.229 228.741 109.824 228.976C109.419 229.2 109.088 229.536 108.832 229.984C108.587 230.421 108.464 230.944 108.464 231.552C108.464 232.16 108.587 232.693 108.832 233.152C109.088 233.611 109.419 233.963 109.824 234.208C110.24 234.443 110.677 234.56 111.136 234.56C111.605 234.56 112.043 234.443 112.448 234.208C112.853 233.973 113.179 233.632 113.424 233.184C113.68 232.725 113.808 232.192 113.808 231.584ZM122.332 227.04C123.025 227.04 123.644 227.184 124.188 227.472C124.742 227.76 125.174 228.187 125.484 228.752C125.793 229.317 125.948 230 125.948 230.8V236H124.14V231.072C124.14 230.283 123.942 229.68 123.548 229.264C123.153 228.837 122.614 228.624 121.932 228.624C121.249 228.624 120.705 228.837 120.3 229.264C119.905 229.68 119.708 230.283 119.708 231.072V236H117.884V227.184H119.708V228.192C120.006 227.829 120.385 227.547 120.844 227.344C121.313 227.141 121.809 227.04 122.332 227.04ZM127.506 231.552C127.506 230.667 127.688 229.883 128.05 229.2C128.424 228.517 128.925 227.989 129.554 227.616C130.194 227.232 130.904 227.04 131.682 227.04C132.258 227.04 132.824 227.168 133.378 227.424C133.944 227.669 134.392 228 134.722 228.416V224.16H136.562V236H134.722V234.672C134.424 235.099 134.008 235.451 133.474 235.728C132.952 236.005 132.349 236.144 131.666 236.144C130.898 236.144 130.194 235.952 129.554 235.568C128.925 235.173 128.424 234.629 128.05 233.936C127.688 233.232 127.506 232.437 127.506 231.552ZM134.722 231.584C134.722 230.976 134.594 230.448 134.338 230C134.093 229.552 133.768 229.211 133.362 228.976C132.957 228.741 132.52 228.624 132.05 228.624C131.581 228.624 131.144 228.741 130.738 228.976C130.333 229.2 130.002 229.536 129.746 229.984C129.501 230.421 129.378 230.944 129.378 231.552C129.378 232.16 129.501 232.693 129.746 233.152C130.002 233.611 130.333 233.963 130.738 234.208C131.154 234.443 131.592 234.56 132.05 234.56C132.52 234.56 132.957 234.443 133.362 234.208C133.768 233.973 134.093 233.632 134.338 233.184C134.594 232.725 134.722 232.192 134.722 231.584ZM146.618 236.144C145.786 236.144 145.034 235.957 144.362 235.584C143.69 235.2 143.162 234.667 142.778 233.984C142.394 233.291 142.202 232.491 142.202 231.584C142.202 230.688 142.4 229.893 142.794 229.2C143.189 228.507 143.728 227.973 144.41 227.6C145.093 227.227 145.856 227.04 146.698 227.04C147.541 227.04 148.304 227.227 148.986 227.6C149.669 227.973 150.208 228.507 150.602 229.2C150.997 229.893 151.194 230.688 151.194 231.584C151.194 232.48 150.992 233.275 150.586 233.968C150.181 234.661 149.626 235.2 148.922 235.584C148.229 235.957 147.461 236.144 146.618 236.144ZM146.618 234.56C147.088 234.56 147.525 234.448 147.93 234.224C148.346 234 148.682 233.664 148.938 233.216C149.194 232.768 149.322 232.224 149.322 231.584C149.322 230.944 149.2 230.405 148.954 229.968C148.709 229.52 148.384 229.184 147.978 228.96C147.573 228.736 147.136 228.624 146.666 228.624C146.197 228.624 145.76 228.736 145.354 228.96C144.96 229.184 144.645 229.52 144.41 229.968C144.176 230.405 144.058 230.944 144.058 231.584C144.058 232.533 144.298 233.269 144.778 233.792C145.269 234.304 145.882 234.56 146.618 234.56ZM156.534 228.672H154.902V236H153.062V228.672H152.022V227.184H153.062V226.56C153.062 225.547 153.328 224.811 153.862 224.352C154.406 223.883 155.254 223.648 156.406 223.648V225.168C155.851 225.168 155.462 225.275 155.238 225.488C155.014 225.691 154.902 226.048 154.902 226.56V227.184H156.534V228.672ZM161.686 228.672H160.054V236H158.214V228.672H157.174V227.184H158.214V226.56C158.214 225.547 158.481 224.811 159.014 224.352C159.558 223.883 160.406 223.648 161.558 223.648V225.168C161.003 225.168 160.614 225.275 160.39 225.488C160.166 225.691 160.054 226.048 160.054 226.56V227.184H161.686V228.672ZM164.967 224.16V236H163.143V224.16H164.967ZM168.129 226.016C167.799 226.016 167.521 225.904 167.297 225.68C167.073 225.456 166.961 225.179 166.961 224.848C166.961 224.517 167.073 224.24 167.297 224.016C167.521 223.792 167.799 223.68 168.129 223.68C168.449 223.68 168.721 223.792 168.945 224.016C169.169 224.24 169.281 224.517 169.281 224.848C169.281 225.179 169.169 225.456 168.945 225.68C168.721 225.904 168.449 226.016 168.129 226.016ZM169.025 227.184V236H167.201V227.184H169.025ZM175.708 227.04C176.401 227.04 177.02 227.184 177.564 227.472C178.119 227.76 178.551 228.187 178.86 228.752C179.169 229.317 179.324 230 179.324 230.8V236H177.516V231.072C177.516 230.283 177.319 229.68 176.924 229.264C176.529 228.837 175.991 228.624 175.308 228.624C174.625 228.624 174.081 228.837 173.676 229.264C173.281 229.68 173.084 230.283 173.084 231.072V236H171.26V227.184H173.084V228.192C173.383 227.829 173.761 227.547 174.22 227.344C174.689 227.141 175.185 227.04 175.708 227.04ZM189.571 231.376C189.571 231.707 189.549 232.005 189.507 232.272H182.771C182.824 232.976 183.085 233.541 183.555 233.968C184.024 234.395 184.6 234.608 185.283 234.608C186.264 234.608 186.957 234.197 187.363 233.376H189.331C189.064 234.187 188.579 234.853 187.875 235.376C187.181 235.888 186.317 236.144 185.283 236.144C184.44 236.144 183.683 235.957 183.011 235.584C182.349 235.2 181.827 234.667 181.443 233.984C181.069 233.291 180.883 232.491 180.883 231.584C180.883 230.677 181.064 229.883 181.427 229.2C181.8 228.507 182.317 227.973 182.979 227.6C183.651 227.227 184.419 227.04 185.283 227.04C186.115 227.04 186.856 227.221 187.507 227.584C188.157 227.947 188.664 228.459 189.027 229.12C189.389 229.771 189.571 230.523 189.571 231.376ZM187.667 230.8C187.656 230.128 187.416 229.589 186.947 229.184C186.477 228.779 185.896 228.576 185.203 228.576C184.573 228.576 184.035 228.779 183.587 229.184C183.139 229.579 182.872 230.117 182.787 230.8H187.667ZM205.874 227.04C206.567 227.04 207.186 227.184 207.73 227.472C208.285 227.76 208.717 228.187 209.026 228.752C209.346 229.317 209.506 230 209.506 230.8V236H207.698V231.072C207.698 230.283 207.501 229.68 207.106 229.264C206.711 228.837 206.173 228.624 205.49 228.624C204.807 228.624 204.263 228.837 203.858 229.264C203.463 229.68 203.266 230.283 203.266 231.072V236H201.458V231.072C201.458 230.283 201.261 229.68 200.866 229.264C200.471 228.837 199.933 228.624 199.25 228.624C198.567 228.624 198.023 228.837 197.618 229.264C197.223 229.68 197.026 230.283 197.026 231.072V236H195.202V227.184H197.026V228.192C197.325 227.829 197.703 227.547 198.162 227.344C198.621 227.141 199.111 227.04 199.634 227.04C200.338 227.04 200.967 227.189 201.522 227.488C202.077 227.787 202.503 228.219 202.802 228.784C203.069 228.251 203.485 227.829 204.05 227.52C204.615 227.2 205.223 227.04 205.874 227.04ZM215.491 236.144C214.659 236.144 213.907 235.957 213.235 235.584C212.563 235.2 212.035 234.667 211.651 233.984C211.267 233.291 211.075 232.491 211.075 231.584C211.075 230.688 211.272 229.893 211.667 229.2C212.062 228.507 212.6 227.973 213.283 227.6C213.966 227.227 214.728 227.04 215.571 227.04C216.414 227.04 217.176 227.227 217.859 227.6C218.542 227.973 219.08 228.507 219.475 229.2C219.87 229.893 220.067 230.688 220.067 231.584C220.067 232.48 219.864 233.275 219.459 233.968C219.054 234.661 218.499 235.2 217.795 235.584C217.102 235.957 216.334 236.144 215.491 236.144ZM215.491 234.56C215.96 234.56 216.398 234.448 216.803 234.224C217.219 234 217.555 233.664 217.811 233.216C218.067 232.768 218.195 232.224 218.195 231.584C218.195 230.944 218.072 230.405 217.827 229.968C217.582 229.52 217.256 229.184 216.851 228.96C216.446 228.736 216.008 228.624 215.539 228.624C215.07 228.624 214.632 228.736 214.227 228.96C213.832 229.184 213.518 229.52 213.283 229.968C213.048 230.405 212.931 230.944 212.931 231.584C212.931 232.533 213.171 233.269 213.651 233.792C214.142 234.304 214.755 234.56 215.491 234.56ZM221.102 231.552C221.102 230.667 221.283 229.883 221.646 229.2C222.019 228.517 222.521 227.989 223.15 227.616C223.79 227.232 224.499 227.04 225.278 227.04C225.854 227.04 226.419 227.168 226.974 227.424C227.539 227.669 227.987 228 228.318 228.416V224.16H230.158V236H228.318V234.672C228.019 235.099 227.603 235.451 227.07 235.728C226.547 236.005 225.945 236.144 225.262 236.144C224.494 236.144 223.79 235.952 223.15 235.568C222.521 235.173 222.019 234.629 221.646 233.936C221.283 233.232 221.102 232.437 221.102 231.552ZM228.318 231.584C228.318 230.976 228.19 230.448 227.934 230C227.689 229.552 227.363 229.211 226.958 228.976C226.553 228.741 226.115 228.624 225.646 228.624C225.177 228.624 224.739 228.741 224.334 228.976C223.929 229.2 223.598 229.536 223.342 229.984C223.097 230.421 222.974 230.944 222.974 231.552C222.974 232.16 223.097 232.693 223.342 233.152C223.598 233.611 223.929 233.963 224.334 234.208C224.75 234.443 225.187 234.56 225.646 234.56C226.115 234.56 226.553 234.443 226.958 234.208C227.363 233.973 227.689 233.632 227.934 233.184C228.19 232.725 228.318 232.192 228.318 231.584ZM240.474 231.376C240.474 231.707 240.452 232.005 240.41 232.272H233.674C233.727 232.976 233.988 233.541 234.458 233.968C234.927 234.395 235.503 234.608 236.186 234.608C237.167 234.608 237.86 234.197 238.266 233.376H240.234C239.967 234.187 239.482 234.853 238.778 235.376C238.084 235.888 237.22 236.144 236.186 236.144C235.343 236.144 234.586 235.957 233.914 235.584C233.252 235.2 232.73 234.667 232.346 233.984C231.972 233.291 231.786 232.491 231.786 231.584C231.786 230.677 231.967 229.883 232.33 229.2C232.703 228.507 233.22 227.973 233.882 227.6C234.554 227.227 235.322 227.04 236.186 227.04C237.018 227.04 237.759 227.221 238.41 227.584C239.06 227.947 239.567 228.459 239.93 229.12C240.292 229.771 240.474 230.523 240.474 231.376ZM238.57 230.8C238.559 230.128 238.319 229.589 237.85 229.184C237.38 228.779 236.799 228.576 236.106 228.576C235.476 228.576 234.938 228.779 234.49 229.184C234.042 229.579 233.775 230.117 233.69 230.8H238.57ZM245.309 236.144C244.615 236.144 243.991 236.021 243.437 235.776C242.893 235.52 242.461 235.179 242.141 234.752C241.821 234.315 241.65 233.829 241.629 233.296H243.517C243.549 233.669 243.725 233.984 244.045 234.24C244.375 234.485 244.786 234.608 245.277 234.608C245.789 234.608 246.183 234.512 246.461 234.32C246.749 234.117 246.893 233.861 246.893 233.552C246.893 233.221 246.733 232.976 246.413 232.816C246.103 232.656 245.607 232.48 244.925 232.288C244.263 232.107 243.725 231.931 243.309 231.76C242.893 231.589 242.53 231.328 242.221 230.976C241.922 230.624 241.773 230.16 241.773 229.584C241.773 229.115 241.911 228.688 242.189 228.304C242.466 227.909 242.861 227.6 243.373 227.376C243.895 227.152 244.493 227.04 245.165 227.04C246.167 227.04 246.973 227.296 247.581 227.808C248.199 228.309 248.53 228.997 248.573 229.872H246.749C246.717 229.477 246.557 229.163 246.269 228.928C245.981 228.693 245.591 228.576 245.101 228.576C244.621 228.576 244.253 228.667 243.997 228.848C243.741 229.029 243.613 229.269 243.613 229.568C243.613 229.803 243.698 230 243.869 230.16C244.039 230.32 244.247 230.448 244.493 230.544C244.738 230.629 245.101 230.741 245.581 230.88C246.221 231.051 246.743 231.227 247.149 231.408C247.565 231.579 247.922 231.835 248.221 232.176C248.519 232.517 248.674 232.971 248.685 233.536C248.685 234.037 248.546 234.485 248.269 234.88C247.991 235.275 247.597 235.584 247.085 235.808C246.583 236.032 245.991 236.144 245.309 236.144Z" fill="black"/>
</g>
</g>
</g>
<defs>
<filter id="filter0_d_526_1932" x="0" y="-4" width="336" height="310" filterUnits="userSpaceOnUse" color-interpolation-filters="sRGB">
<feFlood flood-opacity="0" result="BackgroundImageFix"/>
<feColorMatrix in="SourceAlpha" type="matrix" values="0 0 0 0 0 0 0 0 0 0 0 0 0 0 0 0 0 0 127 0" result="hardAlpha"/>
<feOffset dx="-2" dy="4"/>
<feGaussianBlur stdDeviation="12"/>
<feComposite in2="hardAlpha" operator="out"/>
<feColorMatrix type="matrix" values="0 0 0 0 0 0 0 0 0 0 0 0 0 0 0 0 0 0 0.1 0"/>
<feBlend mode="normal" in2="BackgroundImageFix" result="effect1_dropShadow_526_1932"/>
<feBlend mode="normal" in="SourceGraphic" in2="effect1_dropShadow_526_1932" result="shape"/>
</filter>
<filter id="filter1_d_526_1932" x="0" y="-4" width="336" height="310" filterUnits="userSpaceOnUse" color-interpolation-filters="sRGB">
<feFlood flood-opacity="0" result="BackgroundImageFix"/>
<feColorMatrix in="SourceAlpha" type="matrix" values="0 0 0 0 0 0 0 0 0 0 0 0 0 0 0 0 0 0 127 0" result="hardAlpha"/>
<feOffset dx="-2" dy="4"/>
<feGaussianBlur stdDeviation="12"/>
<feComposite in2="hardAlpha" operator="out"/>
<feColorMatrix type="matrix" values="0 0 0 0 0 0 0 0 0 0 0 0 0 0 0 0 0 0 0.1 0"/>
<feBlend mode="normal" in2="BackgroundImageFix" result="effect1_dropShadow_526_1932"/>
<feBlend mode="normal" in="SourceGraphic" in2="effect1_dropShadow_526_1932" result="shape"/>
</filter>
<clipPath id="clip0_526_1932">
<rect x="26" y="16" width="288" height="262" rx="12" fill="white"/>
</clipPath>
</defs>
</svg>
