<svg width="34" height="26" viewBox="0 0 34 26" fill="none" xmlns="http://www.w3.org/2000/svg">
<path d="M26.1354 25.872C24.3434 25.872 22.6474 25.2 21.0474 23.856C19.5114 22.448 18.7434 19.952 18.7434 16.368C18.7434 13.744 19.2234 11.312 20.1834 9.07199C21.2074 6.832 22.6794 4.944 24.5994 3.408C26.5194 1.808 28.9194 0.815996 31.7994 0.431997L32.1834 3.408C31.3514 3.472 30.3594 3.76 29.2074 4.272C28.1194 4.784 27.1594 5.456 26.3274 6.288C25.4954 7.12 25.0794 8.112 25.0794 9.264C25.0794 10.096 25.2714 10.672 25.6554 10.992C26.1034 11.248 26.6474 11.472 27.2874 11.664C28.1834 11.856 29.0794 12.208 29.9754 12.72C30.9354 13.232 31.7354 13.936 32.3754 14.832C33.0154 15.728 33.3354 16.944 33.3354 18.48C33.3354 20.656 32.6634 22.448 31.3194 23.856C29.9754 25.2 28.2474 25.872 26.1354 25.872ZM8.18338 25.872C6.32738 25.872 4.59938 25.2 2.99938 23.856C1.46338 22.448 0.695375 19.952 0.695375 16.368C0.695375 13.744 1.17537 11.312 2.13538 9.07199C3.15938 6.832 4.63138 4.944 6.55138 3.408C8.53538 1.808 10.9674 0.815996 13.8474 0.431997L14.2314 3.408C13.3354 3.472 12.3114 3.792 11.1594 4.368C10.0714 4.88 9.11138 5.552 8.27938 6.384C7.51138 7.216 7.12738 8.208 7.12738 9.36C7.12738 10.128 7.31938 10.672 7.70338 10.992C8.15138 11.248 8.69538 11.472 9.33538 11.664C10.2314 11.92 11.1274 12.304 12.0234 12.816C12.9834 13.264 13.7834 13.936 14.4234 14.832C15.0634 15.728 15.3834 16.976 15.3834 18.576C15.3834 20.688 14.7114 22.448 13.3674 23.856C12.0234 25.2 10.2954 25.872 8.18338 25.872Z" fill="#FF7E06"/>
</svg>
