<svg width="34" height="26" viewBox="0 0 34 26" fill="none" xmlns="http://www.w3.org/2000/svg">
<path d="M20.2794 25.872L19.8954 22.896C20.7914 22.768 21.7834 22.48 22.8714 22.032C23.9594 21.52 24.8874 20.848 25.6554 20.016C26.4874 19.184 26.9034 18.192 26.9034 17.04C26.9034 16.208 26.7114 15.664 26.3274 15.408C25.9434 15.088 25.4314 14.832 24.7914 14.64C23.9594 14.384 23.0634 14.032 22.1034 13.584C21.1434 13.072 20.3434 12.368 19.7034 11.472C19.0634 10.512 18.7434 9.296 18.7434 7.824C18.7434 5.648 19.4154 3.888 20.7594 2.544C22.1034 1.136 23.7994 0.431997 25.8474 0.431997C27.7674 0.431997 29.4954 1.136 31.0314 2.544C32.5674 3.888 33.3354 6.352 33.3354 9.936C33.3354 12.56 32.8234 15.024 31.7994 17.328C30.8394 19.568 29.3994 21.456 27.4794 22.992C25.5594 24.464 23.1594 25.424 20.2794 25.872ZM2.23138 25.872L1.84738 22.992C2.80738 22.864 3.83138 22.544 4.91938 22.032C6.00738 21.52 6.93538 20.848 7.70338 20.016C8.53538 19.184 8.95138 18.192 8.95138 17.04C8.95138 16.208 8.75938 15.664 8.37538 15.408C7.99138 15.152 7.44738 14.928 6.74338 14.736C5.91138 14.48 5.01538 14.128 4.05538 13.68C3.09538 13.168 2.29538 12.464 1.65538 11.568C1.01538 10.608 0.695375 9.36 0.695375 7.824C0.695375 5.648 1.36738 3.888 2.71138 2.544C4.11938 1.136 5.84738 0.431997 7.89538 0.431997C9.75138 0.431997 11.4474 1.136 12.9834 2.544C14.5834 3.952 15.3834 6.448 15.3834 10.032C15.3834 12.592 14.8714 15.024 13.8474 17.328C12.8874 19.568 11.4154 21.456 9.43138 22.992C7.51138 24.528 5.11138 25.488 2.23138 25.872Z" fill="#FF7E06"/>
</svg>
