<svg width="144" height="143" viewBox="0 0 144 143" fill="none" xmlns="http://www.w3.org/2000/svg">
<g filter="url(#filter0_d_526_2191)">
<rect x="24.5" y="24" width="95" height="95" rx="47.5" fill="#A13FB9" fill-opacity="0.1" shape-rendering="crispEdges"/>
<path d="M48.5625 63.6875V90.25H95.4375V63.6875H48.5625ZM68.518 81.4102C68.6575 81.564 68.765 81.744 68.8341 81.9399C68.9033 82.1357 68.9327 82.3433 68.9207 82.5506C68.9086 82.758 68.8554 82.9608 68.7641 83.1473C68.6727 83.3338 68.5451 83.5002 68.3887 83.6369C68.2323 83.7735 68.0502 83.8776 67.8532 83.943C67.6561 84.0084 67.4479 84.0339 67.2408 84.018C67.0338 84.002 66.832 83.945 66.6472 83.8501C66.4625 83.7553 66.2985 83.6246 66.1648 83.4656L59.7969 76.1766L66.1664 68.9109C66.2999 68.7511 66.4641 68.6196 66.6492 68.5242C66.8343 68.4287 67.0366 68.3712 67.2442 68.355C67.4518 68.3389 67.6606 68.3644 67.8582 68.4301C68.0558 68.4957 68.2384 68.6003 68.395 68.7375C68.5517 68.8747 68.6793 69.0419 68.7704 69.2291C68.8615 69.4164 68.9143 69.62 68.9256 69.828C68.9369 70.0359 68.9066 70.244 68.8363 70.4401C68.766 70.6361 68.6573 70.8161 68.5164 70.9695L63.9484 76.1797L68.518 81.4102ZM77.893 83.4656C77.7593 83.6246 77.5953 83.7553 77.4106 83.8501C77.2258 83.945 77.024 84.002 76.817 84.018C76.6099 84.0339 76.4018 84.0084 76.2047 83.943C76.0076 83.8776 75.8255 83.7735 75.6691 83.6369C75.5127 83.5002 75.3851 83.3338 75.2938 83.1473C75.2024 82.9608 75.1492 82.758 75.1371 82.5506C75.1251 82.3433 75.1545 82.1357 75.2237 81.9399C75.2928 81.744 75.4003 81.564 75.5398 81.4102L80.1094 76.1797L75.5414 70.9664C75.4006 70.813 75.2918 70.633 75.2215 70.4369C75.1513 70.2409 75.1209 70.0328 75.1322 69.8248C75.1435 69.6169 75.1963 69.4133 75.2874 69.226C75.3785 69.0388 75.5062 68.8716 75.6628 68.7344C75.8195 68.5971 76.002 68.4926 76.1996 68.4269C76.3972 68.3612 76.606 68.3357 76.8136 68.3519C77.0213 68.3681 77.2236 68.4256 77.4086 68.521C77.5937 68.6165 77.7579 68.748 77.8914 68.9078L84.2609 76.1734L77.893 83.4656Z" fill="#A13FB9"/>
<path d="M48.5625 52.75V60.5625H95.4375V52.75H48.5625ZM53.25 58.2188C52.941 58.2188 52.6389 58.1271 52.3819 57.9554C52.125 57.7837 51.9247 57.5397 51.8064 57.2542C51.6882 56.9687 51.6572 56.6545 51.7175 56.3514C51.7778 56.0483 51.9266 55.7699 52.1451 55.5514C52.3637 55.3329 52.6421 55.1841 52.9452 55.1238C53.2483 55.0635 53.5624 55.0944 53.8479 55.2127C54.1335 55.331 54.3775 55.5312 54.5492 55.7882C54.7209 56.0451 54.8125 56.3472 54.8125 56.6562C54.8125 57.0707 54.6479 57.4681 54.3549 57.7611C54.0618 58.0541 53.6644 58.2188 53.25 58.2188ZM57.9375 58.2188C57.6285 58.2188 57.3264 58.1271 57.0694 57.9554C56.8125 57.7837 56.6122 57.5397 56.4939 57.2542C56.3757 56.9687 56.3447 56.6545 56.405 56.3514C56.4653 56.0483 56.6141 55.7699 56.8326 55.5514C57.0512 55.3329 57.3296 55.1841 57.6327 55.1238C57.9358 55.0635 58.2499 55.0944 58.5354 55.2127C58.821 55.331 59.065 55.5312 59.2367 55.7882C59.4084 56.0451 59.5 56.3472 59.5 56.6562C59.5 57.0707 59.3354 57.4681 59.0424 57.7611C58.7493 58.0541 58.3519 58.2188 57.9375 58.2188ZM62.625 58.2188C62.316 58.2188 62.0139 58.1271 61.7569 57.9554C61.5 57.7837 61.2997 57.5397 61.1814 57.2542C61.0632 56.9687 61.0322 56.6545 61.0925 56.3514C61.1528 56.0483 61.3016 55.7699 61.5201 55.5514C61.7387 55.3329 62.0171 55.1841 62.3202 55.1238C62.6233 55.0635 62.9374 55.0944 63.2229 55.2127C63.5085 55.331 63.7525 55.5312 63.9242 55.7882C64.0959 56.0451 64.1875 56.3472 64.1875 56.6562C64.1875 57.0707 64.0229 57.4681 63.7299 57.7611C63.4368 58.0541 63.0394 58.2188 62.625 58.2188Z" fill="#A13FB9"/>
</g>
<defs>
<filter id="filter0_d_526_2191" x="0.5" y="0" width="143" height="143" filterUnits="userSpaceOnUse" color-interpolation-filters="sRGB">
<feFlood flood-opacity="0" result="BackgroundImageFix"/>
<feColorMatrix in="SourceAlpha" type="matrix" values="0 0 0 0 0 0 0 0 0 0 0 0 0 0 0 0 0 0 127 0" result="hardAlpha"/>
<feMorphology radius="8" operator="dilate" in="SourceAlpha" result="effect1_dropShadow_526_2191"/>
<feOffset/>
<feGaussianBlur stdDeviation="8"/>
<feComposite in2="hardAlpha" operator="out"/>
<feColorMatrix type="matrix" values="0 0 0 0 0.631373 0 0 0 0 0.247059 0 0 0 0 0.72549 0 0 0 0.2 0"/>
<feBlend mode="normal" in2="BackgroundImageFix" result="effect1_dropShadow_526_2191"/>
<feBlend mode="normal" in="SourceGraphic" in2="effect1_dropShadow_526_2191" result="shape"/>
</filter>
</defs>
</svg>
