<svg width="144" height="143" viewBox="0 0 144 143" fill="none" xmlns="http://www.w3.org/2000/svg">
<g filter="url(#filter0_d_526_2197)">
<rect x="24.5" y="24" width="95" height="95" rx="47.5" fill="#FFB900" fill-opacity="0.1" shape-rendering="crispEdges"/>
<path d="M84.4998 71.5C84.4998 73.8011 86.3653 75.6666 88.6665 75.6666C90.9677 75.6666 92.8332 73.8011 92.8332 71.5C92.8332 69.1988 90.9677 67.3333 88.6665 67.3333C86.3653 67.3333 84.4998 69.1988 84.4998 71.5ZM84.4998 71.5H59.4998M84.4998 54.8333C84.4998 57.1345 86.3653 59 88.6665 59C90.9677 59 92.8332 57.1345 92.8332 54.8333C92.8332 52.5321 90.9677 50.6666 88.6665 50.6666C86.3653 50.6666 84.4998 52.5321 84.4998 54.8333ZM84.4998 54.8333H76.1665C71.9998 54.8333 69.9165 56.9166 69.9165 61.0833V81.9166C69.9165 86.0833 71.9998 88.1666 76.1665 88.1666H84.4998M84.4998 88.1666C84.4998 90.4678 86.3653 92.3333 88.6665 92.3333C90.9677 92.3333 92.8332 90.4678 92.8332 88.1666C92.8332 85.8654 90.9677 84 88.6665 84C86.3653 84 84.4998 85.8654 84.4998 88.1666ZM59.4998 71.5C59.4998 73.8011 57.6344 75.6666 55.3332 75.6666C53.032 75.6666 51.1665 73.8011 51.1665 71.5C51.1665 69.1988 53.032 67.3333 55.3332 67.3333C57.6344 67.3333 59.4998 69.1988 59.4998 71.5Z" stroke="#FFB900" stroke-width="3" stroke-linecap="round" stroke-linejoin="round"/>
</g>
<defs>
<filter id="filter0_d_526_2197" x="0.5" y="0" width="143" height="143" filterUnits="userSpaceOnUse" color-interpolation-filters="sRGB">
<feFlood flood-opacity="0" result="BackgroundImageFix"/>
<feColorMatrix in="SourceAlpha" type="matrix" values="0 0 0 0 0 0 0 0 0 0 0 0 0 0 0 0 0 0 127 0" result="hardAlpha"/>
<feMorphology radius="8" operator="dilate" in="SourceAlpha" result="effect1_dropShadow_526_2197"/>
<feOffset/>
<feGaussianBlur stdDeviation="8"/>
<feComposite in2="hardAlpha" operator="out"/>
<feColorMatrix type="matrix" values="0 0 0 0 1 0 0 0 0 0.72549 0 0 0 0 0 0 0 0 0.2 0"/>
<feBlend mode="normal" in2="BackgroundImageFix" result="effect1_dropShadow_526_2197"/>
<feBlend mode="normal" in="SourceGraphic" in2="effect1_dropShadow_526_2197" result="shape"/>
</filter>
</defs>
</svg>
