<svg width="144" height="143" viewBox="0 0 144 143" fill="none" xmlns="http://www.w3.org/2000/svg">
<g filter="url(#filter0_d_526_2206)">
<rect x="24.5" y="24" width="95" height="95" rx="47.5" fill="#5083C1" fill-opacity="0.1" shape-rendering="crispEdges"/>
<path d="M74.5 72.5416C76.8012 72.5416 78.6667 70.6761 78.6667 68.3749C78.6667 66.0738 76.8012 64.2083 74.5 64.2083C72.1988 64.2083 70.3333 66.0738 70.3333 68.3749C70.3333 70.6761 72.1988 72.5416 74.5 72.5416ZM74.5 72.5416V78.7916M93.0625 69.6666C93.0625 79.8541 85.6667 89.3957 75.5625 92.1874C74.875 92.3749 74.125 92.3749 73.4375 92.1874C63.3333 89.3957 55.9375 79.8541 55.9375 69.6666V60.5207C55.9375 58.8124 57.2292 56.8749 58.8334 56.2291L70.4375 51.4791C73.0417 50.4166 75.9792 50.4166 78.5833 51.4791L90.1875 56.2291C91.7708 56.8749 93.0834 58.8124 93.0834 60.5207L93.0625 69.6666Z" stroke="#5083C1" stroke-width="3" stroke-miterlimit="10" stroke-linecap="round" stroke-linejoin="round"/>
</g>
<defs>
<filter id="filter0_d_526_2206" x="0.5" y="0" width="143" height="143" filterUnits="userSpaceOnUse" color-interpolation-filters="sRGB">
<feFlood flood-opacity="0" result="BackgroundImageFix"/>
<feColorMatrix in="SourceAlpha" type="matrix" values="0 0 0 0 0 0 0 0 0 0 0 0 0 0 0 0 0 0 127 0" result="hardAlpha"/>
<feMorphology radius="8" operator="dilate" in="SourceAlpha" result="effect1_dropShadow_526_2206"/>
<feOffset/>
<feGaussianBlur stdDeviation="8"/>
<feComposite in2="hardAlpha" operator="out"/>
<feColorMatrix type="matrix" values="0 0 0 0 0.313726 0 0 0 0 0.513726 0 0 0 0 0.756863 0 0 0 0.2 0"/>
<feBlend mode="normal" in2="BackgroundImageFix" result="effect1_dropShadow_526_2206"/>
<feBlend mode="normal" in="SourceGraphic" in2="effect1_dropShadow_526_2206" result="shape"/>
</filter>
</defs>
</svg>
