<svg width="144" height="143" viewBox="0 0 144 143" fill="none" xmlns="http://www.w3.org/2000/svg">
<g filter="url(#filter0_d_526_2214)">
<rect x="24.5" y="24" width="95" height="95" rx="47.5" fill="#FF7E06" fill-opacity="0.1" shape-rendering="crispEdges"/>
<path d="M72 75.6666C69.5277 75.6666 67.111 74.9335 65.0554 73.56C62.9998 72.1865 61.3976 70.2343 60.4515 67.9502C59.5054 65.6661 59.2579 63.1528 59.7402 60.728C60.2225 58.3032 61.413 56.076 63.1612 54.3278C64.9093 52.5796 67.1366 51.3891 69.5614 50.9068C71.9861 50.4245 74.4995 50.672 76.7835 51.6181C79.0676 52.5642 81.0199 54.1664 82.3934 56.222C83.7669 58.2776 84.5 60.6944 84.5 63.1666C84.5 66.4818 83.183 69.6613 80.8388 72.0055C78.4946 74.3497 75.3152 75.6666 72 75.6666ZM72 54.8333C70.3518 54.8333 68.7407 55.322 67.3703 56.2377C65.9998 57.1534 64.9317 58.4549 64.301 59.9776C63.6703 61.5003 63.5053 63.1759 63.8268 64.7924C64.1483 66.4089 64.942 67.8938 66.1074 69.0592C67.2729 70.2246 68.7577 71.0183 70.3743 71.3398C71.9908 71.6614 73.6663 71.4964 75.189 70.8656C76.7118 70.2349 78.0132 69.1668 78.9289 67.7964C79.8446 66.426 80.3333 64.8148 80.3333 63.1666C80.3333 60.9565 79.4554 58.8369 77.8926 57.2741C76.3298 55.7113 74.2101 54.8333 72 54.8333Z" fill="#FF7E06"/>
<path d="M90.7498 92.3333C90.1973 92.3333 89.6674 92.1138 89.2767 91.7231C88.886 91.3324 88.6665 90.8025 88.6665 90.25C88.6665 86.3823 87.1301 82.6729 84.3951 79.938C81.6602 77.2031 77.9509 75.6667 74.0832 75.6667H69.9165C66.0488 75.6667 62.3394 77.2031 59.6045 79.938C56.8696 82.6729 55.3332 86.3823 55.3332 90.25C55.3332 90.8025 55.1137 91.3324 54.723 91.7231C54.3323 92.1138 53.8024 92.3333 53.2498 92.3333C52.6973 92.3333 52.1674 92.1138 51.7767 91.7231C51.386 91.3324 51.1665 90.8025 51.1665 90.25C51.1665 85.2772 53.1419 80.5081 56.6583 76.9917C60.1746 73.4754 64.9437 71.5 69.9165 71.5H74.0832C79.056 71.5 83.8251 73.4754 87.3414 76.9917C90.8577 80.5081 92.8332 85.2772 92.8332 90.25C92.8332 90.8025 92.6137 91.3324 92.223 91.7231C91.8323 92.1138 91.3024 92.3333 90.7498 92.3333Z" fill="#FF7E06"/>
<path d="M71.9999 92.3333C71.7258 92.3348 71.454 92.2823 71.2001 92.1786C70.9463 92.0749 70.7154 91.9222 70.5208 91.7291L68.4374 89.6458C68.2093 89.4162 68.0379 89.1366 67.9366 88.8292C67.8354 88.5219 67.8071 88.1951 67.8541 87.8749L69.9374 73.2916C69.9374 72.7391 70.1569 72.2091 70.5476 71.8184C70.9383 71.4277 71.4682 71.2083 72.0208 71.2083C72.5733 71.2083 73.1032 71.4277 73.4939 71.8184C73.8846 72.2091 74.1041 72.7391 74.1041 73.2916L76.1874 87.8749C76.2344 88.1951 76.2062 88.5219 76.1049 88.8292C76.0037 89.1366 75.8322 89.4162 75.6041 89.6458L73.5208 91.7291C73.3212 91.9272 73.0835 92.0829 72.8222 92.1867C72.5608 92.2906 72.2811 92.3404 71.9999 92.3333Z" fill="#FF7E06"/>
</g>
<defs>
<filter id="filter0_d_526_2214" x="0.5" y="0" width="143" height="143" filterUnits="userSpaceOnUse" color-interpolation-filters="sRGB">
<feFlood flood-opacity="0" result="BackgroundImageFix"/>
<feColorMatrix in="SourceAlpha" type="matrix" values="0 0 0 0 0 0 0 0 0 0 0 0 0 0 0 0 0 0 127 0" result="hardAlpha"/>
<feMorphology radius="8" operator="dilate" in="SourceAlpha" result="effect1_dropShadow_526_2214"/>
<feOffset/>
<feGaussianBlur stdDeviation="8"/>
<feComposite in2="hardAlpha" operator="out"/>
<feColorMatrix type="matrix" values="0 0 0 0 1 0 0 0 0 0.494118 0 0 0 0 0.0235294 0 0 0 0.2 0"/>
<feBlend mode="normal" in2="BackgroundImageFix" result="effect1_dropShadow_526_2214"/>
<feBlend mode="normal" in="SourceGraphic" in2="effect1_dropShadow_526_2214" result="shape"/>
</filter>
</defs>
</svg>
