<svg width="50" height="50" viewBox="0 0 50 50" fill="none" xmlns="http://www.w3.org/2000/svg">
<rect width="50" height="50" rx="25" fill="#A13FB9"/>
<path d="M21.5 31.74C20.2333 31.74 19.1467 31.44 18.24 30.84C17.3333 30.2267 16.6333 29.38 16.14 28.3C15.66 27.2067 15.42 25.94 15.42 24.5C15.42 23.06 15.66 21.8 16.14 20.72C16.6333 19.6267 17.3333 18.78 18.24 18.18C19.1467 17.5667 20.2333 17.26 21.5 17.26C22.7533 17.26 23.8267 17.5667 24.72 18.18C25.6267 18.78 26.32 19.6267 26.8 20.72C27.2933 21.8 27.54 23.06 27.54 24.5C27.54 25.94 27.2933 27.2067 26.8 28.3C26.32 29.38 25.6267 30.2267 24.72 30.84C23.8267 31.44 22.7533 31.74 21.5 31.74ZM21.48 29.58C22.1867 29.58 22.8133 29.38 23.36 28.98C23.9067 28.5667 24.3267 27.98 24.62 27.22C24.9267 26.46 25.08 25.5533 25.08 24.5C25.08 23.4467 24.9267 22.54 24.62 21.78C24.3267 21.02 23.9067 20.44 23.36 20.04C22.8133 19.6267 22.1867 19.42 21.48 19.42C20.7733 19.42 20.1467 19.6267 19.6 20.04C19.0533 20.44 18.6267 21.02 18.32 21.78C18.0267 22.54 17.88 23.4467 17.88 24.5C17.88 25.5533 18.0267 26.46 18.32 27.22C18.6267 27.98 19.0533 28.5667 19.6 28.98C20.1467 29.38 20.7733 29.58 21.48 29.58ZM31.3648 31.5V20.24L28.8848 20.88V19.02L32.3248 17.5H33.8248V31.5H31.3648Z" fill="white"/>
</svg>
