<svg width="60" height="60" viewBox="0 0 60 60" fill="none" xmlns="http://www.w3.org/2000/svg">
<rect width="60" height="60" rx="30" fill="#FF7E06"/>
<path fill-rule="evenodd" clip-rule="evenodd" d="M21.4862 19.3007C22.7772 18.7121 24.2326 18.591 25.6031 18.9582C26.2699 19.1369 26.6656 19.8223 26.4869 20.4892C26.3083 21.156 25.6228 21.5517 24.956 21.373C24.1462 21.1561 23.2862 21.2276 22.5234 21.5754C21.7605 21.9232 21.1425 22.5255 20.7752 23.2792C20.408 24.0328 20.3144 24.8907 20.5105 25.7058C20.7066 26.5209 21.1802 27.2424 21.8501 27.7465C22.2135 28.02 22.3997 28.4693 22.3362 28.9197C22.2728 29.37 21.9697 29.7504 21.5449 29.9128C20.6957 30.2375 19.9156 30.7391 19.2604 31.3943C19.0397 31.615 18.8364 31.8499 18.6515 32.0968C18.2662 32.6111 18.2913 33.042 18.4941 33.4279C18.7335 33.8835 19.2837 34.3559 20.0619 34.6007C20.7204 34.8079 21.0863 35.5096 20.8792 36.1682C20.672 36.8267 19.9702 37.1926 19.3117 36.9855C18.0344 36.5837 16.886 35.742 16.2811 34.5908C15.6395 33.3699 15.6744 31.9012 16.6506 30.598C16.9064 30.2565 17.1875 29.9317 17.4926 29.6265C17.9631 29.156 18.4803 28.7428 19.0331 28.3914C18.5881 27.7626 18.2627 27.0507 18.0798 26.2907C17.748 24.9113 17.9064 23.4594 18.5279 22.184C19.1494 20.9086 20.1953 19.8892 21.4862 19.3007ZM37.4754 21.5754C36.7125 21.2276 35.8525 21.1561 35.0427 21.373C34.3759 21.5517 33.6904 21.156 33.5118 20.4892C33.3331 19.8223 33.7288 19.1369 34.3956 18.9582C35.7661 18.591 37.2215 18.7121 38.5125 19.3007C39.8034 19.8892 40.8493 20.9086 41.4708 22.184C42.0924 23.4594 42.2508 24.9113 41.9189 26.2907C41.736 27.0507 41.4106 27.7626 40.9656 28.3914C41.5184 28.7428 42.0356 29.156 42.5061 29.6265C42.8112 29.9317 43.0923 30.2565 43.3481 30.598C44.3243 31.9012 44.3593 33.3699 43.7176 34.5908C43.1127 35.742 41.9643 36.5837 40.687 36.9855C40.0285 37.1926 39.3267 36.8267 39.1195 36.1682C38.9124 35.5096 39.2783 34.8079 39.9368 34.6007C40.715 34.3559 41.2652 33.8835 41.5046 33.4279C41.7074 33.042 41.7325 32.6111 41.3472 32.0968C41.1623 31.8499 40.959 31.615 40.7383 31.3943C40.0831 30.7391 39.303 30.2375 38.4538 29.9128C38.029 29.7504 37.7259 29.37 37.6625 28.9197C37.599 28.4693 37.7852 28.02 38.1486 27.7465C38.8185 27.2424 39.2921 26.5209 39.4882 25.7058C39.6843 24.8907 39.5907 24.0328 39.2235 23.2792C38.8562 22.5255 38.2382 21.9232 37.4754 21.5754ZM29.9995 23.75C28.0052 23.75 26.3884 25.3667 26.3884 27.3611C26.3884 29.3555 28.0052 30.9723 29.9995 30.9723C31.9939 30.9723 33.6106 29.3555 33.6106 27.3611C33.6106 25.3668 31.9939 23.75 29.9995 23.75ZM34.0538 31.9338C35.3155 30.8143 36.1106 29.1806 36.1106 27.3611C36.1106 23.986 33.3746 21.25 29.9995 21.25C26.6244 21.25 23.8884 23.986 23.8884 27.3611C23.8884 29.1806 24.6835 30.8143 25.9453 31.9338C25.0918 32.3628 24.304 32.9284 23.6159 33.6165C23.3108 33.9216 23.0297 34.2464 22.7739 34.5879C22.2006 35.3533 21.9306 36.2063 21.9782 37.0672C22.025 37.9148 22.3736 38.6737 22.8721 39.2864C23.8529 40.492 25.4976 41.2501 27.2218 41.2501H32.7773C34.5015 41.2501 36.1461 40.492 37.127 39.2864C37.6254 38.6737 37.9741 37.9148 38.0209 37.0672C38.0684 36.2063 37.7985 35.3533 37.2252 34.5879C36.9694 34.2464 36.6883 33.9216 36.3831 33.6165C35.695 32.9284 34.9073 32.3628 34.0538 31.9338ZM29.9995 33.4723C28.2683 33.4723 26.6079 34.16 25.3837 35.3842C25.163 35.605 24.9597 35.8398 24.7748 36.0867C24.5203 36.4264 24.4622 36.7088 24.4744 36.9294C24.4873 37.1632 24.5862 37.4319 24.8113 37.7086C25.2777 38.2819 26.1845 38.7501 27.2218 38.7501H32.7773C33.8146 38.7501 34.7214 38.2819 35.1877 37.7086C35.4129 37.4319 35.5118 37.1632 35.5247 36.9294C35.5369 36.7088 35.4787 36.4264 35.2243 36.0867C35.0394 35.8398 34.8361 35.605 34.6154 35.3842C33.3912 34.16 31.7308 33.4723 29.9995 33.4723Z" fill="white"/>
</svg>
