<svg width="60" height="60" viewBox="0 0 60 60" fill="none" xmlns="http://www.w3.org/2000/svg">
<rect width="60" height="60" rx="30" fill="#FF7E06"/>
<path d="M41.127 30.6618C41.127 30.1095 40.6793 29.6618 40.127 29.6618C39.5747 29.6618 39.127 30.1095 39.127 30.6618H41.127ZM29.4385 21.0735C29.9908 21.0735 30.4385 20.6258 30.4385 20.0735C30.4385 19.5212 29.9908 19.0735 29.4385 19.0735V21.0735ZM35.7828 30.6618C35.7828 30.1095 35.335 29.6618 34.7828 29.6618C34.2305 29.6618 33.7828 30.1095 33.7828 30.6618H35.7828ZM29.4385 26.3676C29.9908 26.3676 30.4385 25.9199 30.4385 25.3676C30.4385 24.8154 29.9908 24.3676 29.4385 24.3676V26.3676ZM34.866 26.4794C35.2583 26.0907 35.2613 25.4576 34.8726 25.0652C34.484 24.6728 33.8508 24.6699 33.4584 25.0585L34.866 26.4794ZM28.7347 29.7379C28.3424 30.1266 28.3394 30.7598 28.7281 31.1521C29.1168 31.5445 29.7499 31.5475 30.1423 31.1588L28.7347 29.7379ZM41.25 22.4935L41.9538 23.2039C42.2236 22.9366 42.3187 22.5395 42.1992 22.1789C42.0797 21.8183 41.7662 21.5566 41.3901 21.5034L41.25 22.4935ZM36.9987 26.705L36.6851 27.6545C37.0422 27.7724 37.4353 27.68 37.7024 27.4154L36.9987 26.705ZM33.2197 22.9614L32.516 22.251C32.2449 22.5195 32.1503 22.9188 32.2719 23.2804L33.2197 22.9614ZM37.471 18.75L38.4608 18.6073C38.4069 18.2334 38.147 17.9219 37.7889 17.8019C37.4308 17.6818 37.0356 17.7738 36.7673 18.0396L37.471 18.75ZM34.1645 25.7691L33.2167 26.088C33.3171 26.3863 33.552 26.62 33.8509 26.7186L34.1645 25.7691ZM37.9434 22.0256L36.9537 22.1683C37.0171 22.6082 37.3632 22.9534 37.8033 23.0157L37.9434 22.0256ZM39.127 30.6618C39.127 35.9483 34.7982 40.25 29.4385 40.25V42.25C35.885 42.25 41.127 37.0706 41.127 30.6618H39.127ZM29.4385 40.25C24.0788 40.25 19.75 35.9483 19.75 30.6618H17.75C17.75 37.0706 22.992 42.25 29.4385 42.25V40.25ZM19.75 30.6618C19.75 25.3752 24.0788 21.0735 29.4385 21.0735V19.0735C22.992 19.0735 17.75 24.2529 17.75 30.6618H19.75ZM33.7828 30.6618C33.7828 33.0245 31.8467 34.9559 29.4385 34.9559V36.9559C32.9334 36.9559 35.7828 34.1468 35.7828 30.6618H33.7828ZM29.4385 34.9559C27.0303 34.9559 25.0943 33.0245 25.0943 30.6618H23.0943C23.0943 34.1468 25.9436 36.9559 29.4385 36.9559V34.9559ZM25.0943 30.6618C25.0943 28.2991 27.0303 26.3676 29.4385 26.3676V24.3676C25.9436 24.3676 23.0943 27.1768 23.0943 30.6618H25.0943ZM33.4584 25.0585L28.7347 29.7379L30.1423 31.1588L34.866 26.4794L33.4584 25.0585ZM40.5462 21.7831L36.2949 25.9945L37.7024 27.4154L41.9538 23.2039L40.5462 21.7831ZM33.9235 23.6719L38.1748 19.4604L36.7673 18.0396L32.516 22.251L33.9235 23.6719ZM37.3122 25.7554L34.478 24.8195L33.8509 26.7186L36.6851 27.6545L37.3122 25.7554ZM35.1122 25.4502L34.1675 22.6425L32.2719 23.2804L33.2167 26.088L35.1122 25.4502ZM36.4813 18.8927L36.9537 22.1683L38.9332 21.8828L38.4608 18.6073L36.4813 18.8927ZM37.8033 23.0157L41.1099 23.4836L41.3901 21.5034L38.0835 21.0354L37.8033 23.0157Z" fill="white"/>
</svg>
