<svg width="60" height="60" viewBox="0 0 60 60" fill="none" xmlns="http://www.w3.org/2000/svg">
<rect width="60" height="60" rx="30" fill="#FF7E06"/>
<path d="M32.4 18H27.6C23.6649 18 21.6974 18 20.3027 18.9766C19.7867 19.3379 19.3379 19.7867 18.9766 20.3027C18 21.6974 18 23.6649 18 27.6C18 31.5351 18 33.5026 18.9766 34.8973C19.3379 35.4133 19.7867 35.8621 20.3027 36.2234C21.6974 37.2 23.6649 37.2 27.6 37.2H32.4C36.3351 37.2 38.3026 37.2 39.6973 36.2234C40.2133 35.8621 40.6621 35.4133 41.0234 34.8973C42 33.5026 42 31.5351 42 27.6C42 23.6649 42 21.6974 41.0234 20.3027C40.6621 19.7867 40.2133 19.3379 39.6973 18.9766C38.3026 18 36.3351 18 32.4 18Z" stroke="white" stroke-width="2.5" stroke-linecap="round"/>
<path d="M28.7998 33.6H31.1998" stroke="white" stroke-width="1.5" stroke-linecap="round" stroke-linejoin="round"/>
<path d="M33 42L32.6214 41.4973C31.7679 40.3642 31.5563 38.6332 32.0961 37.2M27 42L27.3786 41.4973C28.2321 40.3642 28.4437 38.6332 27.9039 37.2" stroke="white" stroke-width="1.5" stroke-linecap="round"/>
<path d="M24 42H36" stroke="white" stroke-width="2" stroke-linecap="round"/>
</svg>
